<?xml version="1.0" encoding="UTF-8" standalone="no"?>
<svg
   xmlns:dc="http://purl.org/dc/elements/1.1/"
   xmlns:cc="http://creativecommons.org/ns#"
   xmlns:rdf="http://www.w3.org/1999/02/22-rdf-syntax-ns#"
   xmlns:svg="http://www.w3.org/2000/svg"
   xmlns="http://www.w3.org/2000/svg"
   xmlns:xlink="http://www.w3.org/1999/xlink"
   xmlns:sodipodi="http://sodipodi.sourceforge.net/DTD/sodipodi-0.dtd"
   xmlns:inkscape="http://www.inkscape.org/namespaces/inkscape"
   width="900"
   height="200"
   viewBox="0 0 900 200"
   version="1.1"
   id="svg2"
   inkscape:version="0.91 r13725"
   sodipodi:docname="banner.svg"
   inkscape:export-filename="/home/huntingbears/Desarrollo/dockerfiles/x.png"
   inkscape:export-xdpi="90"
   inkscape:export-ydpi="90">
  <metadata
     id="metadata64">
    <rdf:RDF>
      <cc:Work
         rdf:about="">
        <dc:format>image/svg+xml</dc:format>
        <dc:type
           rdf:resource="http://purl.org/dc/dcmitype/StillImage" />
        <dc:title>docker_wave_whale</dc:title>
      </cc:Work>
    </rdf:RDF>
  </metadata>
  <sodipodi:namedview
     pagecolor="#ffffff"
     bordercolor="#666666"
     borderopacity="1"
     objecttolerance="10"
     gridtolerance="10"
     guidetolerance="10"
     inkscape:pageopacity="0"
     inkscape:pageshadow="2"
     inkscape:window-width="1600"
     inkscape:window-height="873"
     id="namedview62"
     showgrid="false"
     inkscape:zoom="1.2470309"
     inkscape:cx="390.00068"
     inkscape:cy="91.940423"
     inkscape:window-x="0"
     inkscape:window-y="27"
     inkscape:window-maximized="1"
     inkscape:current-layer="svg2" />
  <title
     id="title4">docker_wave_whale</title>
  <description>Created with Sketch (http://www.bohemiancoding.com/sketch)</description>
  <defs
     id="defs6">
    <linearGradient
       id="linearGradient28120">
      <stop
         id="stop28122"
         offset="0"
         style="stop-color:#c4906f;stop-opacity:1" />
      <stop
         id="stop28124"
         offset="1"
         style="stop-color:#9c643e;stop-opacity:1" />
    </linearGradient>
    <radialGradient
       inkscape:collect="always"
       xlink:href="#linearGradient5155-914"
       id="radialGradient3606"
       gradientUnits="userSpaceOnUse"
       gradientTransform="matrix(1,0,0,0.78251873,-190.30226,-50.16503)"
       cx="441.35709"
       cy="132.52644"
       fx="441.35709"
       fy="132.52644"
       r="55.555" />
    <linearGradient
       id="linearGradient5155-914">
      <stop
         id="stop18850"
         offset="0"
         style="stop-color:#0a0a0a;stop-opacity:1;" />
      <stop
         id="stop18852"
         offset="1"
         style="stop-color:#333333;stop-opacity:1;" />
    </linearGradient>
    <radialGradient
       inkscape:collect="always"
       xlink:href="#linearGradient28120"
       id="radialGradient4441"
       cx="706.21039"
       cy="-18.617874"
       fx="706.21039"
       fy="-18.617874"
       r="53.988815"
       gradientTransform="matrix(1,0,0,1.2820866,-453.95504,147.07975)"
       gradientUnits="userSpaceOnUse" />
  </defs>
  <path
     id="path2830-5"
     d="m 247.19774,7.6692 c -8.02253,-0.067 -16.58092,1.64782 -23.25,4.8125 -6.75735,3.20658 -16.0856,12.83215 -19.15625,19.78125 -1.29816,2.93786 -2.9705,6.48377 -3.75,7.90625 -0.77952,1.42247 -2.14461,5.018065 -2.14461,6.257965 -7.69549,33.057196 -8.22384,45.713836 0.28125,93.093745 6.94902,22.85425 12.96675,27.55903 14.51961,30.39829 14.88755,21.40093 37.30897,30.2232 59.37505,21.40625 6.87754,-4.10298 17.9249,-15.97398 26.03125,-32.625 4.25911,-8.74847 5.84375,-11.49796 8.46875,-19.625 1.00501,-73.499549 13.65588,-80.867059 -18.09375,-113.375 -7.35156,-7.64612 -22.37945,-15.24 -34.5,-17.375 -2.44951,-0.43147 -5.10706,-0.6339 -7.78125,-0.65625 z m -3.15625,2.0625 c 11.93764,-0.16055 24.22934,2.74128 21,4.96875 -1.56169,1.07719 -1.27306,1.24431 1.15625,0.5625 5.82778,-1.63563 21.58486,10.06512 30.84375,22.90625 6.6796,9.263921 8.31728,15.685551 9.125,35.875001 l 0.75,18.625 -9.6875,-19.1875 c -9.23179,-18.33083 -10.46925,-22.93123 -5.84375,-21.15625 1.14594,0.43974 2.03125,0.22924 2.03125,-0.46875 0,-0.69798 -1.67077,-1.57725 -3.71875,-1.96875 -2.04798,-0.3915 -3.71875,-0.24806 -3.71875,0.34375 0,1.88107 -42.38453,5.8157 -63.6875,5.90625 -9.14162,0.0389 -15.25,0.63939 -15.25,1.53125 0,0.81919 0.68081,1.46875 1.5,1.46875 2.27143,0 1.80523,3.77592 -1.375,10.8125 -3.33612,7.38153 -7.5625,20.80734 -7.5625,24.0625 0,5.498399 -2.91222,3.274409 -3.84375,-2.9375 -1.59429,-10.63139 0.14514,-24.27258 3.375,-26.90625 1.50566,-1.22778 1.79971,-1.74879 0.65625,-1.15625 -1.64401,0.85189 -1.89019,0.16458 -1.09375,-3.25 -0.2056,-6.69427 2.07481,-8.43409 3.875,-14.8125 0,-2.67267 5.54372,-13.130951 8.75,-16.531251 1.65579,-1.75598 2.599,-3.61974 2.09375,-4.125 -1.14669,-1.14669 2.54624,-4.00463 12.75,-9.875 6.56676,-3.77795 9.6517,-4.57689 17.875,-4.6875 z m 39.15625,43.875001 c 0.97909,0.0331 1.77366,0.74513 2.1875,2.0625 0.47705,1.51858 1.80733,4.42076 3,6.46875 1.19268,2.04798 5.61927,10.74222 9.84375,19.34375 l 7.65625,15.656249 0.46875,17.875 c 0.3695,14.82765 -0.0801,19.36978 -2.5625,26.5625 -3.8211,11.07192 -12.05474,27.2292 -16.21875,32.25 l -6.90625,8.84375 c -30.8731,8.5118 -66.58154,-10.26831 -75.5,-36.71875 -4.95955,-10.32874 -4.90575,-19.80562 -4.78125,-30.9375 0.1863,-19.723739 0.46563,-21.556119 5.0625,-33.531249 2.67294,-6.96314 5.6172,-15.14539 6.53125,-18.21875 1.2984,-4.36565 2.22816,-5.41155 4.3125,-4.75 1.46736,0.46572 4.49579,0.88287 6.75,0.90625 6.841,0.071 56.62834,-4.66695 59.125,-5.625 0.37087,-0.14232 0.70488,-0.19855 1.03125,-0.1875 z m -0.90625,31.1875 c -3.31673,0.0191 -7.58335,1.46122 -9.65625,3.8125 -1.70952,1.93912 -2.18683,3.88106 -1.3125,5.46875 1.19828,2.17596 1.48086,2.03493 2.375,-1.09375 1.1548,-4.04092 8.53906,-6.70638 10.84375,-3.90625 1.89432,2.3015 3.52975,0.13415 2,-2.65625 -0.61238,-1.11703 -2.25995,-1.63644 -4.25,-1.625 z m -57.8125,1.21875 c -2.44017,0.12154 -4.4363,0.8937 -4.96875,2.28125 -1.14005,2.97089 0.77663,4.91065 2.34375,2.375 1.90663,-3.08497 9.56152,-1.47359 11.25,2.375 1.30729,2.97978 1.57443,3.06751 2.46875,0.75 0.65256,-1.69098 -0.0449,-3.52751 -2,-5.21875 -2.13357,-1.84565 -5.9564,-2.71873 -9.09375,-2.5625 z m 54.375,13.218749 c -1.22286,0.0436 -2.44339,0.48626 -3.21875,1.21875 -3.02819,2.86074 -3.58602,9.22782 -0.96875,12.46875 1.3299,1.64682 4.63299,2.17186 6.28125,0.84375 3.50068,-2.82073 4.14625,-10.1974 1.0625,-13.46875 -0.73164,-0.77615 -1.9334,-1.10622 -3.15625,-1.0625 z m -48.53125,1.0625 c -1.22286,0.0437 -2.50588,0.48628 -3.28125,1.21875 -3.02818,2.86074 -3.52351,9.2278 -0.90625,12.46875 1.32991,1.64681 4.63298,2.17186 6.28125,0.84375 3.50066,-2.82075 4.14625,-10.1974 1.0625,-13.46875 -0.73164,-0.77615 -1.9334,-1.10622 -3.15625,-1.0625 z m 36.28125,25.5625 c -2.72401,1.07677 -6.1459,4.57459 -9.8125,6.09375 -3.08712,1.40659 -7.0799,1.04444 -10.59375,-1.03125 -4.96097,-2.93051 -5.33128,-1.28442 -1.03125,1.96875 4.53661,3.43215 11.71205,2.75059 16.875,-1.59375 2.52044,-2.12081 4.5625,-4.56417 4.5625,-5.4375 z m 4.8125,15.59375 c -0.10953,0.0511 -0.0855,0.24231 0.125,0.59375 1.90625,3.18142 -10.14332,6.49371 -24.65625,6.75 -12.44916,0.21985 -13.0122,0.30964 -5.59375,1.21875 4.50557,0.55214 10.08673,1.11655 12.375,1.25 4.56385,0.26632 21.87202,-4.40861 21.875,-5.90625 10e-4,-0.51409 -1.11395,-1.84444 -2.5,-2.96875 -0.86628,-0.70269 -1.44264,-1.02264 -1.625,-0.9375 z m -3.53125,18.0625 c -1.45612,0.0903 -3.86648,0.58399 -6.8125,1.5625 -5.80603,1.92846 -8.22466,2.06751 -12.09375,0.71875 -5.66893,-1.9762 -8.25859,-0.64514 -3.03125,1.5625 4.14911,1.75228 13.60744,1.15755 19.78125,-1.28125 4.40351,-1.73949 4.58312,-2.71295 2.15625,-2.5625 z"
     style="fill:#0a0a0a;stroke:#000000;stroke-opacity:1"
     sodipodi:nodetypes="csssccccsccscccssscccssssssssssssccsssccsscccsccccsssssccsssssccsssssccssssccsssscccsssccssssssccssssc"
     inkscape:connector-curvature="0" />
  <path
     id="path5280"
     d="m 254.53316,192.16111 c -19.29544,-2.96139 -32.17827,-11.53071 -41.2398,-27.43162 -3.01494,-5.29054 -4.71976,-9.44052 -9.13639,-22.24035 l -3.70933,-10.75 -2.1811,-13.5 c 0.10205,-19.9815 2.73663,-23.348009 5.99127,-32.749999 6.70878,-19.38033 8.92324,-25.31561 9.77161,-26.19027 0.84277,-0.86888 1.16566,-0.8924 4.25321,-0.30982 3.60693,0.68058 8.5344,0.51462 23.50048,-0.79149 11.85367,-1.03448 32.35735,-3.13148 36.25,-3.70744 5.74063,-0.84939 6.27049,-0.7491 7.25941,1.37402 0.48035,1.03125 5.28084,10.65 10.66777,21.375 l 9.79441,19.5 0.34365,13.249999 c 0.63437,24.45904 -0.46883,29.8432 -10.05683,49.08254 -7.83835,15.72848 -18.46334,28.64508 -25.83029,31.40141 -4.47184,1.67313 -11.11488,2.38837 -15.67812,1.68802 l 0,0 5e-5,0 z m 7.54058,-28.93249 c 1.71243,-0.44373 4.09134,-1.26642 5.28646,-1.8282 4.75043,-2.23296 1.17135,-2.5975 -5.59865,-0.57024 -5.24397,1.57029 -9.95722,1.75449 -14.54331,0.56837 -1.78716,-0.46222 -3.34878,-0.61725 -3.74582,-0.37187 -0.99952,0.61774 -0.0207,1.40891 3.15072,2.54681 2.16669,0.7774 3.55739,0.90874 7.49855,0.70817 2.6612,-0.13544 6.23962,-0.6093 7.95205,-1.05304 z m -1.92932,-12.76216 c 6.36609,-1.29732 14.08399,-3.75765 14.91011,-4.75307 0.53241,-0.64152 0.36408,-1.04483 -1.04123,-2.49474 -1.96493,-2.0273 -2.35474,-2.12012 -2.57036,-0.61203 -0.43796,3.06316 -8.87255,5.14444 -24.27336,5.98958 -5.83748,0.32034 -10.52223,0.67379 -10.41058,0.78544 0.21676,0.21676 14.56195,1.95152 16.94562,2.04923 0.7818,0.032 3.67971,-0.40194 6.4398,-0.96441 l 0,0 z m -2.86875,-16.30212 c 1.66806,-0.56836 3.5223,-1.87602 5.96407,-4.206 1.94888,-1.85966 3.39981,-3.52587 3.22429,-3.70268 -0.17553,-0.1768 -2.38202,1.03309 -4.90331,2.68866 -2.52129,1.65557 -5.37951,3.15933 -6.35161,3.3417 -2.70699,0.50783 -6.32524,-0.10232 -9.17735,-1.54759 -3.60062,-1.82458 -4.79904,-1.47637 -2.4986,0.72597 3.59548,3.44215 8.64989,4.43517 13.74251,2.69994 z m -24.79965,-19.49145 c 2.82205,-1.97665 3.84413,-7.65181 2.07851,-11.54111 -0.96134,-2.11762 -2.35508,-2.92428 -4.76252,-2.75641 -3.35431,0.2339 -5.48282,3.92583 -5.16261,8.95462 0.18771,2.94791 0.37689,3.44054 1.81455,4.72509 1.8473,1.65056 4.21184,1.89274 6.03207,0.61781 z m 48.5,-1 c 2.67263,-1.87199 3.86903,-7.77274 2.32514,-11.46781 -1.30217,-3.11652 -5.07269,-3.86105 -7.70744,-1.52193 -3.4763,3.08626 -3.44879,10.5765 0.0478,13.02564 1.44477,1.01195 3.86166,0.99569 5.33446,-0.0359 l -10e-6,0 5e-5,0 z m -45.4519,-19.661909 c 0.51901,-1.25302 0.47113,-1.76465 -0.31434,-3.3591 -2.33307,-4.73591 -13.73636,-6.47148 -15.60295,-2.37475 -0.76949,1.68886 -0.72268,2.46589 0.19441,3.22701 0.64032,0.53142 0.99378,0.42757 2.125,-0.62437 1.85281,-1.72295 3.51914,-2.01128 6.50283,-1.12522 2.5343,0.7526 4.69701,2.66429 5.35324,4.73189 0.44661,1.40715 1.02771,1.24852 1.74181,-0.47546 l 0,0 z m 38.50904,-1.11166 c 1.35114,-2.78349 3.3689,-4.20836 6.73243,-4.75419 1.4067,-0.22827 2.16661,-0.049 3.27906,0.77344 2.0615,1.52413 2.98851,1.39093 2.98851,-0.42943 0,-2.79885 -1.78758,-3.763 -6.5,-3.50581 -4.43658,0.24213 -9.5,4.00295 -9.5,7.05608 0,1.56534 0.76456,3.45528 1.39259,3.44239 0.19658,-0.004 0.91991,-1.16615 1.60741,-2.58248 l 0,0 z"
     style="fill:url(#radialGradient4441);fill-opacity:1;fill-rule:nonzero;stroke:none"
     sodipodi:nodetypes="cscccsssssscccssccccssssssccsssssscccssssssccssssccsssccccsssssscccsssssscc"
     inkscape:connector-curvature="0" />
  <path
     id="path5282"
     d="m 197.60814,96.329481 c -1.21351,-1.46219 -2.11502,-7.48575 -2.10828,-14.08669 0.008,-8.04555 0.99727,-13.5366 3.04021,-16.87865 1.1378,-1.86135 1.28343,-2.375 0.67335,-2.375 -0.65987,0 -0.72373,-0.476 -0.41923,-3.125 l 0.35922,-3.125 c -3.93889,2.91443 2.80728,-9.506712 3.43004,-11.57622 0.94047,-3.868491 4.12572,-10.121661 7.67031,-15.058051 1.89977,-2.64574 3.2794,-5.08141 3.2794,-5.78962 0,-1.67161 2.22821,-3.51891 9.46141,-7.84401 8.93862,-5.34485 11.24071,-6.07509 20.0585,-6.36273 8.075,-0.26341 16.56377,0.73514 20.35509,2.3944 2.29513,1.00446 2.62316,1.64639 1.25,2.44618 -0.66519,0.38744 -0.15229,0.51329 2.13911,0.52485 2.37105,0.012 3.75782,0.37241 6.5,1.68947 9.81301,4.71319 22.96473,17.99872 27.83613,28.119341 3.31113,6.87907 4.48502,15.11114 5.16304,36.20639 l 0.31338,9.75 -2.1131,-3.75 c -3.05838,-5.42756 -13.126,-26.21849 -14.43493,-29.81 -0.61337,-1.683 -1.03948,-3.5955 -0.94692,-4.25 0.15166,-1.07237 0.37834,-1.1734 2.29329,-1.02201 3.61265,0.2856 2.51376,-1.428 -1.57616,-2.45785 -1.76459,-0.44433 -2.67656,-0.46479 -3.30217,-0.0741 -1.55725,0.97251 -4.67743,1.58537 -13.27469,2.60739 -13.14234,1.56232 -32.03846,2.93758 -48.23404,3.51046 -8.11913,0.28719 -15.41697,0.69732 -16.21742,0.9114 -1.90905,0.51056 -2.16036,1.42851 -0.5873,2.14525 2.4013,1.0941 2.22166,2.3974 -1.67988,12.18787 -3.15832,7.92544 -6.29368,17.83018 -6.72721,21.25158 -0.58186,4.591999 -0.98851,5.301479 -2.20115,3.84034 l 0,0 0,1e-5 z"
     style="fill:url(#radialGradient3606);fill-opacity:1;fill-rule:nonzero;stroke:none"
     sodipodi:nodetypes="cssscccssssssssscccsssssssssssccc"
     inkscape:connector-curvature="0" />
  <g
     id="g4442"
     transform="translate(129.73641,1.01295)">
    <path
       id="path3612"
       d="m 65.83207,99.005109 c -1.133907,-3.188088 -2.348381,-6.350489 -3.726329,-9.439218 -0.709535,-1.880997 -3.283517,-1.420632 -3.807427,0.335371 -1.023706,2.151359 -0.498287,4.581691 -0.272592,6.847451 0.207804,2.025348 1.041933,3.883737 1.766201,5.759817 0.530551,1.81381 1.369745,3.53827 1.61925,5.4316 0.740436,2.9727 1.104627,6.01194 1.387829,9.05648 0.50976,2.03021 -0.0138,3.99808 -0.228205,6.02225 -0.335215,1.54909 0.127732,4.24158 2.221478,3.90924 1.009233,-1.30397 1.194912,-3.51838 1.321682,-5.25535 -0.239519,-2.28558 -0.287324,-4.59562 0.09709,-6.86827 0.392063,-3.19567 -0.09881,-6.40277 0.0047,-9.60717 -0.07814,-1.48839 -0.01577,-2.96873 -0.0847,-4.45069 -0.07176,-0.585 -0.195004,-1.161816 -0.298997,-1.741511 z"
       style="fill:none;stroke:#000000;stroke-width:2;stroke-linecap:butt;stroke-linejoin:miter;stroke-miterlimit:4;stroke-dasharray:none;stroke-opacity:1"
       inkscape:connector-curvature="0" />
    <path
       sodipodi:nodetypes="csssssssssssc"
       id="path4394"
       d="m 63.557236,125.04009 c -0.251492,-0.6019 -0.07111,-0.98306 0.217973,-3.4431 0.302156,-2.57124 0.302657,-2.64273 0.01088,-5.21837 -0.439151,-3.87666 -0.780029,-6.09939 -1.278564,-8.33703 -0.516092,-2.31643 -0.788093,-2.76767 -2.241493,-6.82561 -1.249665,-3.489113 -1.596451,-5.073541 -1.607011,-7.999147 -0.0081,-2.242347 0.41661,-3.338471 1.206585,-3.856082 0.786706,-0.51547 1.221146,-0.01189 2.284262,2.53247 0.816356,1.953789 0.993977,2.648987 0.994607,3.486272 0.0015,2.0037 1.129461,12.791407 1.778933,17.238577 0.317887,2.17669 0.364554,8.83936 0.123609,10.73535 -0.175243,1.37898 -0.708057,2.74388 -0.923845,2.74388 -0.0868,0 -0.41439,-0.69451 -0.565936,-1.05721 z"
       style="fill:#955021;fill-opacity:1;fill-rule:nonzero;stroke:none"
       inkscape:connector-curvature="0" />
  </g>
  <g
     id="g4446"
     transform="translate(129.73641,-0.26436)">
    <path
       id="path3612-2"
       d="m 177.56139,100.28243 c 1.13391,-3.188093 2.34838,-6.350493 3.72633,-9.439223 0.70953,-1.881 3.28352,-1.42063 3.80743,0.33537 1.0237,2.15136 0.49828,4.58169 0.27259,6.84745 -0.20781,2.025353 -1.04194,3.883743 -1.7662,5.759823 -0.53055,1.81381 -1.36975,3.53827 -1.61925,5.4316 -0.74044,2.9727 -1.10463,6.01194 -1.38783,9.05648 -0.50976,2.03021 0.0138,3.99808 0.2282,6.02225 0.33522,1.54909 -0.12773,4.24158 -2.22148,3.90924 -1.00923,-1.30397 -1.19491,-3.51838 -1.32168,-5.25535 0.23952,-2.28558 0.28733,-4.59562 -0.0971,-6.86827 -0.39206,-3.19567 0.0988,-6.40277 -0.005,-9.60717 0.0781,-1.48839 0.0158,-2.96873 0.0847,-4.45069 0.0718,-0.585 0.19501,-1.16182 0.299,-1.74151 z"
       style="fill:none;stroke:#000000;stroke-width:2;stroke-linecap:butt;stroke-linejoin:miter;stroke-miterlimit:4;stroke-dasharray:none;stroke-opacity:1"
       inkscape:connector-curvature="0" />
    <path
       sodipodi:nodetypes="cssssssssssscc"
       id="path4394-4"
       d="m 179.90944,126.4683 c 0.25149,-0.6019 -0.002,-0.95717 -0.2912,-3.41721 -0.30216,-2.57124 -0.30266,-2.81951 -0.0109,-5.39515 0.43915,-3.87666 0.78003,-6.09939 1.27856,-8.33703 0.5161,-2.31643 0.90551,-2.76767 2.35891,-6.82561 1.24967,-3.489113 1.61476,-4.966853 1.62532,-7.892453 0.008,-2.24235 -0.55233,-3.43 -1.34231,-3.94761 -0.7867,-0.51547 -1.29437,-0.10787 -2.35748,2.4365 -0.81636,1.95378 -0.99398,2.37309 -0.99461,3.21038 -10e-4,2.0037 -0.79107,12.617773 -1.44054,17.064943 -0.31789,2.17669 -0.57795,9.388 -0.337,11.28399 0.17524,1.37898 0.73709,2.66621 0.95287,2.66621 0.0868,0 0.15681,-0.54676 0.30836,-0.90946 l 0.25002,0.0625 z"
       style="fill:#955021;fill-opacity:1;fill-rule:nonzero;stroke:none"
       inkscape:connector-curvature="0" />
  </g>
  <path
     style="fill:#3a4e55;fill-rule:evenodd;stroke:none;stroke-width:1"
     inkscape:connector-curvature="0"
     id="path18-6"
     d="m 210.04362,63.663032 -8.31783,0.727434 c -3.84142,0.335951 -7.73213,1.365387 -11.26222,2.916459 -1.73382,0.761884 -3.66644,1.780743 -5.33668,2.995811 2.58697,2.829246 4.10706,6.553015 4.78675,10.296021 0.92235,5.09168 0.4716,11.862899 -2.65137,16.183694 l -1.55382,2.151271 -2.20576,-1.475776 c -5.55214,-3.714326 -10.42466,-9.157473 -11.77458,-15.729639 -6.08645,2.383481 -13.4583,2.590579 -19.24274,-0.105606 l -2.37284,-1.106006 0.98587,-2.425049 c 3.86201,-9.495759 13.35122,-13.161968 22.91265,-13.496429 11.14023,-36.71911 40.67903,-56.225988 78.27642,-59.5140579 19.4239,-1.6987118 37.88002,4.0046005 49.5351,20.3500089 l 0.19039,0.267335 1.74213,2.878467 c 4.09362,7.285648 5.95959,15.496161 5.91298,23.866891 l -0.0146,2.507823 -14.06702,1.230228 c -14.24414,1.217847 -78.0362,7.22077 -85.54279,7.48112 z"
     sodipodi:nodetypes="cscccccccscccsccccccc" />
  <path
     style="fill:#00aada;fill-rule:evenodd;stroke:none;stroke-width:1"
     inkscape:connector-curvature="0"
     id="path20-7"
     d="m 174.12388,77.480271 c -0.35315,8.66884 6.65065,14.840974 10.9087,17.689675 4.12122,-5.701887 3.61896,-19.655706 -4.08583,-24.875117 3.7023,-3.916942 11.87802,-7.888973 20.53923,-8.646437 l 105.42894,-9.220259 c 0.0513,-9.114578 -2.26351,-17.300635 -6.51211,-24.110458 l -1.39115,-2.088211 c -0.87219,-1.222446 -1.8104,-2.394019 -2.81165,-3.512866 l -7e-4,6.1e-5 c -4.35815,0.09997 -8.3632,0.353694 -12.01227,0.75386 l -0.002,1.83e-4 c -7.17028,0.787742 -12.95864,2.148032 -17.26751,4.076567 -0.64145,0.287936 -1.39316,-7.2e-5 -1.67964,-0.64094 -0.28577,-0.640929 7.8e-4,-1.393218 0.64164,-1.679694 0.57232,-0.256523 1.17167,-0.502021 1.79222,-0.738803 6.4e-4,-7.61e-4 0.001,-8.22e-4 0.002,-8.83e-4 3.41141,-1.304626 7.10378,-2.305443 11.91843,-3.027404 -0.28779,0.02094 0.29552,-0.06953 0.29692,-0.06966 0.16349,-0.02416 0.36911,-0.06611 0.53336,-0.08963 1.89562,-0.273597 3.94969,-0.475785 6.05188,-0.659631 2.2987,-0.201032 4.56762,-0.35577 7.11045,-0.448492 l 0.0606,-0.04829 C 283.9976,11.038932 269.74416,6.3182409 252.52804,7.8238714 216.08944,11.0106 186.59508,29.865287 176.08062,67.325957 c -9.79659,-0.146705 -18.91195,3.14504 -22.43226,11.801945 7.10239,3.310971 15.68906,1.306402 20.47552,-1.647631" />
  <path
     style="fill:#d5eef2;fill-rule:evenodd;stroke:none;stroke-width:1"
     inkscape:connector-curvature="0"
     id="path46-6"
     d="m 260.99148,35.730315 c -2.17142,0.189901 -4.08715,-1.41835 -4.27705,-3.589771 -0.1899,-2.17142 1.41771,-4.086395 3.58913,-4.276296 2.17282,-0.190024 4.08773,1.41689 4.27763,3.58831 0.18991,2.171421 -1.41689,4.087734 -3.58971,4.277757" />
  <path
     style="fill:#3a4e55;fill-rule:evenodd;stroke:none;stroke-width:1"
     inkscape:connector-curvature="0"
     id="path48-0"
     d="m 260.89387,34.614184 c -0.35945,0.03144 -0.70876,-0.0064 -1.03626,-0.101047 0.32601,-0.228639 0.52565,-0.620988 0.48846,-1.046181 -0.0555,-0.634992 -0.61519,-1.103986 -1.25018,-1.048453 -0.43499,0.03804 -0.79146,0.313036 -0.95615,0.68612 -0.16681,-0.320134 -0.27497,-0.678518 -0.30848,-1.061751 -0.13602,-1.55531 1.01454,-2.927173 2.56985,-3.063193 1.55601,-0.13608 2.92793,1.01518 3.06395,2.57049 0.13614,1.55671 -1.01518,2.927934 -2.57119,3.064015" />
  <path
     style="fill:#c0dbe1;fill-rule:evenodd;stroke:none;stroke-width:1"
     inkscape:connector-curvature="0"
     id="path52-2"
     d="m 248.05763,8.3000962 c 10.14524,3.7706798 16.04114,9.5865958 19.61607,16.1868528 3.52794,-1.350051 7.8194,-2.389872 12.84863,-3.115801 1.89422,-0.273475 3.89163,-0.503123 5.99382,-0.686969 2.42248,-0.211857 4.98197,-0.36382 7.67428,-0.45552 -9.71331,-8.146458 -21.30372,-14.0591113 -41.66239,-12.4047876 -1.50216,0.1313711 -2.99126,0.2911967 -4.47041,0.4762248" />
  <path
     style="fill:#d5eef2;fill-rule:evenodd;stroke:none;stroke-width:1"
     inkscape:connector-curvature="0"
     id="path54-6"
     d="m 263.50181,18.473751 c 1.5076,1.711593 3.01638,3.895923 4.16985,6.014081 3.528,-1.349352 7.82074,-2.390693 12.85073,-3.115985 -3.63706,-1.581736 -8.75496,-2.893031 -17.02058,-2.898096" />
  <g
     style="font-style:normal;font-weight:normal;font-size:40px;line-height:125%;font-family:sans-serif;letter-spacing:0px;word-spacing:0px;fill:#000000;fill-opacity:1;stroke:none;stroke-width:1px;stroke-linecap:butt;stroke-linejoin:miter;stroke-opacity:1"
     id="text4470">
    <path
       d="m 417.94639,39.714286 q 0,8.505 -2.385,15.3 -2.385,6.75 -6.615,11.52 -4.23,4.725 -10.035,7.245 -5.805,2.52 -12.6,2.52 l -20.97,0 7.785,-63.27 20.97,0 q 5.49,0 9.9,1.845 4.41,1.845 7.515,5.31 3.105,3.465 4.77,8.415 1.665,4.95 1.665,11.115 z m -2.565,0.045 q 0,-5.805 -1.53,-10.395 -1.485,-4.59 -4.32,-7.785 -2.79,-3.195 -6.795,-4.86 -3.96,-1.71 -8.865,-1.71 l -18.54,0 -7.335,59.31 18.54,0 q 6.21,0 11.475,-2.34 5.31,-2.34 9.135,-6.75 3.87,-4.455 6.03,-10.845 2.205,-6.435 2.205,-14.625 z"
       style="font-style:italic;font-variant:normal;font-weight:200;font-stretch:normal;font-size:90px;font-family:Lato;-inkscape-font-specification:'Lato Ultra-Light Italic'"
       id="path4557" />
    <path
       d="m 441.72608,74.949286 q 4.23,0 7.695,-2.16 3.51,-2.205 5.985,-5.805 2.475,-3.6 3.825,-8.19 1.395,-4.635 1.395,-9.495 0,-3.78 -0.945,-6.75 -0.9,-3.015 -2.655,-5.085 -1.71,-2.07 -4.185,-3.15 -2.475,-1.125 -5.535,-1.125 -2.835,0 -5.355,0.99 -2.475,0.99 -4.59,2.745 -2.07,1.71 -3.735,4.14 -1.665,2.385 -2.835,5.22 -1.17,2.835 -1.8,6.03 -0.585,3.15 -0.585,6.435 0,3.78 0.9,6.795 0.945,3.015 2.655,5.13 1.71,2.07 4.185,3.195 2.475,1.08 5.58,1.08 z m -0.225,1.89 q -3.555,0 -6.435,-1.26 -2.835,-1.26 -4.86,-3.6 -1.98,-2.34 -3.06,-5.67 -1.08,-3.375 -1.08,-7.56 0,-3.51 0.675,-6.93 0.72,-3.42 2.025,-6.435 1.305,-3.06 3.195,-5.625 1.89,-2.61 4.275,-4.455 2.385,-1.89 5.22,-2.925 2.835,-1.08 6.075,-1.08 3.555,0 6.39,1.26 2.88,1.26 4.86,3.6 2.025,2.34 3.105,5.67 1.08,3.33 1.08,7.47 0,3.51 -0.72,6.93 -0.675,3.375 -1.98,6.435 -1.305,3.06 -3.195,5.67 -1.89,2.61 -4.275,4.5 -2.385,1.89 -5.265,2.97 -2.835,1.035 -6.03,1.035 z"
       style="font-style:italic;font-variant:normal;font-weight:200;font-stretch:normal;font-size:90px;font-family:Lato;-inkscape-font-specification:'Lato Ultra-Light Italic'"
       id="path4559" />
    <path
       d="m 503.66999,68.109286 q -2.43,2.7 -4.59,4.41 -2.115,1.71 -4.185,2.655 -2.025,0.945 -4.05,1.305 -2.025,0.36 -4.275,0.36 -3.825,0 -6.615,-1.305 -2.745,-1.35 -4.59,-3.69 -1.8,-2.34 -2.7,-5.535 -0.855,-3.195 -0.855,-6.93 0,-3.51 0.72,-6.975 0.72,-3.465 2.07,-6.57 1.35,-3.15 3.285,-5.805 1.935,-2.7 4.32,-4.635 2.43,-1.98 5.265,-3.06 2.835,-1.125 6.03,-1.125 2.16,0 3.915,0.45 1.8,0.405 3.24,1.215 1.44,0.765 2.565,1.845 1.17,1.08 2.16,2.43 l -0.63,0.72 q -0.27,0.27 -0.675,0.27 -0.36,0 -0.99,-0.765 -0.63,-0.81 -1.845,-1.71 -1.17,-0.945 -3.06,-1.71 -1.89,-0.81 -4.77,-0.81 -4.14,0 -7.695,2.205 -3.51,2.205 -6.075,5.895 -2.565,3.645 -4.05,8.415 -1.44,4.725 -1.44,9.765 0,3.285 0.72,6.12 0.765,2.835 2.295,4.95 1.575,2.07 3.96,3.285 2.385,1.17 5.715,1.17 2.61,0 4.635,-0.54 2.07,-0.585 3.69,-1.44 1.62,-0.855 2.79,-1.845 1.215,-0.99 2.07,-1.845 0.9,-0.855 1.485,-1.395 0.63,-0.585 1.035,-0.585 0.405,0 0.675,0.27 l 0.45,0.54 0,0 z"
       style="font-style:italic;font-variant:normal;font-weight:200;font-stretch:normal;font-size:90px;font-family:Lato;-inkscape-font-specification:'Lato Ultra-Light Italic'"
       id="path4561" />
    <path
       d="m 523.29702,11.229286 -4.95,40.365 1.845,0 q 0.72,0 1.17,-0.135 0.45,-0.18 1.08,-0.765 l 20.34,-17.865 q 0.405,-0.45 0.81,-0.675 0.45,-0.225 1.08,-0.225 l 1.89,0 -21.96,19.215 q -0.81,0.765 -1.395,1.035 0.585,0.27 0.945,0.675 0.36,0.36 0.72,0.81 l 17.82,22.635 -1.89,0 q -0.45,0 -0.81,-0.135 -0.315,-0.135 -0.63,-0.585 l -16.515,-21.015 q -0.63,-0.765 -1.26,-1.035 -0.585,-0.27 -1.8,-0.27 l -1.665,0 -2.79,23.04 -2.25,0 7.965,-65.07 2.25,0 z"
       style="font-style:italic;font-variant:normal;font-weight:200;font-stretch:normal;font-size:90px;font-family:Lato;-inkscape-font-specification:'Lato Ultra-Light Italic'"
       id="path4563" />
    <path
       d="m 581.52983,39.804286 q 0,1.8 -0.495,3.42 -0.45,1.62 -1.71,3.105 -1.26,1.44 -3.465,2.745 -2.16,1.26 -5.58,2.385 -3.42,1.08 -8.235,2.025 -4.77,0.9 -11.205,1.575 -0.18,1.17 -0.27,2.34 -0.045,1.125 -0.045,2.295 0,3.555 0.81,6.39 0.81,2.79 2.43,4.77 1.62,1.98 4.05,3.06 2.475,1.035 5.715,1.035 2.475,0 4.5,-0.54 2.025,-0.585 3.645,-1.44 1.62,-0.855 2.835,-1.845 1.215,-1.035 2.115,-1.89 0.945,-0.855 1.575,-1.395 0.63,-0.585 1.08,-0.585 0.36,0 0.63,0.27 l 0.45,0.54 q -2.16,2.295 -4.185,3.96 -2.025,1.665 -4.095,2.745 -2.07,1.08 -4.275,1.575 -2.16,0.495 -4.635,0.495 -3.645,0 -6.435,-1.17 -2.79,-1.215 -4.68,-3.42 -1.89,-2.205 -2.835,-5.355 -0.945,-3.195 -0.945,-7.155 0,-3.33 0.63,-6.705 0.675,-3.42 1.935,-6.57 1.305,-3.15 3.15,-5.895 1.89,-2.79 4.32,-4.815 2.475,-2.07 5.49,-3.24 3.015,-1.215 6.525,-1.215 3.195,0 5.355,0.9 2.16,0.855 3.465,2.16 1.305,1.305 1.845,2.79 0.54,1.485 0.54,2.655 z m -11.295,-6.705 q -4.005,0 -7.2,1.71 -3.195,1.71 -5.625,4.545 -2.385,2.835 -4.005,6.525 -1.575,3.645 -2.295,7.515 6.255,-0.72 10.8,-1.575 4.545,-0.9 7.695,-1.935 3.195,-1.035 5.13,-2.205 1.935,-1.17 3.015,-2.43 1.08,-1.26 1.44,-2.61 0.36,-1.35 0.36,-2.745 0,-1.035 -0.495,-2.205 -0.45,-1.215 -1.575,-2.205 -1.08,-1.035 -2.88,-1.71 -1.755,-0.675 -4.365,-0.675 z"
       style="font-style:italic;font-variant:normal;font-weight:200;font-stretch:normal;font-size:90px;font-family:Lato;-inkscape-font-specification:'Lato Ultra-Light Italic'"
       id="path4565" />
    <path
       d="m 590.29499,76.299286 5.355,-44.55 0.9,0 q 0.495,0 0.72,0.315 0.225,0.315 0.225,0.72 l -1.665,15.12 q 1.845,-4.77 4.095,-8.235 2.25,-3.465 4.77,-5.49 2.52,-2.07 5.265,-2.61 2.79,-0.54 5.715,0.585 l -0.405,2.07 q -3.105,-1.17 -5.94,-0.45 -2.835,0.675 -5.355,3.06 -2.475,2.34 -4.635,6.3 -2.16,3.915 -3.915,9.18 l -2.88,23.985 -2.25,0 z"
       style="font-style:italic;font-variant:normal;font-weight:200;font-stretch:normal;font-size:90px;font-family:Lato;-inkscape-font-specification:'Lato Ultra-Light Italic'"
       id="path4567" />
    <path
       d="m 652.46389,33.639286 -5.265,42.66 -2.34,0 5.04,-40.86 -21.195,0 -4.995,40.23 -1.755,10.89 q -0.315,1.08 -1.215,1.08 l -0.72,0 6.39,-52.155 -6.3,-0.27 q -0.72,-0.045 -0.72,-0.675 l 0.09,-0.9 7.155,0 0.585,-4.5 q 0.495,-4.14 1.98,-7.335 1.485,-3.195 3.735,-5.355 2.295,-2.205 5.265,-3.33 3.015,-1.125 6.525,-1.125 0.63,0 1.395,0.09 0.81,0.045 1.575,0.18 0.81,0.135 1.485,0.315 0.675,0.18 1.125,0.405 l -0.225,1.035 q -0.09,0.36 -0.45,0.36 -0.315,0 -0.945,-0.135 -0.585,-0.135 -1.53,-0.27 -0.9,-0.18 -2.25,-0.18 -3.06,0 -5.67,0.945 -2.61,0.9 -4.635,2.79 -1.98,1.89 -3.33,4.77 -1.305,2.88 -1.8,6.84 l -0.63,4.5 23.625,0 z"
       style="font-style:italic;font-variant:normal;font-weight:200;font-stretch:normal;font-size:90px;font-family:Lato;-inkscape-font-specification:'Lato Ultra-Light Italic'"
       id="path4569" />
    <path
       d="m 663.21186,76.299286 7.875,-65.07 2.25,0 -7.92,65.07 -2.205,0 z"
       style="font-style:italic;font-variant:normal;font-weight:200;font-stretch:normal;font-size:90px;font-family:Lato;-inkscape-font-specification:'Lato Ultra-Light Italic'"
       id="path4571" />
    <path
       d="m 713.71733,39.804286 q 0,1.8 -0.495,3.42 -0.45,1.62 -1.71,3.105 -1.26,1.44 -3.465,2.745 -2.16,1.26 -5.58,2.385 -3.42,1.08 -8.235,2.025 -4.77,0.9 -11.205,1.575 -0.18,1.17 -0.27,2.34 -0.045,1.125 -0.045,2.295 0,3.555 0.81,6.39 0.81,2.79 2.43,4.77 1.62,1.98 4.05,3.06 2.475,1.035 5.715,1.035 2.475,0 4.5,-0.54 2.025,-0.585 3.645,-1.44 1.62,-0.855 2.835,-1.845 1.215,-1.035 2.115,-1.89 0.945,-0.855 1.575,-1.395 0.63,-0.585 1.08,-0.585 0.36,0 0.63,0.27 l 0.45,0.54 q -2.16,2.295 -4.185,3.96 -2.025,1.665 -4.095,2.745 -2.07,1.08 -4.275,1.575 -2.16,0.495 -4.635,0.495 -3.645,0 -6.435,-1.17 -2.79,-1.215 -4.68,-3.42 -1.89,-2.205 -2.835,-5.355 -0.945,-3.195 -0.945,-7.155 0,-3.33 0.63,-6.705 0.675,-3.42 1.935,-6.57 1.305,-3.15 3.15,-5.895 1.89,-2.79 4.32,-4.815 2.475,-2.07 5.49,-3.24 3.015,-1.215 6.525,-1.215 3.195,0 5.355,0.9 2.16,0.855 3.465,2.16 1.305,1.305 1.845,2.79 0.54,1.485 0.54,2.655 z m -11.295,-6.705 q -4.005,0 -7.2,1.71 -3.195,1.71 -5.625,4.545 -2.385,2.835 -4.005,6.525 -1.575,3.645 -2.295,7.515 6.255,-0.72 10.8,-1.575 4.545,-0.9 7.695,-1.935 3.195,-1.035 5.13,-2.205 1.935,-1.17 3.015,-2.43 1.08,-1.26 1.44,-2.61 0.36,-1.35 0.36,-2.745 0,-1.035 -0.495,-2.205 -0.45,-1.215 -1.575,-2.205 -1.08,-1.035 -2.88,-1.71 -1.755,-0.675 -4.365,-0.675 z"
       style="font-style:italic;font-variant:normal;font-weight:200;font-stretch:normal;font-size:90px;font-family:Lato;-inkscape-font-specification:'Lato Ultra-Light Italic'"
       id="path4573" />
    <path
       d="m 749.34749,36.519286 q -0.27,0.405 -0.675,0.405 -0.36,0 -0.99,-0.585 -0.585,-0.63 -1.71,-1.305 -1.125,-0.72 -2.88,-1.305 -1.755,-0.63 -4.365,-0.63 -2.475,0 -4.68,0.855 -2.205,0.855 -3.915,2.295 -1.665,1.395 -2.655,3.33 -0.99,1.89 -0.99,3.96 0,1.98 0.855,3.33 0.9,1.35 2.34,2.34 1.44,0.945 3.285,1.665 1.845,0.675 3.78,1.395 1.935,0.675 3.78,1.485 1.845,0.765 3.285,1.935 1.44,1.125 2.295,2.79 0.9,1.62 0.9,4.005 0,2.745 -1.125,5.355 -1.08,2.61 -3.105,4.68 -2.025,2.025 -4.905,3.285 -2.835,1.215 -6.345,1.215 -2.16,0 -3.915,-0.405 -1.71,-0.36 -3.15,-1.035 -1.395,-0.72 -2.565,-1.71 -1.17,-0.99 -2.25,-2.205 l 0.585,-0.765 q 0.315,-0.45 0.765,-0.45 0.315,0 0.945,0.765 0.675,0.765 1.89,1.665 1.215,0.9 3.15,1.665 1.98,0.765 4.905,0.765 2.925,0 5.31,-0.99 2.43,-0.99 4.14,-2.7 1.71,-1.71 2.655,-3.96 0.945,-2.295 0.945,-4.815 0,-2.16 -0.9,-3.6 -0.855,-1.44 -2.295,-2.43 -1.44,-1.035 -3.285,-1.755 -1.845,-0.72 -3.78,-1.395 -1.935,-0.675 -3.78,-1.395 -1.845,-0.765 -3.285,-1.845 -1.44,-1.125 -2.34,-2.7 -0.855,-1.575 -0.855,-3.87 0,-2.475 1.125,-4.725 1.125,-2.295 3.06,-4.005 1.98,-1.755 4.635,-2.79 2.655,-1.035 5.715,-1.035 3.6,0 6.165,1.08 2.61,1.08 4.77,3.375 l -0.54,0.765 z"
       style="font-style:italic;font-variant:normal;font-weight:200;font-stretch:normal;font-size:90px;font-family:Lato;-inkscape-font-specification:'Lato Ultra-Light Italic'"
       id="path4575" />
  </g>
  <g
     style="font-style:normal;font-weight:normal;font-size:40px;line-height:125%;font-family:sans-serif;letter-spacing:0px;word-spacing:0px;fill:#000000;fill-opacity:1;stroke:none;stroke-width:1px;stroke-linecap:butt;stroke-linejoin:miter;stroke-opacity:1"
     id="text4474">
    <path
       d="m 366.80139,103.51071 0.84,0 q 0.34,0 0.38,0.32 l 4.08,25.22 0.14,1.2 q 0.1,-0.32 0.2,-0.62 0.12,-0.3 0.24,-0.58 l 11.08,-25.22 q 0.14,-0.32 0.48,-0.32 l 0.22,0 q 0.32,0 0.38,0.32 l 4.88,25.22 q 0.04,0.28 0.06,0.58 0.04,0.28 0.08,0.6 l 0.42,-1.18 10.28,-25.22 q 0.04,-0.14 0.18,-0.22 0.16,-0.1 0.32,-0.1 l 0.82,0 -11.64,28.12 -0.94,0 -5.02,-26 q -0.04,-0.16 -0.06,-0.38 -0.02,-0.22 -0.04,-0.44 -0.08,0.22 -0.16,0.44 -0.06,0.22 -0.14,0.38 l -11.4,26 -0.96,0 -4.72,-28.12 z"
       style="font-style:italic;font-variant:normal;font-weight:200;font-stretch:normal;font-family:Lato;-inkscape-font-specification:'Lato Ultra-Light Italic'"
       id="path4578" />
    <path
       d="m 402.84889,131.63071 3.5,-28.92 1.02,0 -1.96,16.12 q 0.8,-1.68 1.82,-3 1.02,-1.34 2.14,-2.26 1.12,-0.94 2.32,-1.44 1.22,-0.5 2.42,-0.5 1.28,0 2.16,0.5 0.9,0.5 1.4,1.44 0.52,0.94 0.66,2.32 0.14,1.36 -0.06,3.12 l -1.48,12.62 -1.02,0 1.48,-12.62 q 0.38,-3.1 -0.42,-4.8 -0.8,-1.72 -3,-1.72 -1.16,0 -2.36,0.58 -1.18,0.58 -2.3,1.66 -1.12,1.06 -2.14,2.58 -1.02,1.52 -1.84,3.42 l -1.32,10.9 -1.02,0 z"
       style="font-style:italic;font-variant:normal;font-weight:200;font-stretch:normal;font-family:Lato;-inkscape-font-specification:'Lato Ultra-Light Italic'"
       id="path4580" />
    <path
       d="m 426.80139,111.91071 -2.42,19.72 -1,0 2.4,-19.72 1.02,0 z m 1.52,-7.12 q 0,0.54 -0.42,0.96 -0.4,0.4 -0.9,0.4 -0.52,0 -0.9,-0.4 -0.38,-0.42 -0.38,-0.96 0,-0.56 0.38,-0.96 0.4,-0.42 0.92,-0.42 0.5,0 0.9,0.42 0.4,0.4 0.4,0.96 z"
       style="font-style:italic;font-variant:normal;font-weight:200;font-stretch:normal;font-family:Lato;-inkscape-font-specification:'Lato Ultra-Light Italic'"
       id="path4582" />
    <path
       d="m 445.28639,127.99071 q -1.08,1.2 -2.04,1.96 -0.94,0.76 -1.86,1.18 -0.9,0.42 -1.8,0.58 -0.9,0.16 -1.9,0.16 -1.7,0 -2.94,-0.58 -1.22,-0.6 -2.04,-1.64 -0.8,-1.04 -1.2,-2.46 -0.38,-1.42 -0.38,-3.08 0,-1.56 0.32,-3.1 0.32,-1.54 0.92,-2.92 0.6,-1.4 1.46,-2.58 0.86,-1.2 1.92,-2.06 1.08,-0.88 2.34,-1.36 1.26,-0.5 2.68,-0.5 0.96,0 1.74,0.2 0.8,0.18 1.44,0.54 0.64,0.34 1.14,0.82 0.52,0.48 0.96,1.08 l -0.28,0.32 q -0.12,0.12 -0.3,0.12 -0.16,0 -0.44,-0.34 -0.28,-0.36 -0.82,-0.76 -0.52,-0.42 -1.36,-0.76 -0.84,-0.36 -2.12,-0.36 -1.84,0 -3.42,0.98 -1.56,0.98 -2.7,2.62 -1.14,1.62 -1.8,3.74 -0.64,2.1 -0.64,4.34 0,1.46 0.32,2.72 0.34,1.26 1.02,2.2 0.7,0.92 1.76,1.46 1.06,0.52 2.54,0.52 1.16,0 2.06,-0.24 0.92,-0.26 1.64,-0.64 0.72,-0.38 1.24,-0.82 0.54,-0.44 0.92,-0.82 0.4,-0.38 0.66,-0.62 0.28,-0.26 0.46,-0.26 0.18,0 0.3,0.12 l 0.2,0.24 0,0 z"
       style="font-style:italic;font-variant:normal;font-weight:200;font-stretch:normal;font-family:Lato;-inkscape-font-specification:'Lato Ultra-Light Italic'"
       id="path4584" />
    <path
       d="m 449.48952,131.63071 3.5,-28.92 1.02,0 -1.96,16.12 q 0.8,-1.68 1.82,-3 1.02,-1.34 2.14,-2.26 1.12,-0.94 2.32,-1.44 1.22,-0.5 2.42,-0.5 1.28,0 2.16,0.5 0.9,0.5 1.4,1.44 0.52,0.94 0.66,2.32 0.14,1.36 -0.06,3.12 l -1.48,12.62 -1.02,0 1.48,-12.62 q 0.38,-3.1 -0.42,-4.8 -0.8,-1.72 -3,-1.72 -1.16,0 -2.36,0.58 -1.18,0.58 -2.3,1.66 -1.12,1.06 -2.14,2.58 -1.02,1.52 -1.84,3.42 l -1.32,10.9 -1.02,0 z"
       style="font-style:italic;font-variant:normal;font-weight:200;font-stretch:normal;font-family:Lato;-inkscape-font-specification:'Lato Ultra-Light Italic'"
       id="path4586" />
    <path
       d="m 493.41077,131.63071 -0.44,0 q -0.24,0 -0.32,-0.14 -0.08,-0.16 -0.08,-0.32 l 0.84,-7.46 q -0.76,1.8 -1.72,3.3 -0.94,1.5 -2.04,2.58 -1.08,1.08 -2.3,1.68 -1.22,0.6 -2.5,0.6 -1.28,0 -2.2,-0.5 -0.92,-0.5 -1.52,-1.4 -0.6,-0.9 -0.9,-2.14 -0.28,-1.26 -0.28,-2.78 0,-1.7 0.44,-3.34 0.44,-1.66 1.22,-3.14 0.8,-1.5 1.9,-2.76 1.1,-1.26 2.4,-2.18 1.32,-0.92 2.8,-1.44 1.48,-0.52 3.06,-0.52 1.14,0 2.08,0.22 0.96,0.2 1.88,0.72 l -2.32,19.02 z m -8.32,-0.62 q 1.24,0 2.42,-0.66 1.2,-0.66 2.28,-1.88 1.1,-1.22 2.06,-2.94 0.96,-1.72 1.74,-3.84 l 1.06,-8.62 q -0.68,-0.32 -1.42,-0.46 -0.74,-0.14 -1.54,-0.14 -1.4,0 -2.74,0.48 -1.34,0.48 -2.54,1.34 -1.18,0.84 -2.18,2.02 -0.98,1.16 -1.72,2.54 -0.72,1.38 -1.12,2.94 -0.4,1.54 -0.4,3.14 0,1.42 0.24,2.54 0.24,1.12 0.74,1.92 0.5,0.78 1.26,1.2 0.78,0.42 1.86,0.42 z"
       style="font-style:italic;font-variant:normal;font-weight:200;font-stretch:normal;font-family:Lato;-inkscape-font-specification:'Lato Ultra-Light Italic'"
       id="path4588" />
    <path
       d="m 499.95827,131.63071 2.38,-19.8 0.4,0 q 0.22,0 0.32,0.14 0.1,0.14 0.1,0.32 l -0.74,6.72 q 0.82,-2.12 1.82,-3.66 1,-1.54 2.12,-2.44 1.12,-0.92 2.34,-1.16 1.24,-0.24 2.54,0.26 l -0.18,0.92 q -1.38,-0.52 -2.64,-0.2 -1.26,0.3 -2.38,1.36 -1.1,1.04 -2.06,2.8 -0.96,1.74 -1.74,4.08 l -1.28,10.66 -1,0 z"
       style="font-style:italic;font-variant:normal;font-weight:200;font-stretch:normal;font-family:Lato;-inkscape-font-specification:'Lato Ultra-Light Italic'"
       id="path4590" />
    <path
       d="m 526.29702,115.41071 q 0,0.8 -0.22,1.52 -0.2,0.72 -0.76,1.38 -0.56,0.64 -1.54,1.22 -0.96,0.56 -2.48,1.06 -1.52,0.48 -3.66,0.9 -2.12,0.4 -4.98,0.7 -0.08,0.52 -0.12,1.04 -0.02,0.5 -0.02,1.02 0,1.58 0.36,2.84 0.36,1.24 1.08,2.12 0.72,0.88 1.8,1.36 1.1,0.46 2.54,0.46 1.1,0 2,-0.24 0.9,-0.26 1.62,-0.64 0.72,-0.38 1.26,-0.82 0.54,-0.46 0.94,-0.84 0.42,-0.38 0.7,-0.62 0.28,-0.26 0.48,-0.26 0.16,0 0.28,0.12 l 0.2,0.24 q -0.96,1.02 -1.86,1.76 -0.9,0.74 -1.82,1.22 -0.92,0.48 -1.9,0.7 -0.96,0.22 -2.06,0.22 -1.62,0 -2.86,-0.52 -1.24,-0.54 -2.08,-1.52 -0.84,-0.98 -1.26,-2.38 -0.42,-1.42 -0.42,-3.18 0,-1.48 0.28,-2.98 0.3,-1.52 0.86,-2.92 0.58,-1.4 1.4,-2.62 0.84,-1.24 1.92,-2.14 1.1,-0.92 2.44,-1.44 1.34,-0.54 2.9,-0.54 1.42,0 2.38,0.4 0.96,0.38 1.54,0.96 0.58,0.58 0.82,1.24 0.24,0.66 0.24,1.18 z m -5.02,-2.98 q -1.78,0 -3.2,0.76 -1.42,0.76 -2.5,2.02 -1.06,1.26 -1.78,2.9 -0.7,1.62 -1.02,3.34 2.78,-0.32 4.8,-0.7 2.02,-0.4 3.42,-0.86 1.42,-0.46 2.28,-0.98 0.86,-0.52 1.34,-1.08 0.48,-0.56 0.64,-1.16 0.16,-0.6 0.16,-1.22 0,-0.46 -0.22,-0.98 -0.2,-0.54 -0.7,-0.98 -0.48,-0.46 -1.28,-0.76 -0.78,-0.3 -1.94,-0.3 z"
       style="font-style:italic;font-variant:normal;font-weight:200;font-stretch:normal;font-family:Lato;-inkscape-font-specification:'Lato Ultra-Light Italic'"
       id="path4592" />
    <path
       d="m 553.80139,131.63071 -0.44,0 q -0.24,0 -0.32,-0.14 -0.08,-0.16 -0.08,-0.32 l 0.84,-7.46 q -0.76,1.8 -1.72,3.3 -0.94,1.5 -2.04,2.58 -1.08,1.08 -2.3,1.68 -1.22,0.6 -2.5,0.6 -1.28,0 -2.2,-0.5 -0.92,-0.5 -1.52,-1.4 -0.6,-0.9 -0.9,-2.14 -0.28,-1.26 -0.28,-2.78 0,-1.7 0.44,-3.34 0.44,-1.66 1.22,-3.14 0.8,-1.5 1.9,-2.76 1.1,-1.26 2.4,-2.18 1.32,-0.92 2.8,-1.44 1.48,-0.52 3.06,-0.52 1.14,0 2.08,0.22 0.96,0.2 1.88,0.72 l -2.32,19.02 z m -8.32,-0.62 q 1.24,0 2.42,-0.66 1.2,-0.66 2.28,-1.88 1.1,-1.22 2.06,-2.94 0.96,-1.72 1.74,-3.84 l 1.06,-8.62 q -0.68,-0.32 -1.42,-0.46 -0.74,-0.14 -1.54,-0.14 -1.4,0 -2.74,0.48 -1.34,0.48 -2.54,1.34 -1.18,0.84 -2.18,2.02 -0.98,1.16 -1.72,2.54 -0.72,1.38 -1.12,2.94 -0.4,1.54 -0.4,3.14 0,1.42 0.24,2.54 0.24,1.12 0.74,1.92 0.5,0.78 1.26,1.2 0.78,0.42 1.86,0.42 z"
       style="font-style:italic;font-variant:normal;font-weight:200;font-stretch:normal;font-family:Lato;-inkscape-font-specification:'Lato Ultra-Light Italic'"
       id="path4594" />
    <path
       d="m 572.28889,113.95071 q -0.12,0.18 -0.3,0.18 -0.16,0 -0.44,-0.26 -0.26,-0.28 -0.76,-0.58 -0.5,-0.32 -1.28,-0.58 -0.78,-0.28 -1.94,-0.28 -1.1,0 -2.08,0.38 -0.98,0.38 -1.74,1.02 -0.74,0.62 -1.18,1.48 -0.44,0.84 -0.44,1.76 0,0.88 0.38,1.48 0.4,0.6 1.04,1.04 0.64,0.42 1.46,0.74 0.82,0.3 1.68,0.62 0.86,0.3 1.68,0.66 0.82,0.34 1.46,0.86 0.64,0.5 1.02,1.24 0.4,0.72 0.4,1.78 0,1.22 -0.5,2.38 -0.48,1.16 -1.38,2.08 -0.9,0.9 -2.18,1.46 -1.26,0.54 -2.82,0.54 -0.96,0 -1.74,-0.18 -0.76,-0.16 -1.4,-0.46 -0.62,-0.32 -1.14,-0.76 -0.52,-0.44 -1,-0.98 l 0.26,-0.34 q 0.14,-0.2 0.34,-0.2 0.14,0 0.42,0.34 0.3,0.34 0.84,0.74 0.54,0.4 1.4,0.74 0.88,0.34 2.18,0.34 1.3,0 2.36,-0.44 1.08,-0.44 1.84,-1.2 0.76,-0.76 1.18,-1.76 0.42,-1.02 0.42,-2.14 0,-0.96 -0.4,-1.6 -0.38,-0.64 -1.02,-1.08 -0.64,-0.46 -1.46,-0.78 -0.82,-0.32 -1.68,-0.62 -0.86,-0.3 -1.68,-0.62 -0.82,-0.34 -1.46,-0.82 -0.64,-0.5 -1.04,-1.2 -0.38,-0.7 -0.38,-1.72 0,-1.1 0.5,-2.1 0.5,-1.02 1.36,-1.78 0.88,-0.78 2.06,-1.24 1.18,-0.46 2.54,-0.46 1.6,0 2.74,0.48 1.16,0.48 2.12,1.5 l -0.24,0.34 z"
       style="font-style:italic;font-variant:normal;font-weight:200;font-stretch:normal;font-family:Lato;-inkscape-font-specification:'Lato Ultra-Light Italic'"
       id="path4596" />
    <path
       d="m 599.58264,131.63071 -0.44,0 q -0.24,0 -0.32,-0.14 -0.08,-0.16 -0.08,-0.32 l 0.84,-7.46 q -0.76,1.8 -1.72,3.3 -0.94,1.5 -2.04,2.58 -1.08,1.08 -2.3,1.68 -1.22,0.6 -2.5,0.6 -1.28,0 -2.2,-0.5 -0.92,-0.5 -1.52,-1.4 -0.6,-0.9 -0.9,-2.14 -0.28,-1.26 -0.28,-2.78 0,-1.7 0.44,-3.34 0.44,-1.66 1.22,-3.14 0.8,-1.5 1.9,-2.76 1.1,-1.26 2.4,-2.18 1.32,-0.92 2.8,-1.44 1.48,-0.52 3.06,-0.52 1.14,0 2.08,0.22 0.96,0.2 1.88,0.72 l -2.32,19.02 z m -8.32,-0.62 q 1.24,0 2.42,-0.66 1.2,-0.66 2.28,-1.88 1.1,-1.22 2.06,-2.94 0.96,-1.72 1.74,-3.84 l 1.06,-8.62 q -0.68,-0.32 -1.42,-0.46 -0.74,-0.14 -1.54,-0.14 -1.4,0 -2.74,0.48 -1.34,0.48 -2.54,1.34 -1.18,0.84 -2.18,2.02 -0.98,1.16 -1.72,2.54 -0.72,1.38 -1.12,2.94 -0.4,1.54 -0.4,3.14 0,1.42 0.24,2.54 0.24,1.12 0.74,1.92 0.5,0.78 1.26,1.2 0.78,0.42 1.86,0.42 z"
       style="font-style:italic;font-variant:normal;font-weight:200;font-stretch:normal;font-family:Lato;-inkscape-font-specification:'Lato Ultra-Light Italic'"
       id="path4598" />
    <path
       d="m 606.35014,111.91071 0.66,0 q 0.34,0 0.44,0.36 l 3.08,17.06 q 0.04,0.3 0.06,0.58 0.02,0.28 0.04,0.56 0.1,-0.28 0.22,-0.56 0.12,-0.28 0.26,-0.58 l 7.5,-17.24 q 0.1,-0.28 0.38,-0.28 l 0.34,0 q 0.26,0 0.3,0.28 l 3.28,17.24 q 0.04,0.3 0.08,0.6 0.04,0.28 0.06,0.58 0.1,-0.28 0.22,-0.56 0.12,-0.28 0.24,-0.62 l 7.26,-17.06 q 0.06,-0.16 0.18,-0.26 0.14,-0.1 0.3,-0.1 l 0.66,0 -8.54,19.72 -0.66,0 q -0.24,0 -0.28,-0.28 l -3.36,-17.42 q -0.04,-0.18 -0.06,-0.36 -0.02,-0.18 -0.04,-0.36 -0.04,0.18 -0.12,0.36 -0.06,0.18 -0.14,0.36 l -7.68,17.42 q -0.1,0.28 -0.32,0.28 l -0.64,0 -3.72,-19.72 z"
       style="font-style:italic;font-variant:normal;font-weight:200;font-stretch:normal;font-family:Lato;-inkscape-font-specification:'Lato Ultra-Light Italic'"
       id="path4600" />
    <path
       d="m 648.32827,115.41071 q 0,0.8 -0.22,1.52 -0.2,0.72 -0.76,1.38 -0.56,0.64 -1.54,1.22 -0.96,0.56 -2.48,1.06 -1.52,0.48 -3.66,0.9 -2.12,0.4 -4.98,0.7 -0.08,0.52 -0.12,1.04 -0.02,0.5 -0.02,1.02 0,1.58 0.36,2.84 0.36,1.24 1.08,2.12 0.72,0.88 1.8,1.36 1.1,0.46 2.54,0.46 1.1,0 2,-0.24 0.9,-0.26 1.62,-0.64 0.72,-0.38 1.26,-0.82 0.54,-0.46 0.94,-0.84 0.42,-0.38 0.7,-0.62 0.28,-0.26 0.48,-0.26 0.16,0 0.28,0.12 l 0.2,0.24 q -0.96,1.02 -1.86,1.76 -0.9,0.74 -1.82,1.22 -0.92,0.48 -1.9,0.7 -0.96,0.22 -2.06,0.22 -1.62,0 -2.86,-0.52 -1.24,-0.54 -2.08,-1.52 -0.84,-0.98 -1.26,-2.38 -0.42,-1.42 -0.42,-3.18 0,-1.48 0.28,-2.98 0.3,-1.52 0.86,-2.92 0.58,-1.4 1.4,-2.62 0.84,-1.24 1.92,-2.14 1.1,-0.92 2.44,-1.44 1.34,-0.54 2.9,-0.54 1.42,0 2.38,0.4 0.96,0.38 1.54,0.96 0.58,0.58 0.82,1.24 0.24,0.66 0.24,1.18 z m -5.02,-2.98 q -1.78,0 -3.2,0.76 -1.42,0.76 -2.5,2.02 -1.06,1.26 -1.78,2.9 -0.7,1.62 -1.02,3.34 2.78,-0.32 4.8,-0.7 2.02,-0.4 3.42,-0.86 1.42,-0.46 2.28,-0.98 0.86,-0.52 1.34,-1.08 0.48,-0.56 0.64,-1.16 0.16,-0.6 0.16,-1.22 0,-0.46 -0.22,-0.98 -0.2,-0.54 -0.7,-0.98 -0.48,-0.46 -1.28,-0.76 -0.78,-0.3 -1.94,-0.3 z"
       style="font-style:italic;font-variant:normal;font-weight:200;font-stretch:normal;font-family:Lato;-inkscape-font-specification:'Lato Ultra-Light Italic'"
       id="path4602" />
    <path
       d="m 664.16389,113.95071 q -0.12,0.18 -0.3,0.18 -0.16,0 -0.44,-0.26 -0.26,-0.28 -0.76,-0.58 -0.5,-0.32 -1.28,-0.58 -0.78,-0.28 -1.94,-0.28 -1.1,0 -2.08,0.38 -0.98,0.38 -1.74,1.02 -0.74,0.62 -1.18,1.48 -0.44,0.84 -0.44,1.76 0,0.88 0.38,1.48 0.4,0.6 1.04,1.04 0.64,0.42 1.46,0.74 0.82,0.3 1.68,0.62 0.86,0.3 1.68,0.66 0.82,0.34 1.46,0.86 0.64,0.5 1.02,1.24 0.4,0.72 0.4,1.78 0,1.22 -0.5,2.38 -0.48,1.16 -1.38,2.08 -0.9,0.9 -2.18,1.46 -1.26,0.54 -2.82,0.54 -0.96,0 -1.74,-0.18 -0.76,-0.16 -1.4,-0.46 -0.62,-0.32 -1.14,-0.76 -0.52,-0.44 -1,-0.98 l 0.26,-0.34 q 0.14,-0.2 0.34,-0.2 0.14,0 0.42,0.34 0.3,0.34 0.84,0.74 0.54,0.4 1.4,0.74 0.88,0.34 2.18,0.34 1.3,0 2.36,-0.44 1.08,-0.44 1.84,-1.2 0.76,-0.76 1.18,-1.76 0.42,-1.02 0.42,-2.14 0,-0.96 -0.4,-1.6 -0.38,-0.64 -1.02,-1.08 -0.64,-0.46 -1.46,-0.78 -0.82,-0.32 -1.68,-0.62 -0.86,-0.3 -1.68,-0.62 -0.82,-0.34 -1.46,-0.82 -0.64,-0.5 -1.04,-1.2 -0.38,-0.7 -0.38,-1.72 0,-1.1 0.5,-2.1 0.5,-1.02 1.36,-1.78 0.88,-0.78 2.06,-1.24 1.18,-0.46 2.54,-0.46 1.6,0 2.74,0.48 1.16,0.48 2.12,1.5 l -0.24,0.34 z"
       style="font-style:italic;font-variant:normal;font-weight:200;font-stretch:normal;font-family:Lato;-inkscape-font-specification:'Lato Ultra-Light Italic'"
       id="path4604" />
    <path
       d="m 674.70889,131.03071 q 1.88,0 3.42,-0.96 1.56,-0.98 2.66,-2.58 1.1,-1.6 1.7,-3.64 0.62,-2.06 0.62,-4.22 0,-1.68 -0.42,-3 -0.4,-1.34 -1.18,-2.26 -0.76,-0.92 -1.86,-1.4 -1.1,-0.5 -2.46,-0.5 -1.26,0 -2.38,0.44 -1.1,0.44 -2.04,1.22 -0.92,0.76 -1.66,1.84 -0.74,1.06 -1.26,2.32 -0.52,1.26 -0.8,2.68 -0.26,1.4 -0.26,2.86 0,1.68 0.4,3.02 0.42,1.34 1.18,2.28 0.76,0.92 1.86,1.42 1.1,0.48 2.48,0.48 z m -0.1,0.84 q -1.58,0 -2.86,-0.56 -1.26,-0.56 -2.16,-1.6 -0.88,-1.04 -1.36,-2.52 -0.48,-1.5 -0.48,-3.36 0,-1.56 0.3,-3.08 0.32,-1.52 0.9,-2.86 0.58,-1.36 1.42,-2.5 0.84,-1.16 1.9,-1.98 1.06,-0.84 2.32,-1.3 1.26,-0.48 2.7,-0.48 1.58,0 2.84,0.56 1.28,0.56 2.16,1.6 0.9,1.04 1.38,2.52 0.48,1.48 0.48,3.32 0,1.56 -0.32,3.08 -0.3,1.5 -0.88,2.86 -0.58,1.36 -1.42,2.52 -0.84,1.16 -1.9,2 -1.06,0.84 -2.34,1.32 -1.26,0.46 -2.68,0.46 z"
       style="font-style:italic;font-variant:normal;font-weight:200;font-stretch:normal;font-family:Lato;-inkscape-font-specification:'Lato Ultra-Light Italic'"
       id="path4606" />
    <path
       d="m 688.23952,131.63071 2.38,-19.8 0.4,0 q 0.22,0 0.32,0.14 0.1,0.14 0.1,0.32 l -0.74,6.78 q 0.78,-1.74 1.72,-3.12 0.96,-1.38 2.02,-2.34 1.08,-0.96 2.24,-1.46 1.18,-0.52 2.4,-0.52 1.22,0 1.98,0.46 0.76,0.46 1.12,1.36 0.38,0.88 0.42,2.16 0.06,1.28 -0.12,2.92 0.76,-1.74 1.74,-3.04 0.98,-1.3 2.06,-2.16 1.1,-0.86 2.24,-1.28 1.14,-0.42 2.22,-0.42 1.28,0 2.08,0.5 0.82,0.5 1.22,1.44 0.42,0.94 0.48,2.32 0.06,1.36 -0.16,3.12 l -1.48,12.62 -1,0 1.48,-12.62 q 0.18,-1.56 0.16,-2.76 -0.02,-1.22 -0.34,-2.04 -0.3,-0.84 -0.96,-1.28 -0.66,-0.44 -1.76,-0.44 -1.04,0 -2.14,0.46 -1.1,0.46 -2.16,1.4 -1.04,0.94 -2.02,2.38 -0.96,1.44 -1.74,3.4 l -1.36,11.5 -1,0 1.48,-12.62 q 0.18,-1.56 0.2,-2.76 0.02,-1.22 -0.26,-2.04 -0.28,-0.84 -0.92,-1.28 -0.62,-0.44 -1.72,-0.44 -2.48,0 -4.56,2.18 -2.08,2.16 -3.74,6.22 l -1.28,10.74 -1,0 z"
       style="font-style:italic;font-variant:normal;font-weight:200;font-stretch:normal;font-family:Lato;-inkscape-font-specification:'Lato Ultra-Light Italic'"
       id="path4608" />
    <path
       d="m 733.95327,115.41071 q 0,0.8 -0.22,1.52 -0.2,0.72 -0.76,1.38 -0.56,0.64 -1.54,1.22 -0.96,0.56 -2.48,1.06 -1.52,0.48 -3.66,0.9 -2.12,0.4 -4.98,0.7 -0.08,0.52 -0.12,1.04 -0.02,0.5 -0.02,1.02 0,1.58 0.36,2.84 0.36,1.24 1.08,2.12 0.72,0.88 1.8,1.36 1.1,0.46 2.54,0.46 1.1,0 2,-0.24 0.9,-0.26 1.62,-0.64 0.72,-0.38 1.26,-0.82 0.54,-0.46 0.94,-0.84 0.42,-0.38 0.7,-0.62 0.28,-0.26 0.48,-0.26 0.16,0 0.28,0.12 l 0.2,0.24 q -0.96,1.02 -1.86,1.76 -0.9,0.74 -1.82,1.22 -0.92,0.48 -1.9,0.7 -0.96,0.22 -2.06,0.22 -1.62,0 -2.86,-0.52 -1.24,-0.54 -2.08,-1.52 -0.84,-0.98 -1.26,-2.38 -0.42,-1.42 -0.42,-3.18 0,-1.48 0.28,-2.98 0.3,-1.52 0.86,-2.92 0.58,-1.4 1.4,-2.62 0.84,-1.24 1.92,-2.14 1.1,-0.92 2.44,-1.44 1.34,-0.54 2.9,-0.54 1.42,0 2.38,0.4 0.96,0.38 1.54,0.96 0.58,0.58 0.82,1.24 0.24,0.66 0.24,1.18 z m -5.02,-2.98 q -1.78,0 -3.2,0.76 -1.42,0.76 -2.5,2.02 -1.06,1.26 -1.78,2.9 -0.7,1.62 -1.02,3.34 2.78,-0.32 4.8,-0.7 2.02,-0.4 3.42,-0.86 1.42,-0.46 2.28,-0.98 0.86,-0.52 1.34,-1.08 0.48,-0.56 0.64,-1.16 0.16,-0.6 0.16,-1.22 0,-0.46 -0.22,-0.98 -0.2,-0.54 -0.7,-0.98 -0.48,-0.46 -1.28,-0.76 -0.78,-0.3 -1.94,-0.3 z"
       style="font-style:italic;font-variant:normal;font-weight:200;font-stretch:normal;font-family:Lato;-inkscape-font-specification:'Lato Ultra-Light Italic'"
       id="path4610" />
    <path
       d="m 378.80139,181.63071 -0.44,0 q -0.24,0 -0.32,-0.14 -0.08,-0.16 -0.08,-0.32 l 0.84,-7.46 q -0.76,1.8 -1.72,3.3 -0.94,1.5 -2.04,2.58 -1.08,1.08 -2.3,1.68 -1.22,0.6 -2.5,0.6 -1.28,0 -2.2,-0.5 -0.92,-0.5 -1.52,-1.4 -0.6,-0.9 -0.9,-2.14 -0.28,-1.26 -0.28,-2.78 0,-1.7 0.44,-3.34 0.44,-1.66 1.22,-3.14 0.8,-1.5 1.9,-2.76 1.1,-1.26 2.4,-2.18 1.32,-0.92 2.8,-1.44 1.48,-0.52 3.06,-0.52 1.14,0 2.08,0.22 0.96,0.2 1.88,0.72 l -2.32,19.02 z m -8.32,-0.62 q 1.24,0 2.42,-0.66 1.2,-0.66 2.28,-1.88 1.1,-1.22 2.06,-2.94 0.96,-1.72 1.74,-3.84 l 1.06,-8.62 q -0.68,-0.32 -1.42,-0.46 -0.74,-0.14 -1.54,-0.14 -1.4,0 -2.74,0.48 -1.34,0.48 -2.54,1.34 -1.18,0.84 -2.18,2.02 -0.98,1.16 -1.72,2.54 -0.72,1.38 -1.12,2.94 -0.4,1.54 -0.4,3.14 0,1.42 0.24,2.54 0.24,1.12 0.74,1.92 0.5,0.78 1.26,1.2 0.78,0.42 1.86,0.42 z"
       style="font-style:italic;font-variant:normal;font-weight:200;font-stretch:normal;font-family:Lato;-inkscape-font-specification:'Lato Ultra-Light Italic'"
       id="path4612" />
    <path
       d="m 397.28889,163.95071 q -0.12,0.18 -0.3,0.18 -0.16,0 -0.44,-0.26 -0.26,-0.28 -0.76,-0.58 -0.5,-0.32 -1.28,-0.58 -0.78,-0.28 -1.94,-0.28 -1.1,0 -2.08,0.38 -0.98,0.38 -1.74,1.02 -0.74,0.62 -1.18,1.48 -0.44,0.84 -0.44,1.76 0,0.88 0.38,1.48 0.4,0.6 1.04,1.04 0.64,0.42 1.46,0.74 0.82,0.3 1.68,0.62 0.86,0.3 1.68,0.66 0.82,0.34 1.46,0.86 0.64,0.5 1.02,1.24 0.4,0.72 0.4,1.78 0,1.22 -0.5,2.38 -0.48,1.16 -1.38,2.08 -0.9,0.9 -2.18,1.46 -1.26,0.54 -2.82,0.54 -0.96,0 -1.74,-0.18 -0.76,-0.16 -1.4,-0.46 -0.62,-0.32 -1.14,-0.76 -0.52,-0.44 -1,-0.98 l 0.26,-0.34 q 0.14,-0.2 0.34,-0.2 0.14,0 0.42,0.34 0.3,0.34 0.84,0.74 0.54,0.4 1.4,0.74 0.88,0.34 2.18,0.34 1.3,0 2.36,-0.44 1.08,-0.44 1.84,-1.2 0.76,-0.76 1.18,-1.76 0.42,-1.02 0.42,-2.14 0,-0.96 -0.4,-1.6 -0.38,-0.64 -1.02,-1.08 -0.64,-0.46 -1.46,-0.78 -0.82,-0.32 -1.68,-0.62 -0.86,-0.3 -1.68,-0.62 -0.82,-0.34 -1.46,-0.82 -0.64,-0.5 -1.04,-1.2 -0.38,-0.7 -0.38,-1.72 0,-1.1 0.5,-2.1 0.5,-1.02 1.36,-1.78 0.88,-0.78 2.06,-1.24 1.18,-0.46 2.54,-0.46 1.6,0 2.74,0.48 1.16,0.48 2.12,1.5 l -0.24,0.34 z"
       style="font-style:italic;font-variant:normal;font-weight:200;font-stretch:normal;font-family:Lato;-inkscape-font-specification:'Lato Ultra-Light Italic'"
       id="path4614" />
    <path
       d="m 411.44264,181.63071 2.38,-19.8 0.4,0 q 0.22,0 0.32,0.14 0.1,0.14 0.1,0.32 l -0.74,6.78 q 0.78,-1.74 1.72,-3.12 0.96,-1.38 2.02,-2.34 1.08,-0.96 2.24,-1.46 1.18,-0.52 2.4,-0.52 1.22,0 1.98,0.46 0.76,0.46 1.12,1.36 0.38,0.88 0.42,2.16 0.06,1.28 -0.12,2.92 0.76,-1.74 1.74,-3.04 0.98,-1.3 2.06,-2.16 1.1,-0.86 2.24,-1.28 1.14,-0.42 2.22,-0.42 1.28,0 2.08,0.5 0.82,0.5 1.22,1.44 0.42,0.94 0.48,2.32 0.06,1.36 -0.16,3.12 l -1.48,12.62 -1,0 1.48,-12.62 q 0.18,-1.56 0.16,-2.76 -0.02,-1.22 -0.34,-2.04 -0.3,-0.84 -0.96,-1.28 -0.66,-0.44 -1.76,-0.44 -1.04,0 -2.14,0.46 -1.1,0.46 -2.16,1.4 -1.04,0.94 -2.02,2.38 -0.96,1.44 -1.74,3.4 l -1.36,11.5 -1,0 1.48,-12.62 q 0.18,-1.56 0.2,-2.76 0.02,-1.22 -0.26,-2.04 -0.28,-0.84 -0.92,-1.28 -0.62,-0.44 -1.72,-0.44 -2.48,0 -4.56,2.18 -2.08,2.16 -3.74,6.22 l -1.28,10.74 -1,0 z"
       style="font-style:italic;font-variant:normal;font-weight:200;font-stretch:normal;font-family:Lato;-inkscape-font-specification:'Lato Ultra-Light Italic'"
       id="path4616" />
    <path
       d="m 444.76577,188.35071 q -0.22,0.42 -0.58,0.42 l -0.68,0 4.08,-7.62 -5.38,-19.24 0.74,0 q 0.36,0 0.42,0.36 l 4.68,16.88 q 0.04,0.24 0.08,0.48 0.04,0.22 0.06,0.46 0.1,-0.24 0.2,-0.46 0.12,-0.24 0.24,-0.48 l 8.84,-16.94 q 0.16,-0.3 0.46,-0.3 l 0.74,0 -13.9,26.44 z"
       style="font-style:italic;font-variant:normal;font-weight:200;font-stretch:normal;font-family:Lato;-inkscape-font-specification:'Lato Ultra-Light Italic'"
       id="path4618" />
    <path
       d="m 470.03639,181.63071 3.5,-28.92 1.02,0 -1.96,16.12 q 0.8,-1.68 1.82,-3 1.02,-1.34 2.14,-2.26 1.12,-0.94 2.32,-1.44 1.22,-0.5 2.42,-0.5 1.28,0 2.16,0.5 0.9,0.5 1.4,1.44 0.52,0.94 0.66,2.32 0.14,1.36 -0.06,3.12 l -1.48,12.62 -1.02,0 1.48,-12.62 q 0.38,-3.1 -0.42,-4.8 -0.8,-1.72 -3,-1.72 -1.16,0 -2.36,0.58 -1.18,0.58 -2.3,1.66 -1.12,1.06 -2.14,2.58 -1.02,1.52 -1.84,3.42 l -1.32,10.9 -1.02,0 z"
       style="font-style:italic;font-variant:normal;font-weight:200;font-stretch:normal;font-family:Lato;-inkscape-font-specification:'Lato Ultra-Light Italic'"
       id="path4620" />
    <path
       d="m 503.48889,181.63071 -0.44,0 q -0.24,0 -0.32,-0.14 -0.08,-0.16 -0.08,-0.32 l 0.84,-7.46 q -0.76,1.8 -1.72,3.3 -0.94,1.5 -2.04,2.58 -1.08,1.08 -2.3,1.68 -1.22,0.6 -2.5,0.6 -1.28,0 -2.2,-0.5 -0.92,-0.5 -1.52,-1.4 -0.6,-0.9 -0.9,-2.14 -0.28,-1.26 -0.28,-2.78 0,-1.7 0.44,-3.34 0.44,-1.66 1.22,-3.14 0.8,-1.5 1.9,-2.76 1.1,-1.26 2.4,-2.18 1.32,-0.92 2.8,-1.44 1.48,-0.52 3.06,-0.52 1.14,0 2.08,0.22 0.96,0.2 1.88,0.72 l -2.32,19.02 z m -8.32,-0.62 q 1.24,0 2.42,-0.66 1.2,-0.66 2.28,-1.88 1.1,-1.22 2.06,-2.94 0.96,-1.72 1.74,-3.84 l 1.06,-8.62 q -0.68,-0.32 -1.42,-0.46 -0.74,-0.14 -1.54,-0.14 -1.4,0 -2.74,0.48 -1.34,0.48 -2.54,1.34 -1.18,0.84 -2.18,2.02 -0.98,1.16 -1.72,2.54 -0.72,1.38 -1.12,2.94 -0.4,1.54 -0.4,3.14 0,1.42 0.24,2.54 0.24,1.12 0.74,1.92 0.5,0.78 1.26,1.2 0.78,0.42 1.86,0.42 z"
       style="font-style:italic;font-variant:normal;font-weight:200;font-stretch:normal;font-family:Lato;-inkscape-font-specification:'Lato Ultra-Light Italic'"
       id="path4622" />
    <path
       d="m 511.37639,178.55071 q 0,-0.12 0,-0.3 0.02,-0.18 0.04,-0.52 0.04,-0.36 0.1,-0.92 0.08,-0.56 0.18,-1.42 l 1.44,-11.92 -2.84,0 q -0.3,0 -0.3,-0.3 l 0.06,-0.36 3.18,-0.14 1.2,-7.6 q 0.04,-0.12 0.12,-0.22 0.1,-0.12 0.24,-0.12 l 0.44,0 -0.98,7.94 5.98,0 -0.1,0.8 -5.98,0 -1.44,11.92 q -0.12,0.82 -0.18,1.36 -0.06,0.52 -0.1,0.88 -0.02,0.34 -0.04,0.52 0,0.18 0,0.26 0,1.42 0.66,2.06 0.68,0.62 1.72,0.62 0.72,0 1.28,-0.24 0.58,-0.24 1,-0.52 0.42,-0.28 0.68,-0.52 0.28,-0.24 0.4,-0.24 0.12,0 0.2,0.12 l 0.18,0.38 q -0.72,0.84 -1.8,1.36 -1.08,0.52 -2.18,0.52 -1.5,0 -2.32,-0.82 -0.82,-0.82 -0.84,-2.58 z"
       style="font-style:italic;font-variant:normal;font-weight:200;font-stretch:normal;font-family:Lato;-inkscape-font-specification:'Lato Ultra-Light Italic'"
       id="path4624" />
  </g>
</svg>
