<?xml version="1.0" encoding="UTF-8" standalone="no"?>
<svg
   xmlns:dc="http://purl.org/dc/elements/1.1/"
   xmlns:cc="http://creativecommons.org/ns#"
   xmlns:rdf="http://www.w3.org/1999/02/22-rdf-syntax-ns#"
   xmlns:svg="http://www.w3.org/2000/svg"
   xmlns="http://www.w3.org/2000/svg"
   xmlns:sodipodi="http://sodipodi.sourceforge.net/DTD/sodipodi-0.dtd"
   xmlns:inkscape="http://www.inkscape.org/namespaces/inkscape"
   width="900"
   height="200"
   viewBox="0 0 900 200"
   version="1.1"
   id="svg2"
   inkscape:version="0.92.3 (2405546, 2018-03-11)"
   sodipodi:docname="banner.svg"
   inkscape:export-filename="/home/huntingbears/Desarrollo/dockershelf/x.png"
   inkscape:export-xdpi="123.94278"
   inkscape:export-ydpi="123.94278">
  <metadata
     id="metadata64">
    <rdf:RDF>
      <cc:Work
         rdf:about="">
        <dc:format>image/svg+xml</dc:format>
        <dc:type
           rdf:resource="http://purl.org/dc/dcmitype/StillImage" />
        <dc:title>docker_wave_whale</dc:title>
      </cc:Work>
    </rdf:RDF>
  </metadata>
  <sodipodi:namedview
     pagecolor="#ffffff"
     bordercolor="#666666"
     borderopacity="1"
     objecttolerance="10"
     gridtolerance="10"
     guidetolerance="10"
     inkscape:pageopacity="0"
     inkscape:pageshadow="2"
     inkscape:window-width="1600"
     inkscape:window-height="835"
     id="namedview62"
     showgrid="false"
     inkscape:zoom="1.2470309"
     inkscape:cx="124.9226"
     inkscape:cy="67.740546"
     inkscape:window-x="0"
     inkscape:window-y="40"
     inkscape:window-maximized="1"
     inkscape:current-layer="svg2" />
  <title
     id="title4">docker_wave_whale</title>
  <description>Created with Sketch (http://www.bohemiancoding.com/sketch)</description>
  <defs
     id="defs6" />
  <g
     id="g5426"
     transform="translate(-18,0)">
    <g
       transform="matrix(0.93706381,0,0,0.93706381,-175.02019,-91.665603)"
       id="g5260">
      <rect
         style="fill:#ced5d6;fill-opacity:1"
         id="rect72"
         height="47.576"
         width="82.025002"
         y="124.3172"
         x="359.08472" />
      <polygon
         style="fill:#afbbbc;fill-opacity:1"
         id="polygon74"
         points="623.397,267.601 629.96,278.993 629.96,233.218 623.397,220.094 "
         transform="translate(-182.2873,-95.776786)" />
      <rect
         style="fill:#b4bcbc;fill-opacity:1"
         id="rect76"
         height="13.125"
         width="82.025002"
         y="111.19221"
         x="359.08472" />
      <polygon
         style="fill:#929e9f;fill-opacity:1"
         id="polygon78"
         points="623.397,206.969 629.96,218.453 629.96,233.218 623.397,220.298 "
         transform="translate(-182.2873,-95.776786)" />
    </g>
    <g
       transform="matrix(0.93706381,0,0,0.93706381,-175.02019,-91.665603)"
       id="g5266">
      <rect
         style="fill:#ced5d6;fill-opacity:1"
         id="rect46"
         height="23.737188"
         width="40.931873"
         y="132.91432"
         x="446.07501" />
      <polygon
         style="fill:#afbbbc;fill-opacity:1"
         id="polygon48"
         points="512.898,188.308 509.344,181.197 509.344,206.937 512.898,213.109 "
         transform="matrix(0.92083129,0,0,0.92083129,17.987022,-33.93756)" />
      <rect
         style="fill:#b4bcbc;fill-opacity:1"
         id="rect50"
         height="6.5480313"
         width="40.931873"
         y="126.36536"
         x="446.07501" />
      <polygon
         style="fill:#929e9f;fill-opacity:1"
         id="polygon52"
         points="512.898,188.308 509.344,181.308 509.344,174.085 512.898,180.308 "
         transform="matrix(0.92083129,0,0,0.92083129,17.987022,-33.93756)" />
    </g>
    <g
       transform="matrix(0.93706381,0,0,0.93706381,-175.02019,-91.665603)"
       id="g5278">
      <rect
         style="fill:#ced5d6;fill-opacity:1"
         id="rect84"
         height="83.696968"
         width="144.30511"
         y="191.90289"
         x="296.93332" />
      <polygon
         style="fill:#afbbbc;fill-opacity:1"
         id="polygon86"
         points="658.166,360.15 658.166,307.65 648.166,287.65 648.166,360.045 "
         transform="matrix(1.1544409,0,0,1.1544409,-307.03094,-140.17202)" />
      <rect
         style="fill:#b4bcbc;fill-opacity:1"
         id="rect88"
         height="23.088818"
         width="144.30511"
         y="168.81407"
         x="296.93332" />
      <polygon
         style="fill:#929e9f;fill-opacity:1"
         id="polygon90"
         points="658.166,285.15 658.166,307.65 648.166,287.963 648.166,267.65 "
         transform="matrix(1.1544409,0,0,1.1544409,-307.03094,-140.17202)" />
    </g>
    <g
       transform="matrix(0.93706381,0,0,0.93706381,-175.02019,-91.665603)"
       id="g5272">
      <polygon
         style="fill:#afbbbc;fill-opacity:1"
         id="polygon58"
         points="515.986,278.993 515.986,233.218 509.424,220.094 509.424,267.601 "
         transform="matrix(0.92083129,0,0,0.92083129,52.518145,-33.93756)" />
      <polygon
         style="fill:#929e9f;fill-opacity:1"
         id="polygon60"
         points="515.986,218.453 515.986,233.218 509.424,220.298 509.424,206.969 "
         transform="matrix(0.92083129,0,0,0.92083129,52.518145,-33.93756)" />
      <rect
         style="fill:#b4bcbc;fill-opacity:1"
         id="rect64"
         height="12.085911"
         width="75.532104"
         y="156.64597"
         x="446.07959" />
      <rect
         style="fill:#ced5d6;fill-opacity:1"
         id="rect62"
         height="43.809471"
         width="75.532104"
         y="168.73187"
         x="446.07959" />
    </g>
    <g
       transform="matrix(0.93706381,0,0,0.93706381,-175.02019,-91.665603)"
       id="g5284">
      <rect
         style="fill:#ced5d6;fill-opacity:1"
         id="rect34"
         height="49.844776"
         width="85.939278"
         y="225.7551"
         x="446.08176" />
      <polygon
         style="fill:#afbbbc;fill-opacity:1"
         id="polygon36"
         points="519.5,307.65 509.5,287.65 509.5,360.045 519.5,360.15 "
         transform="matrix(0.68751419,0,0,0.68751419,181.73255,27.99164)" />
      <rect
         style="fill:#b4bcbc;fill-opacity:1"
         id="rect38"
         height="13.750284"
         width="85.939278"
         y="212.00481"
         x="446.08176" />
      <polygon
         style="fill:#929e9f;fill-opacity:1"
         id="polygon40"
         points="519.5,307.65 509.5,287.963 509.5,267.65 519.5,285.15 "
         transform="matrix(0.68751419,0,0,0.68751419,181.73255,27.99164)" />
    </g>
    <g
       transform="matrix(0.93706381,0,0,0.93706381,-175.02019,-91.665603)"
       id="g5220">
      <path
         style="fill:#3a4e55;fill-rule:evenodd;stroke:none;stroke-width:1"
         inkscape:connector-curvature="0"
         id="path18-6-9-2"
         d="m 387.81912,221.86515 6.00591,-0.0121 c 2.77371,-0.006 5.6252,-0.50515 8.25018,-1.40066 1.28927,-0.43988 2.73676,-1.05177 4.00821,-1.82033 -1.68084,-2.18611 -2.54229,-4.948 -2.80024,-7.67222 -0.34929,-3.70567 0.38835,-8.53099 2.89113,-11.43648 l 1.24534,-1.44667 1.49051,1.19274 c 3.75178,3.00199 6.91063,7.20143 7.47571,11.99434 4.50808,-1.33558 9.80415,-1.03263 13.78476,1.25389 l 1.63289,0.93796 -0.85505,1.67766 c -3.34931,6.56912 -10.37468,8.61567 -17.24781,8.26995 -10.23244,25.6344 -32.59721,37.80632 -59.74449,37.86084 -14.02508,0.0282 -26.90333,-5.18942 -34.2557,-17.61776 l -0.12008,-0.20326 -1.07234,-2.16966 c -2.4878,-5.47225 -3.32241,-11.47096 -2.77648,-17.46739 l 0.16401,-1.79645 10.15713,-0.0204 c 10.28331,-6.9e-4 56.37048,-0.39707 61.76638,-0.12405 z"
         sodipodi:nodetypes="cscccccccscccsccccccc" />
      <path
         style="fill:#45c3e6;fill-opacity:1;fill-rule:evenodd;stroke:none;stroke-width:1"
         inkscape:connector-curvature="0"
         id="path20-7-2-0"
         d="m 414.40872,214.16167 c 0.78389,-6.19131 -3.85781,-11.0437 -6.73512,-13.34607 -3.30279,3.83419 -3.79719,13.86561 1.40524,18.07811 -2.89326,2.58058 -8.99599,4.92674 -15.24983,4.9393 l -76.12523,0.15288 c -0.59484,6.52925 0.56296,12.53791 3.19097,17.67864 l 0.86917,1.58179 c 0.55025,0.92953 1.15093,1.82664 1.80002,2.68982 l 5.1e-4,-1e-5 c 3.12959,0.1952 6.01554,0.25858 8.65532,0.19521 l 0.001,-1e-5 c 5.18716,-0.12555 9.41895,-0.74605 12.62519,-1.8644 0.47736,-0.16709 0.99847,0.0854 1.16455,0.5622 0.16557,0.47685 -0.0859,0.99847 -0.5627,1.16455 -0.42589,0.1488 -0.87048,0.28805 -1.32972,0.41976 -5.1e-4,5e-4 -7.7e-4,5.3e-4 -10e-4,5.1e-4 -2.52483,0.72615 -5.23242,1.21735 -8.72727,1.43998 0.20754,0.003 -0.21606,0.0318 -0.21707,0.0318 -0.11865,0.007 -0.26859,0.0248 -0.38775,0.0316 -1.37533,0.08 -2.85986,0.0992 -4.37775,0.1022 -1.65978,0.003 -3.29539,-0.0247 -5.12351,-0.11392 l -0.0464,0.0309 c 6.35707,7.11618 16.28344,11.37221 28.71438,11.34724 26.31058,-0.0528 48.60357,-11.76005 58.43292,-37.96424 7.01221,0.70497 13.74672,-1.09609 16.79976,-7.08494 -4.88754,-2.80783 -11.16432,-1.89691 -14.77564,-0.0728" />
      <path
         style="fill:#d5eef2;fill-rule:evenodd;stroke:none;stroke-width:1"
         inkscape:connector-curvature="0"
         id="path46-6-2-6"
         d="m 349.59462,238.765 c 1.56788,-0.003 2.84241,1.26678 2.84556,2.83466 0.003,1.56788 -1.26627,2.8419 -2.83415,2.84505 -1.56889,0.003 -2.84292,-1.26577 -2.84606,-2.83364 -0.003,-1.56788 1.26576,-2.84292 2.83465,-2.84607" />
      <path
         style="fill:#3a4e55;fill-rule:evenodd;stroke:none;stroke-width:1"
         inkscape:connector-curvature="0"
         id="path48-0-8-1"
         d="m 349.59624,239.5709 c 0.25954,-5.2e-4 0.50758,0.048 0.7365,0.13587 -0.24765,0.14391 -0.41475,0.41288 -0.41413,0.71989 8.9e-4,0.4585 0.37331,0.82889 0.8318,0.82797 0.31409,-6.3e-4 0.58641,-0.17589 0.72728,-0.4332 0.1,0.23966 0.15553,0.50313 0.15608,0.77985 0.002,1.12301 -0.90634,2.03578 -2.02936,2.03803 -1.12352,0.002 -2.03628,-0.90685 -2.03854,-2.02986 -0.002,-1.12403 0.90685,-2.03629 2.03037,-2.03855" />
      <path
         style="fill:#c0dbe1;fill-rule:evenodd;stroke:none;stroke-width:1"
         inkscape:connector-curvature="0"
         id="path52-2-9-5"
         d="m 357.18477,259.2161 c -7.04019,-3.32362 -10.90967,-7.85287 -13.06769,-12.80215 -2.61113,0.75157 -5.75048,1.23405 -9.39936,1.44639 -1.37433,0.08 -2.81993,0.12231 -4.33782,0.12535 -1.74916,0.004 -3.59284,-0.0443 -5.52803,-0.14341 6.46271,6.43328 14.40751,11.38053 29.09981,11.44141 1.08464,-0.002 2.16166,-0.0255 3.23309,-0.0676" />
      <path
         style="fill:#d5eef2;fill-rule:evenodd;stroke:none;stroke-width:1"
         inkscape:connector-curvature="0"
         id="path54-6-7-5"
         d="m 346.73888,250.97904 c -0.97569,-1.31901 -1.92329,-2.97689 -2.62029,-4.56559 -2.61112,0.75106 -5.75148,1.23455 -9.40087,1.44638 2.50982,1.35632 6.09752,2.60948 12.02116,3.11921" />
    </g>
    <g
       transform="matrix(0.93706381,0,0,0.93706381,-175.02019,-91.665603)"
       id="g5252">
      <path
         style="fill:#3a4e55;fill-rule:evenodd;stroke:none;stroke-width:1"
         inkscape:connector-curvature="0"
         id="path18-6-9-7"
         d="m 471.73466,141.22601 1.66135,-0.003 c 0.76726,-0.002 1.55604,-0.13973 2.28217,-0.38745 0.35663,-0.12168 0.75704,-0.29094 1.10875,-0.50354 -0.46496,-0.60472 -0.70325,-1.36872 -0.77461,-2.12229 -0.0966,-1.02506 0.10743,-2.35984 0.79975,-3.16356 l 0.34449,-0.40018 0.4123,0.32994 c 1.03782,0.83041 1.91162,1.99206 2.06793,3.31787 1.24703,-0.36944 2.71203,-0.28564 3.81314,0.34685 l 0.45169,0.25946 -0.23652,0.46408 c -0.92649,1.81715 -2.86985,2.38327 -4.77109,2.28763 -2.8305,7.09099 -9.01704,10.45799 -16.52652,10.47307 -3.87962,0.008 -7.44201,-1.4355 -9.47582,-4.87343 l -0.0332,-0.0562 -0.29664,-0.60017 c -0.68817,-1.51374 -0.91904,-3.1731 -0.76803,-4.83183 l 0.0454,-0.49694 2.80967,-0.006 c 2.84457,-1.9e-4 15.5932,-0.10984 17.08582,-0.0343 z"
         sodipodi:nodetypes="cscccccccscccsccccccc" />
      <path
         style="fill:#87d983;fill-opacity:1;fill-rule:evenodd;stroke:none;stroke-width:1"
         inkscape:connector-curvature="0"
         id="path20-7-2-6"
         d="m 479.08987,139.09507 c 0.21684,-1.71264 -1.06715,-3.05491 -1.86307,-3.69179 -0.91362,1.06061 -1.05038,3.83551 0.38872,5.00077 -0.80033,0.71384 -2.48847,1.36283 -4.21841,1.36631 l -21.05776,0.0423 c -0.16455,1.80612 0.15572,3.46824 0.88268,4.89026 l 0.24043,0.43756 c 0.15221,0.25712 0.31837,0.50528 0.49793,0.74405 l 1.4e-4,0 c 0.8657,0.054 1.66402,0.0715 2.39423,0.054 l 2.8e-4,0 c 1.43487,-0.0347 2.60547,-0.20637 3.49238,-0.51573 0.13205,-0.0462 0.2762,0.0236 0.32214,0.15551 0.0458,0.13191 -0.0238,0.2762 -0.15566,0.32214 -0.11781,0.0412 -0.24079,0.0797 -0.36782,0.11612 -1.5e-4,1.4e-4 -2.2e-4,1.4e-4 -2.8e-4,1.4e-4 -0.69842,0.20086 -1.44739,0.33674 -2.41414,0.39833 0.0574,7.2e-4 -0.0598,0.009 -0.06,0.009 -0.0328,0.002 -0.0743,0.007 -0.10725,0.009 -0.38045,0.0221 -0.7911,0.0274 -1.21098,0.0283 -0.45913,9.1e-4 -0.91157,-0.007 -1.41726,-0.0315 l -0.0128,0.009 c 1.75849,1.96848 4.50433,3.14578 7.94297,3.13888 7.27804,-0.0146 13.44473,-3.25307 16.16372,-10.50167 1.93972,0.195 3.80262,-0.30321 4.64715,-1.95984 -1.35199,-0.7767 -3.08827,-0.52472 -4.08724,-0.0202" />
      <path
         style="fill:#d5eef2;fill-rule:evenodd;stroke:none;stroke-width:1"
         inkscape:connector-curvature="0"
         id="path46-6-2-5"
         d="m 461.16099,145.90084 c 0.43371,-8.5e-4 0.78627,0.35042 0.78714,0.78413 8.3e-4,0.4337 -0.35027,0.78613 -0.78398,0.787 -0.43399,8.8e-4 -0.78641,-0.35014 -0.78728,-0.78385 -8.3e-4,-0.4337 0.35014,-0.7864 0.78412,-0.78728" />
      <path
         style="fill:#3a4e55;fill-rule:evenodd;stroke:none;stroke-width:1"
         inkscape:connector-curvature="0"
         id="path48-0-8-6"
         d="m 461.16144,146.12377 c 0.0718,-1.4e-4 0.14041,0.0133 0.20373,0.0376 -0.0685,0.0398 -0.11473,0.11421 -0.11455,0.19913 2.4e-4,0.12683 0.10326,0.22929 0.23009,0.22904 0.0869,-1.8e-4 0.16221,-0.0487 0.20118,-0.11983 0.0277,0.0663 0.043,0.13917 0.0432,0.21572 5.6e-4,0.31064 -0.25071,0.56313 -0.56136,0.56376 -0.31079,6.3e-4 -0.56327,-0.25086 -0.5639,-0.5615 -5.5e-4,-0.31093 0.25085,-0.56328 0.56164,-0.56391" />
      <path
         style="fill:#c0dbe1;fill-rule:evenodd;stroke:none;stroke-width:1"
         inkscape:connector-curvature="0"
         id="path52-2-9-9"
         d="m 463.26058,151.55803 c -1.94746,-0.91938 -3.01783,-2.17226 -3.61478,-3.54133 -0.7223,0.2079 -1.5907,0.34136 -2.60006,0.4001 -0.38016,0.0221 -0.78004,0.0338 -1.19992,0.0347 -0.48386,9.7e-4 -0.99386,-0.0122 -1.52917,-0.0397 1.78772,1.77958 3.98541,3.14808 8.04959,3.16493 0.30004,-6.1e-4 0.59796,-0.007 0.89434,-0.0187" />
      <path
         style="fill:#d5eef2;fill-rule:evenodd;stroke:none;stroke-width:1"
         inkscape:connector-curvature="0"
         id="path54-6-7-3"
         d="m 460.37104,149.27949 c -0.2699,-0.36486 -0.53202,-0.82346 -0.72483,-1.26293 -0.72228,0.20776 -1.59097,0.3415 -2.60047,0.4001 0.69427,0.37518 1.6867,0.72183 3.3253,0.86283" />
    </g>
    <g
       transform="matrix(0.93706381,0,0,0.93706381,-175.02019,-91.665603)"
       id="g5244">
      <path
         style="fill:#3a4e55;fill-rule:evenodd;stroke:none;stroke-width:1"
         inkscape:connector-curvature="0"
         id="path18-6-9-7-4"
         d="m 411.73451,141.01762 3.06265,-0.006 c 1.41442,-0.003 2.86851,-0.25759 4.20708,-0.71424 0.65745,-0.22432 1.39559,-0.53634 2.04395,-0.92826 -0.85713,-1.11479 -1.29642,-2.52318 -1.42795,-3.91237 -0.17812,-1.88966 0.19803,-4.35028 1.4743,-5.83191 l 0.63504,-0.73771 0.76007,0.60823 c 1.91318,1.53083 3.524,3.67228 3.81216,6.11638 2.29884,-0.68107 4.99952,-0.52658 7.02938,0.6394 l 0.83268,0.47831 -0.43602,0.8555 c -1.70795,3.34985 -5.29046,4.39347 -8.79534,4.21717 -5.21792,13.07198 -16.62258,19.27892 -30.46604,19.30672 -7.15193,0.0144 -13.71906,-2.64629 -17.46832,-8.98398 l -0.0612,-0.10365 -0.54683,-1.1064 c -1.26862,-2.79051 -1.69422,-5.84949 -1.41583,-8.9073 l 0.0836,-0.91608 5.17952,-0.0104 c 5.24386,-3.5e-4 28.7455,-0.20249 31.49708,-0.0633 z"
         sodipodi:nodetypes="cscccccccscccsccccccc" />
      <path
         style="fill:#d86e55;fill-opacity:1;fill-rule:evenodd;stroke:none;stroke-width:1"
         inkscape:connector-curvature="0"
         id="path20-7-2-6-5"
         d="m 425.29358,137.08932 c 0.39974,-3.15719 -1.96725,-5.63161 -3.4345,-6.80568 -1.68422,1.9552 -1.93633,7.07062 0.71659,9.21873 -1.47539,1.31594 -4.58741,2.51234 -7.77648,2.51874 l -38.81923,0.078 c -0.30333,3.32952 0.28708,6.39357 1.6272,9.01503 l 0.44323,0.80662 c 0.28059,0.474 0.5869,0.93147 0.9179,1.37164 l 2.6e-4,0 c 1.5959,0.0995 3.06756,0.13185 4.41368,0.0995 l 5.1e-4,-1e-5 c 2.64514,-0.064 4.80309,-0.38044 6.43808,-0.95073 0.24342,-0.0852 0.50916,0.0435 0.59385,0.28669 0.0844,0.24317 -0.0438,0.50916 -0.28694,0.59385 -0.21718,0.0759 -0.4439,0.14689 -0.67808,0.21405 -2.6e-4,2.6e-4 -3.9e-4,2.7e-4 -5.1e-4,2.6e-4 -1.28751,0.37029 -2.66821,0.62078 -4.45037,0.73431 0.10583,0.001 -0.11018,0.0162 -0.1107,0.0162 -0.0605,0.004 -0.13696,0.0126 -0.19773,0.0161 -0.70133,0.0408 -1.45835,0.0506 -2.23238,0.0521 -0.84639,0.002 -1.68045,-0.0126 -2.61268,-0.0581 l -0.0237,0.0157 c 3.24172,3.62882 8.30356,5.79914 14.64258,5.78641 13.41679,-0.0269 24.78486,-5.99691 29.79722,-19.35945 3.5758,0.35949 7.00999,-0.55894 8.56686,-3.61289 -2.49235,-1.43182 -5.69312,-0.96731 -7.53468,-0.0371" />
      <path
         style="fill:#d5eef2;fill-rule:evenodd;stroke:none;stroke-width:1"
         inkscape:connector-curvature="0"
         id="path46-6-2-5-2"
         d="m 392.24235,149.63552 c 0.79952,-0.002 1.44945,0.64598 1.45106,1.4455 0.002,0.79952 -0.64572,1.4492 -1.44524,1.4508 -0.80004,0.002 -1.44972,-0.64546 -1.45132,-1.44498 -0.002,-0.79953 0.64546,-1.44972 1.4455,-1.45132" />
      <path
         style="fill:#3a4e55;fill-rule:evenodd;stroke:none;stroke-width:1"
         inkscape:connector-curvature="0"
         id="path48-0-8-6-5"
         d="m 392.24317,150.04648 c 0.13235,-2.7e-4 0.25884,0.0245 0.37557,0.0693 -0.12628,0.0734 -0.21149,0.21055 -0.21118,0.3671 4.6e-4,0.23381 0.19037,0.42269 0.42417,0.42222 0.16017,-3.2e-4 0.29903,-0.0897 0.37087,-0.22091 0.051,0.12221 0.0793,0.25657 0.0796,0.39767 0.001,0.57267 -0.46218,1.03813 -1.03485,1.03928 -0.57293,0.001 -1.03838,-0.46244 -1.03953,-1.03511 -0.001,-0.57318 0.46244,-1.03838 1.03536,-1.03953" />
      <path
         style="fill:#c0dbe1;fill-rule:evenodd;stroke:none;stroke-width:1"
         inkscape:connector-curvature="0"
         id="path52-2-9-9-4"
         d="m 396.11286,160.06433 c -3.59007,-1.69484 -5.56327,-4.00449 -6.66372,-6.52831 -1.33152,0.38325 -2.9324,0.62928 -4.7931,0.73756 -0.70083,0.0408 -1.438,0.0624 -2.21203,0.0639 -0.89196,0.002 -1.83213,-0.0226 -2.81896,-0.0731 3.29559,3.28057 7.34695,5.80337 14.83913,5.83441 0.5531,-0.001 1.10232,-0.013 1.64868,-0.0345" />
      <path
         style="fill:#d5eef2;fill-rule:evenodd;stroke:none;stroke-width:1"
         inkscape:connector-curvature="0"
         id="path54-6-7-3-7"
         d="m 390.78609,155.86393 c -0.49754,-0.67261 -0.98076,-1.51803 -1.33618,-2.32817 -1.33152,0.38299 -2.93291,0.62954 -4.79387,0.73757 1.27985,0.69164 3.10936,1.33067 6.13005,1.5906" />
    </g>
    <g
       transform="matrix(0.93706381,0,0,0.93706381,-175.02019,-91.665603)"
       id="g5228">
      <path
         style="fill:#3a4e55;fill-rule:evenodd;stroke:none;stroke-width:1"
         inkscape:connector-curvature="0"
         id="path18-6-9-7-4-4"
         d="m 493.4364,184.11208 3.06265,-0.006 c 1.41442,-0.003 2.86851,-0.25759 4.20708,-0.71424 0.65745,-0.22432 1.39559,-0.53634 2.04395,-0.92826 -0.85713,-1.11479 -1.29642,-2.52318 -1.42795,-3.91237 -0.17812,-1.88966 0.19803,-4.35028 1.4743,-5.83191 l 0.63504,-0.73771 0.76007,0.60823 c 1.91318,1.53083 3.524,3.67228 3.81216,6.11638 2.29884,-0.68107 4.99952,-0.52658 7.02938,0.6394 l 0.83268,0.47831 -0.43602,0.8555 c -1.70795,3.34985 -5.29046,4.39347 -8.79534,4.21717 -5.21792,13.07198 -16.62258,19.27892 -30.46604,19.30672 -7.15193,0.0144 -13.71906,-2.64629 -17.46832,-8.98398 l -0.0612,-0.10365 -0.54683,-1.1064 c -1.26862,-2.79051 -1.69422,-5.84949 -1.41583,-8.9073 l 0.0836,-0.91608 5.17952,-0.0104 c 5.24386,-3.5e-4 28.7455,-0.20249 31.49708,-0.0633 z"
         sodipodi:nodetypes="cscccccccscccsccccccc" />
      <path
         style="fill:#d4c653;fill-opacity:1;fill-rule:evenodd;stroke:none;stroke-width:1"
         inkscape:connector-curvature="0"
         id="path20-7-2-6-5-3"
         d="m 506.99547,180.18378 c 0.39974,-3.15719 -1.96725,-5.63161 -3.4345,-6.80568 -1.68422,1.9552 -1.93633,7.07062 0.71659,9.21873 -1.47539,1.31594 -4.58741,2.51234 -7.77648,2.51874 l -38.81923,0.078 c -0.30333,3.32952 0.28708,6.39357 1.6272,9.01503 l 0.44323,0.80662 c 0.28059,0.474 0.5869,0.93147 0.9179,1.37164 l 2.6e-4,0 c 1.5959,0.0995 3.06756,0.13185 4.41368,0.0995 l 5.1e-4,-1e-5 c 2.64514,-0.064 4.80309,-0.38044 6.43808,-0.95073 0.24342,-0.0852 0.50916,0.0435 0.59385,0.28669 0.0844,0.24317 -0.0438,0.50916 -0.28694,0.59385 -0.21718,0.0759 -0.4439,0.14689 -0.67808,0.21405 -2.6e-4,2.6e-4 -3.9e-4,2.7e-4 -5.1e-4,2.6e-4 -1.28751,0.37029 -2.66821,0.62078 -4.45037,0.73431 0.10583,0.001 -0.11018,0.0162 -0.1107,0.0162 -0.0605,0.004 -0.13696,0.0126 -0.19773,0.0161 -0.70133,0.0408 -1.45835,0.0506 -2.23238,0.0521 -0.84639,0.002 -1.68045,-0.0126 -2.61268,-0.0581 l -0.0237,0.0157 c 3.24172,3.62882 8.30356,5.79914 14.64258,5.78641 13.41679,-0.0269 24.78486,-5.99691 29.79722,-19.35945 3.5758,0.35949 7.00999,-0.55894 8.56686,-3.61289 -2.49235,-1.43182 -5.69312,-0.96731 -7.53468,-0.0371" />
      <path
         style="fill:#d5eef2;fill-rule:evenodd;stroke:none;stroke-width:1"
         inkscape:connector-curvature="0"
         id="path46-6-2-5-2-0"
         d="m 473.94424,192.72998 c 0.79952,-0.002 1.44945,0.64598 1.45106,1.4455 0.002,0.79952 -0.64572,1.4492 -1.44524,1.4508 -0.80004,0.002 -1.44972,-0.64546 -1.45132,-1.44498 -0.002,-0.79953 0.64546,-1.44972 1.4455,-1.45132" />
      <path
         style="fill:#3a4e55;fill-rule:evenodd;stroke:none;stroke-width:1"
         inkscape:connector-curvature="0"
         id="path48-0-8-6-5-7"
         d="m 473.94506,193.14094 c 0.13235,-2.7e-4 0.25884,0.0245 0.37557,0.0693 -0.12628,0.0734 -0.21149,0.21055 -0.21118,0.3671 4.6e-4,0.23381 0.19037,0.42269 0.42417,0.42222 0.16017,-3.2e-4 0.29903,-0.0897 0.37087,-0.22091 0.051,0.12221 0.0793,0.25657 0.0796,0.39767 0.001,0.57267 -0.46218,1.03813 -1.03485,1.03928 -0.57293,0.001 -1.03838,-0.46244 -1.03953,-1.03511 -0.001,-0.57318 0.46244,-1.03838 1.03536,-1.03953" />
      <path
         style="fill:#c0dbe1;fill-rule:evenodd;stroke:none;stroke-width:1"
         inkscape:connector-curvature="0"
         id="path52-2-9-9-4-8"
         d="m 477.81475,203.15879 c -3.59007,-1.69484 -5.56327,-4.00449 -6.66372,-6.52831 -1.33152,0.38325 -2.9324,0.62928 -4.7931,0.73756 -0.70083,0.0408 -1.438,0.0624 -2.21203,0.0639 -0.89196,0.002 -1.83213,-0.0226 -2.81896,-0.0731 3.29559,3.28057 7.34695,5.80337 14.83913,5.83441 0.5531,-0.001 1.10232,-0.013 1.64868,-0.0345" />
      <path
         style="fill:#d5eef2;fill-rule:evenodd;stroke:none;stroke-width:1"
         inkscape:connector-curvature="0"
         id="path54-6-7-3-7-6"
         d="m 472.48798,198.95839 c -0.49754,-0.67261 -0.98076,-1.51803 -1.33618,-2.32817 -1.33152,0.38299 -2.93291,0.62954 -4.79387,0.73757 1.27985,0.69164 3.10936,1.33067 6.13005,1.5906" />
    </g>
    <g
       transform="matrix(0.93706381,0,0,0.93706381,-175.02019,-91.665603)"
       id="g5236">
      <path
         style="fill:#3a4e55;fill-rule:evenodd;stroke:none;stroke-width:1"
         inkscape:connector-curvature="0"
         id="path18-6-9-7-4-8"
         d="m 500.12195,245.85524 3.54771,-0.007 c 1.63844,-0.003 3.32282,-0.29839 4.87341,-0.82737 0.76157,-0.25984 1.61661,-0.62128 2.36766,-1.07528 -0.99288,-1.29134 -1.50174,-2.9228 -1.65411,-4.532 -0.20633,-2.18895 0.2294,-5.03928 1.7078,-6.75557 l 0.73563,-0.85455 0.88044,0.70456 c 2.21619,1.77328 4.08214,4.2539 4.41593,7.08509 2.66294,-0.78893 5.79134,-0.60998 8.1427,0.74068 l 0.96456,0.55405 -0.50509,0.991 c -1.97844,3.88041 -6.12835,5.08931 -10.18833,4.88509 -6.04434,15.14232 -19.25528,22.33232 -35.29126,22.36452 -8.28466,0.0166 -15.89189,-3.06541 -20.23496,-10.40687 l -0.0709,-0.12006 -0.63343,-1.28163 c -1.46955,-3.23248 -1.96256,-6.77593 -1.64008,-10.31804 l 0.0969,-1.06117 5.99985,-0.0121 c 6.07439,-4.1e-4 33.29823,-0.23455 36.4856,-0.0733 z"
         sodipodi:nodetypes="cscccccccscccsccccccc" />
      <path
         style="fill:#b46ecb;fill-opacity:1;fill-rule:evenodd;stroke:none;stroke-width:1"
         inkscape:connector-curvature="0"
         id="path20-7-2-6-5-4"
         d="m 515.82851,241.30478 c 0.46305,-3.65723 -2.27882,-6.52355 -3.97846,-7.88357 -1.95096,2.26487 -2.24301,8.19046 0.83008,10.6788 -1.70905,1.52436 -5.31396,2.91024 -9.00812,2.91766 l -44.96742,0.0903 c -0.35137,3.85686 0.33255,7.40619 1.88492,10.44283 l 0.51342,0.93437 c 0.32504,0.54908 0.67986,1.079 1.06328,1.58889 l 3e-4,0 c 1.84866,0.1153 3.5534,0.15274 5.11272,0.1153 l 6e-4,0 c 3.06407,-0.0742 5.5638,-0.4407 7.45774,-1.10131 0.28197,-0.0987 0.5898,0.0504 0.6879,0.33209 0.0978,0.28168 -0.0507,0.5898 -0.33239,0.6879 -0.25157,0.0879 -0.51419,0.17016 -0.78547,0.24796 -3e-4,3e-4 -4.5e-4,3.1e-4 -5.9e-4,3e-4 -1.49143,0.42894 -3.09081,0.7191 -5.15523,0.85061 0.1226,0.002 -0.12762,0.0187 -0.12822,0.0188 -0.0701,0.004 -0.15866,0.0146 -0.22905,0.0186 -0.81241,0.0473 -1.68932,0.0586 -2.58595,0.0604 -0.98043,0.002 -1.94659,-0.0146 -3.02647,-0.0673 l -0.0274,0.0183 c 3.75514,4.20356 9.61868,6.71761 16.96168,6.70286 15.54174,-0.0312 28.71028,-6.9467 34.51651,-22.4256 4.14214,0.41643 8.12023,-0.64747 9.92367,-4.1851 -2.88708,-1.65859 -6.5948,-1.12051 -8.72802,-0.043" />
      <path
         style="fill:#d5eef2;fill-rule:evenodd;stroke:none;stroke-width:1"
         inkscape:connector-curvature="0"
         id="path46-6-2-5-2-3"
         d="m 477.54261,255.83804 c 0.92616,-0.002 1.67903,0.74829 1.68089,1.67444 0.002,0.92616 -0.74799,1.67873 -1.67415,1.68059 -0.92674,0.002 -1.67932,-0.7477 -1.68117,-1.67385 -0.002,-0.92615 0.74769,-1.67932 1.67443,-1.68118" />
      <path
         style="fill:#3a4e55;fill-rule:evenodd;stroke:none;stroke-width:1"
         inkscape:connector-curvature="0"
         id="path48-0-8-6-5-1"
         d="m 477.54357,256.31409 c 0.15331,-3.1e-4 0.29983,0.0283 0.43505,0.0803 -0.14628,0.085 -0.24499,0.24389 -0.24462,0.42524 5.2e-4,0.27084 0.22051,0.48963 0.49134,0.48909 0.18554,-3.8e-4 0.3464,-0.1039 0.42961,-0.25589 0.0591,0.14156 0.0919,0.2972 0.0922,0.46065 0.001,0.66337 -0.53538,1.20254 -1.19875,1.20387 -0.66367,10e-4 -1.20284,-0.53567 -1.20417,-1.19904 -10e-4,-0.66397 0.53567,-1.20284 1.19934,-1.20418" />
      <path
         style="fill:#c0dbe1;fill-rule:evenodd;stroke:none;stroke-width:1"
         inkscape:connector-curvature="0"
         id="path52-2-9-9-4-4"
         d="m 482.02614,267.91857 c -4.15866,-1.96327 -6.44438,-4.63871 -7.71913,-7.56227 -1.5424,0.44396 -3.39682,0.72896 -5.55223,0.85439 -0.81182,0.0473 -1.66574,0.0722 -2.56236,0.074 -1.03324,0.002 -2.1223,-0.0262 -3.26543,-0.0847 3.81755,3.80016 8.51056,6.72252 17.18935,6.75848 0.6407,-10e-4 1.2769,-0.0151 1.9098,-0.0399" />
      <path
         style="fill:#d5eef2;fill-rule:evenodd;stroke:none;stroke-width:1"
         inkscape:connector-curvature="0"
         id="path54-6-7-3-7-9"
         d="m 475.85572,263.05291 c -0.57634,-0.77914 -1.13609,-1.75845 -1.54781,-2.69691 -1.5424,0.44366 -3.39742,0.72926 -5.55313,0.85439 1.48256,0.80118 3.60183,1.54143 7.10094,1.84252" />
    </g>
    <rect
       x="61.596672"
       y="165.81326"
       width="301.08588"
       height="15.567442"
       id="rect26"
       style="fill:#dec5ae" />
  </g>
  <g
     style="font-style:normal;font-weight:normal;font-size:40px;line-height:125%;font-family:sans-serif;letter-spacing:0px;word-spacing:0px;fill:#000000;fill-opacity:1;stroke:none;stroke-width:1px;stroke-linecap:butt;stroke-linejoin:miter;stroke-opacity:1"
     id="text5353">
    <path
       d="m 451.15635,65.740409 q 0,8.505 -2.385,15.3 -2.385,6.75 -6.615,11.52 -4.23,4.725 -10.035,7.245 -5.805,2.520001 -12.6,2.520001 l -20.97,0 7.785,-63.270001 20.97,0 q 5.49,0 9.9,1.845 4.41,1.845 7.515,5.31 3.105,3.465 4.77,8.415 1.665,4.95 1.665,11.115 z m -2.565,0.045 q 0,-5.805 -1.53,-10.395 -1.485,-4.59 -4.32,-7.785 -2.79,-3.195 -6.795,-4.86 -3.96,-1.71 -8.865,-1.71 l -18.54,0 -7.335,59.310001 18.54,0 q 6.21,0 11.475,-2.340001 5.31,-2.34 9.135,-6.75 3.87,-4.455 6.03,-10.845 2.205,-6.435 2.205,-14.625 z"
       style="font-style:italic;font-variant:normal;font-weight:200;font-stretch:normal;font-size:90px;font-family:Lato;-inkscape-font-specification:'Lato Ultra-Light Italic'"
       id="path5490" />
    <path
       d="m 474.93604,100.97541 q 4.23,0 7.695,-2.160001 3.51,-2.205 5.985,-5.805 2.475,-3.6 3.825,-8.19 1.395,-4.635 1.395,-9.495 0,-3.78 -0.945,-6.75 -0.9,-3.015 -2.655,-5.085 -1.71,-2.07 -4.185,-3.15 -2.475,-1.125 -5.535,-1.125 -2.835,0 -5.355,0.99 -2.475,0.99 -4.59,2.745 -2.07,1.71 -3.735,4.14 -1.665,2.385 -2.835,5.22 -1.17,2.835 -1.8,6.03 -0.585,3.15 -0.585,6.435 0,3.78 0.9,6.795 0.945,3.015 2.655,5.13 1.71,2.07 4.185,3.195 2.475,1.080001 5.58,1.080001 z m -0.225,1.89 q -3.555,0 -6.435,-1.26 -2.835,-1.26 -4.86,-3.600001 -1.98,-2.34 -3.06,-5.67 -1.08,-3.375 -1.08,-7.56 0,-3.51 0.675,-6.93 0.72,-3.42 2.025,-6.435 1.305,-3.06 3.195,-5.625 1.89,-2.61 4.275,-4.455 2.385,-1.89 5.22,-2.925 2.835,-1.08 6.075,-1.08 3.555,0 6.39,1.26 2.88,1.26 4.86,3.6 2.025,2.34 3.105,5.67 1.08,3.33 1.08,7.47 0,3.51 -0.72,6.93 -0.675,3.375 -1.98,6.435 -1.305,3.06 -3.195,5.67 -1.89,2.61 -4.275,4.5 -2.385,1.890001 -5.265,2.970001 -2.835,1.035 -6.03,1.035 z"
       style="font-style:italic;font-variant:normal;font-weight:200;font-stretch:normal;font-size:90px;font-family:Lato;-inkscape-font-specification:'Lato Ultra-Light Italic'"
       id="path5492" />
    <path
       d="m 536.87995,94.135409 q -2.43,2.7 -4.59,4.41 -2.115,1.710001 -4.185,2.655001 -2.025,0.945 -4.05,1.305 -2.025,0.36 -4.275,0.36 -3.825,0 -6.615,-1.305 -2.745,-1.35 -4.59,-3.690001 -1.8,-2.34 -2.7,-5.535 -0.855,-3.195 -0.855,-6.93 0,-3.51 0.72,-6.975 0.72,-3.465 2.07,-6.57 1.35,-3.15 3.285,-5.805 1.935,-2.7 4.32,-4.635 2.43,-1.98 5.265,-3.06 2.835,-1.125 6.03,-1.125 2.16,0 3.915,0.45 1.8,0.405 3.24,1.215 1.44,0.765 2.565,1.845 1.17,1.08 2.16,2.43 l -0.63,0.72 q -0.27,0.27 -0.675,0.27 -0.36,0 -0.99,-0.765 -0.63,-0.81 -1.845,-1.71 -1.17,-0.945 -3.06,-1.71 -1.89,-0.81 -4.77,-0.81 -4.14,0 -7.695,2.205 -3.51,2.205 -6.075,5.895 -2.565,3.645 -4.05,8.415 -1.44,4.725 -1.44,9.765 0,3.285 0.72,6.12 0.765,2.835 2.295,4.95 1.575,2.07 3.96,3.285 2.385,1.170001 5.715,1.170001 2.61,0 4.635,-0.54 2.07,-0.585001 3.69,-1.440001 1.62,-0.855 2.79,-1.845 1.215,-0.99 2.07,-1.845 0.9,-0.855 1.485,-1.395 0.63,-0.585 1.035,-0.585 0.405,0 0.675,0.27 l 0.45,0.54 0,0 z"
       style="font-style:italic;font-variant:normal;font-weight:200;font-stretch:normal;font-size:90px;font-family:Lato;-inkscape-font-specification:'Lato Ultra-Light Italic'"
       id="path5494" />
    <path
       d="m 556.50698,37.255409 -4.95,40.365 1.845,0 q 0.72,0 1.17,-0.135 0.45,-0.18 1.08,-0.765 l 20.34,-17.865 q 0.405,-0.45 0.81,-0.675 0.45,-0.225 1.08,-0.225 l 1.89,0 -21.96,19.215 q -0.81,0.765 -1.395,1.035 0.585,0.27 0.945,0.675 0.36,0.36 0.72,0.81 l 17.82,22.635001 -1.89,0 q -0.45,0 -0.81,-0.135 -0.315,-0.135 -0.63,-0.585 l -16.515,-21.015001 q -0.63,-0.765 -1.26,-1.035 -0.585,-0.27 -1.8,-0.27 l -1.665,0 -2.79,23.040001 -2.25,0 7.965,-65.070001 2.25,0 z"
       style="font-style:italic;font-variant:normal;font-weight:200;font-stretch:normal;font-size:90px;font-family:Lato;-inkscape-font-specification:'Lato Ultra-Light Italic'"
       id="path5496" />
    <path
       d="m 614.73979,65.830409 q 0,1.8 -0.495,3.42 -0.45,1.62 -1.71,3.105 -1.26,1.44 -3.465,2.745 -2.16,1.26 -5.58,2.385 -3.42,1.08 -8.235,2.025 -4.77,0.9 -11.205,1.575 -0.18,1.17 -0.27,2.34 -0.045,1.125 -0.045,2.295 0,3.555 0.81,6.39 0.81,2.79 2.43,4.77 1.62,1.98 4.05,3.06 2.475,1.035001 5.715,1.035001 2.475,0 4.5,-0.54 2.025,-0.585001 3.645,-1.440001 1.62,-0.855 2.835,-1.845 1.215,-1.035 2.115,-1.89 0.945,-0.855 1.575,-1.395 0.63,-0.585 1.08,-0.585 0.36,0 0.63,0.27 l 0.45,0.54 q -2.16,2.295 -4.185,3.96 -2.025,1.665 -4.095,2.745001 -2.07,1.08 -4.275,1.575 -2.16,0.495 -4.635,0.495 -3.645,0 -6.435,-1.17 -2.79,-1.215 -4.68,-3.420001 -1.89,-2.205 -2.835,-5.355 -0.945,-3.195 -0.945,-7.155 0,-3.33 0.63,-6.705 0.675,-3.42 1.935,-6.57 1.305,-3.15 3.15,-5.895 1.89,-2.79 4.32,-4.815 2.475,-2.07 5.49,-3.24 3.015,-1.215 6.525,-1.215 3.195,0 5.355,0.9 2.16,0.855 3.465,2.16 1.305,1.305 1.845,2.79 0.54,1.485 0.54,2.655 z m -11.295,-6.705 q -4.005,0 -7.2,1.71 -3.195,1.71 -5.625,4.545 -2.385,2.835 -4.005,6.525 -1.575,3.645 -2.295,7.515 6.255,-0.72 10.8,-1.575 4.545,-0.9 7.695,-1.935 3.195,-1.035 5.13,-2.205 1.935,-1.17 3.015,-2.43 1.08,-1.26 1.44,-2.61 0.36,-1.35 0.36,-2.745 0,-1.035 -0.495,-2.205 -0.45,-1.215 -1.575,-2.205 -1.08,-1.035 -2.88,-1.71 -1.755,-0.675 -4.365,-0.675 z"
       style="font-style:italic;font-variant:normal;font-weight:200;font-stretch:normal;font-size:90px;font-family:Lato;-inkscape-font-specification:'Lato Ultra-Light Italic'"
       id="path5498" />
    <path
       d="m 623.50495,102.32541 5.355,-44.550001 0.9,0 q 0.495,0 0.72,0.315 0.225,0.315 0.225,0.72 l -1.665,15.12 q 1.845,-4.77 4.095,-8.235 2.25,-3.465 4.77,-5.49 2.52,-2.07 5.265,-2.61 2.79,-0.54 5.715,0.585 l -0.405,2.07 q -3.105,-1.17 -5.94,-0.45 -2.835,0.675 -5.355,3.06 -2.475,2.34 -4.635,6.3 -2.16,3.915 -3.915,9.18 l -2.88,23.985001 -2.25,0 z"
       style="font-style:italic;font-variant:normal;font-weight:200;font-stretch:normal;font-size:90px;font-family:Lato;-inkscape-font-specification:'Lato Ultra-Light Italic'"
       id="path5500" />
    <path
       d="m 678.84651,62.545409 q -0.27,0.405 -0.675,0.405 -0.36,0 -0.99,-0.585 -0.585,-0.63 -1.71,-1.305 -1.125,-0.72 -2.88,-1.305 -1.755,-0.63 -4.365,-0.63 -2.475,0 -4.68,0.855 -2.205,0.855 -3.915,2.295 -1.665,1.395 -2.655,3.33 -0.99,1.89 -0.99,3.96 0,1.98 0.855,3.33 0.9,1.35 2.34,2.34 1.44,0.945 3.285,1.665 1.845,0.675 3.78,1.395 1.935,0.675 3.78,1.485 1.845,0.765 3.285,1.935 1.44,1.125 2.295,2.79 0.9,1.62 0.9,4.005 0,2.745 -1.125,5.355 -1.08,2.61 -3.105,4.68 -2.025,2.025001 -4.905,3.285001 -2.835,1.215 -6.345,1.215 -2.16,0 -3.915,-0.405 -1.71,-0.36 -3.15,-1.035 -1.395,-0.72 -2.565,-1.710001 -1.17,-0.99 -2.25,-2.205 l 0.585,-0.765 q 0.315,-0.45 0.765,-0.45 0.315,0 0.945,0.765 0.675,0.765 1.89,1.665 1.215,0.9 3.15,1.665001 1.98,0.765 4.905,0.765 2.925,0 5.31,-0.99 2.43,-0.990001 4.14,-2.700001 1.71,-1.71 2.655,-3.96 0.945,-2.295 0.945,-4.815 0,-2.16 -0.9,-3.6 -0.855,-1.44 -2.295,-2.43 -1.44,-1.035 -3.285,-1.755 -1.845,-0.72 -3.78,-1.395 -1.935,-0.675 -3.78,-1.395 -1.845,-0.765 -3.285,-1.845 -1.44,-1.125 -2.34,-2.7 -0.855,-1.575 -0.855,-3.87 0,-2.475 1.125,-4.725 1.125,-2.295 3.06,-4.005 1.98,-1.755 4.635,-2.79 2.655,-1.035 5.715,-1.035 3.6,0 6.165,1.08 2.61,1.08 4.77,3.375 l -0.54,0.765 z"
       style="font-style:italic;font-variant:normal;font-weight:200;font-stretch:normal;font-size:90px;font-family:Lato;-inkscape-font-specification:'Lato Ultra-Light Italic'"
       id="path5502" />
    <path
       d="m 687.13776,102.32541 7.875,-65.070001 2.295,0 -4.41,36.27 q 1.8,-3.78 4.095,-6.75 2.295,-3.015 4.815,-5.085 2.52,-2.115 5.22,-3.24 2.745,-1.125 5.445,-1.125 2.88,0 4.86,1.125 2.025,1.125 3.15,3.24 1.17,2.115 1.485,5.22 0.315,3.06 -0.135,7.02 l -3.33,28.395001 -2.295,0 3.33,-28.395001 q 0.855,-6.975 -0.945,-10.8 -1.8,-3.87 -6.75,-3.87 -2.61,0 -5.31,1.305 -2.655,1.305 -5.175,3.735 -2.52,2.385 -4.815,5.805 -2.295,3.42 -4.14,7.695 l -2.97,24.525001 -2.295,0 z"
       style="font-style:italic;font-variant:normal;font-weight:200;font-stretch:normal;font-size:90px;font-family:Lato;-inkscape-font-specification:'Lato Ultra-Light Italic'"
       id="path5504" />
    <path
       d="m 765.73588,65.830409 q 0,1.8 -0.495,3.42 -0.45,1.62 -1.71,3.105 -1.26,1.44 -3.465,2.745 -2.16,1.26 -5.58,2.385 -3.42,1.08 -8.235,2.025 -4.77,0.9 -11.205,1.575 -0.18,1.17 -0.27,2.34 -0.045,1.125 -0.045,2.295 0,3.555 0.81,6.39 0.81,2.79 2.43,4.77 1.62,1.98 4.05,3.06 2.475,1.035001 5.715,1.035001 2.475,0 4.5,-0.54 2.025,-0.585001 3.645,-1.440001 1.62,-0.855 2.835,-1.845 1.215,-1.035 2.115,-1.89 0.945,-0.855 1.575,-1.395 0.63,-0.585 1.08,-0.585 0.36,0 0.63,0.27 l 0.45,0.54 q -2.16,2.295 -4.185,3.96 -2.025,1.665 -4.095,2.745001 -2.07,1.08 -4.275,1.575 -2.16,0.495 -4.635,0.495 -3.645,0 -6.435,-1.17 -2.79,-1.215 -4.68,-3.420001 -1.89,-2.205 -2.835,-5.355 -0.945,-3.195 -0.945,-7.155 0,-3.33 0.63,-6.705 0.675,-3.42 1.935,-6.57 1.305,-3.15 3.15,-5.895 1.89,-2.79 4.32,-4.815 2.475,-2.07 5.49,-3.24 3.015,-1.215 6.525,-1.215 3.195,0 5.355,0.9 2.16,0.855 3.465,2.16 1.305,1.305 1.845,2.79 0.54,1.485 0.54,2.655 z m -11.295,-6.705 q -4.005,0 -7.2,1.71 -3.195,1.71 -5.625,4.545 -2.385,2.835 -4.005,6.525 -1.575,3.645 -2.295,7.515 6.255,-0.72 10.8,-1.575 4.545,-0.9 7.695,-1.935 3.195,-1.035 5.13,-2.205 1.935,-1.17 3.015,-2.43 1.08,-1.26 1.44,-2.61 0.36,-1.35 0.36,-2.745 0,-1.035 -0.495,-2.205 -0.45,-1.215 -1.575,-2.205 -1.08,-1.035 -2.88,-1.71 -1.755,-0.675 -4.365,-0.675 z"
       style="font-style:italic;font-variant:normal;font-weight:200;font-stretch:normal;font-size:90px;font-family:Lato;-inkscape-font-specification:'Lato Ultra-Light Italic'"
       id="path5506" />
    <path
       d="m 774.99604,102.32541 7.875,-65.070001 2.25,0 -7.92,65.070001 -2.205,0 z"
       style="font-style:italic;font-variant:normal;font-weight:200;font-stretch:normal;font-size:90px;font-family:Lato;-inkscape-font-specification:'Lato Ultra-Light Italic'"
       id="path5508" />
    <path
       d="m 801.87651,61.375409 -4.905,40.320001 -1.8,10.89 q -0.225,1.035 -1.215,1.035 l -0.72,0 6.39,-52.200001 -6.255,-0.27 q -0.675,-0.045 -0.675,-0.675 l 0.09,-0.81 7.02,0 0.81,-6.345 q 0.45,-3.78 1.665,-6.57 1.26,-2.835 3.06,-4.68 1.8,-1.89 4.05,-2.79 2.295,-0.9 4.905,-0.9 1.17,0 2.43,0.225 1.26,0.225 2.16,0.72 l -0.27,1.08 q -0.09,0.315 -0.405,0.315 -0.27,0 -0.81,-0.09 -0.54,-0.135 -1.305,-0.27 -0.765,-0.18 -1.8,-0.18 -2.115,0 -4.005,0.72 -1.89,0.72 -3.42,2.295 -1.485,1.575 -2.565,4.095 -1.035,2.475 -1.485,6.075 l -0.81,6.3 13.32,0 -0.315,1.71 -13.14,0 z"
       style="font-style:italic;font-variant:normal;font-weight:200;font-stretch:normal;font-size:90px;font-family:Lato;-inkscape-font-specification:'Lato Ultra-Light Italic'"
       id="path5510" />
  </g>
  <g
     style="font-style:normal;font-weight:normal;font-size:40px;line-height:125%;font-family:sans-serif;letter-spacing:0px;word-spacing:0px;fill:#000000;fill-opacity:1;stroke:none;stroke-width:1px;stroke-linecap:butt;stroke-linejoin:miter;stroke-opacity:1"
     id="text5357">
    <path
       d="m 399.75134,154.83148 12.8,0 -0.12,0.94 -13.88,0 3.46,-28.12 1.08,0 -3.34,27.18 z"
       style="font-style:italic;font-variant:normal;font-weight:200;font-stretch:normal;font-family:Lato;-inkscape-font-specification:'Lato Ultra-Light Italic'"
       id="path5513" />
    <path
       d="m 420.93759,155.17148 q 1.88,0 3.42,-0.96 1.56,-0.98 2.66,-2.58 1.1,-1.6 1.7,-3.64 0.62,-2.06 0.62,-4.22 0,-1.68 -0.42,-3 -0.4,-1.34 -1.18,-2.26 -0.76,-0.92 -1.86,-1.4 -1.1,-0.5 -2.46,-0.5 -1.26,0 -2.38,0.44 -1.1,0.44 -2.04,1.22 -0.92,0.76 -1.66,1.84 -0.74,1.06 -1.26,2.32 -0.52,1.26 -0.8,2.68 -0.26,1.4 -0.26,2.86 0,1.68 0.4,3.02 0.42,1.34 1.18,2.28 0.76,0.92 1.86,1.42 1.1,0.48 2.48,0.48 z m -0.1,0.84 q -1.58,0 -2.86,-0.56 -1.26,-0.56 -2.16,-1.6 -0.88,-1.04 -1.36,-2.52 -0.48,-1.5 -0.48,-3.36 0,-1.56 0.3,-3.08 0.32,-1.52 0.9,-2.86 0.58,-1.36 1.42,-2.5 0.84,-1.16 1.9,-1.98 1.06,-0.84 2.32,-1.3 1.26,-0.48 2.7,-0.48 1.58,0 2.84,0.56 1.28,0.56 2.16,1.6 0.9,1.04 1.38,2.52 0.48,1.48 0.48,3.32 0,1.56 -0.32,3.08 -0.3,1.5 -0.88,2.86 -0.58,1.36 -1.42,2.52 -0.84,1.16 -1.9,2 -1.06,0.84 -2.34,1.32 -1.26,0.46 -2.68,0.46 z"
       style="font-style:italic;font-variant:normal;font-weight:200;font-stretch:normal;font-family:Lato;-inkscape-font-specification:'Lato Ultra-Light Italic'"
       id="path5515" />
    <path
       d="m 441.32822,155.17148 q 1.88,0 3.42,-0.96 1.56,-0.98 2.66,-2.58 1.1,-1.6 1.7,-3.64 0.62,-2.06 0.62,-4.22 0,-1.68 -0.42,-3 -0.4,-1.34 -1.18,-2.26 -0.76,-0.92 -1.86,-1.4 -1.1,-0.5 -2.46,-0.5 -1.26,0 -2.38,0.44 -1.1,0.44 -2.04,1.22 -0.92,0.76 -1.66,1.84 -0.74,1.06 -1.26,2.32 -0.52,1.26 -0.8,2.68 -0.26,1.4 -0.26,2.86 0,1.68 0.4,3.02 0.42,1.34 1.18,2.28 0.76,0.92 1.86,1.42 1.1,0.48 2.48,0.48 z m -0.1,0.84 q -1.58,0 -2.86,-0.56 -1.26,-0.56 -2.16,-1.6 -0.88,-1.04 -1.36,-2.52 -0.48,-1.5 -0.48,-3.36 0,-1.56 0.3,-3.08 0.32,-1.52 0.9,-2.86 0.58,-1.36 1.42,-2.5 0.84,-1.16 1.9,-1.98 1.06,-0.84 2.32,-1.3 1.26,-0.48 2.7,-0.48 1.58,0 2.84,0.56 1.28,0.56 2.16,1.6 0.9,1.04 1.38,2.52 0.48,1.48 0.48,3.32 0,1.56 -0.32,3.08 -0.3,1.5 -0.88,2.86 -0.58,1.36 -1.42,2.52 -0.84,1.16 -1.9,2 -1.06,0.84 -2.34,1.32 -1.26,0.46 -2.68,0.46 z"
       style="font-style:italic;font-variant:normal;font-weight:200;font-stretch:normal;font-family:Lato;-inkscape-font-specification:'Lato Ultra-Light Italic'"
       id="path5517" />
    <path
       d="m 459.37884,126.85148 -2.2,17.94 0.82,0 q 0.32,0 0.52,-0.06 0.2,-0.08 0.48,-0.34 l 9.04,-7.94 q 0.18,-0.2 0.36,-0.3 0.2,-0.1 0.48,-0.1 l 0.84,0 -9.76,8.54 q -0.36,0.34 -0.62,0.46 0.26,0.12 0.42,0.3 0.16,0.16 0.32,0.36 l 7.92,10.06 -0.84,0 q -0.2,0 -0.36,-0.06 -0.14,-0.06 -0.28,-0.26 l -7.34,-9.34 q -0.28,-0.34 -0.56,-0.46 -0.26,-0.12 -0.8,-0.12 l -0.74,0 -1.24,10.24 -1,0 3.54,-28.92 1,0 z"
       style="font-style:italic;font-variant:normal;font-weight:200;font-stretch:normal;font-family:Lato;-inkscape-font-specification:'Lato Ultra-Light Italic'"
       id="path5519" />
    <path
       d="m 495.49884,155.77148 -0.44,0 q -0.24,0 -0.32,-0.14 -0.08,-0.16 -0.08,-0.32 l 0.84,-7.46 q -0.76,1.8 -1.72,3.3 -0.94,1.5 -2.04,2.58 -1.08,1.08 -2.3,1.68 -1.22,0.6 -2.5,0.6 -1.28,0 -2.2,-0.5 -0.92,-0.5 -1.52,-1.4 -0.6,-0.9 -0.9,-2.14 -0.28,-1.26 -0.28,-2.78 0,-1.7 0.44,-3.34 0.44,-1.66 1.22,-3.14 0.8,-1.5 1.9,-2.76 1.1,-1.26 2.4,-2.18 1.32,-0.92 2.8,-1.44 1.48,-0.52 3.06,-0.52 1.14,0 2.08,0.22 0.96,0.2 1.88,0.72 l -2.32,19.02 z m -8.32,-0.62 q 1.24,0 2.42,-0.66 1.2,-0.66 2.28,-1.88 1.1,-1.22 2.06,-2.94 0.96,-1.72 1.74,-3.84 l 1.06,-8.62 q -0.68,-0.32 -1.42,-0.46 -0.74,-0.14 -1.54,-0.14 -1.4,0 -2.74,0.48 -1.34,0.48 -2.54,1.34 -1.18,0.84 -2.18,2.02 -0.98,1.16 -1.72,2.54 -0.72,1.38 -1.12,2.94 -0.4,1.54 -0.4,3.14 0,1.42 0.24,2.54 0.24,1.12 0.74,1.92 0.5,0.78 1.26,1.2 0.78,0.42 1.86,0.42 z"
       style="font-style:italic;font-variant:normal;font-weight:200;font-stretch:normal;font-family:Lato;-inkscape-font-specification:'Lato Ultra-Light Italic'"
       id="path5521" />
    <path
       d="m 502.04634,155.77148 2.38,-19.8 0.4,0 q 0.22,0 0.32,0.14 0.1,0.14 0.1,0.32 l -0.74,6.72 q 0.82,-2.12 1.82,-3.66 1,-1.54 2.12,-2.44 1.12,-0.92 2.34,-1.16 1.24,-0.24 2.54,0.26 l -0.18,0.92 q -1.38,-0.52 -2.64,-0.2 -1.26,0.3 -2.38,1.36 -1.1,1.04 -2.06,2.8 -0.96,1.74 -1.74,4.08 l -1.28,10.66 -1,0 z"
       style="font-style:italic;font-variant:normal;font-weight:200;font-stretch:normal;font-family:Lato;-inkscape-font-specification:'Lato Ultra-Light Italic'"
       id="path5523" />
    <path
       d="m 520.62509,155.17148 q 1.88,0 3.42,-0.96 1.56,-0.98 2.66,-2.58 1.1,-1.6 1.7,-3.64 0.62,-2.06 0.62,-4.22 0,-1.68 -0.42,-3 -0.4,-1.34 -1.18,-2.26 -0.76,-0.92 -1.86,-1.4 -1.1,-0.5 -2.46,-0.5 -1.26,0 -2.38,0.44 -1.1,0.44 -2.04,1.22 -0.92,0.76 -1.66,1.84 -0.74,1.06 -1.26,2.32 -0.52,1.26 -0.8,2.68 -0.26,1.4 -0.26,2.86 0,1.68 0.4,3.02 0.42,1.34 1.18,2.28 0.76,0.92 1.86,1.42 1.1,0.48 2.48,0.48 z m -0.1,0.84 q -1.58,0 -2.86,-0.56 -1.26,-0.56 -2.16,-1.6 -0.88,-1.04 -1.36,-2.52 -0.48,-1.5 -0.48,-3.36 0,-1.56 0.3,-3.08 0.32,-1.52 0.9,-2.86 0.58,-1.36 1.42,-2.5 0.84,-1.16 1.9,-1.98 1.06,-0.84 2.32,-1.3 1.26,-0.48 2.7,-0.48 1.58,0 2.84,0.56 1.28,0.56 2.16,1.6 0.9,1.04 1.38,2.52 0.48,1.48 0.48,3.32 0,1.56 -0.32,3.08 -0.3,1.5 -0.88,2.86 -0.58,1.36 -1.42,2.52 -0.84,1.16 -1.9,2 -1.06,0.84 -2.34,1.32 -1.26,0.46 -2.68,0.46 z"
       style="font-style:italic;font-variant:normal;font-weight:200;font-stretch:normal;font-family:Lato;-inkscape-font-specification:'Lato Ultra-Light Italic'"
       id="path5525" />
    <path
       d="m 537.33572,136.05148 -1.5,12.56 q -0.18,1.56 -0.08,2.78 0.1,1.2 0.5,2.04 0.42,0.84 1.16,1.28 0.74,0.44 1.84,0.44 1.18,0 2.38,-0.58 1.22,-0.6 2.36,-1.7 1.14,-1.1 2.16,-2.66 1.02,-1.56 1.82,-3.5 l 1.28,-10.66 1.02,0 -2.38,19.72 -0.42,0 q -0.24,0 -0.34,-0.14 -0.1,-0.14 -0.1,-0.32 l 0.8,-6.84 q -0.8,1.74 -1.82,3.14 -1.02,1.4 -2.18,2.38 -1.16,0.98 -2.4,1.5 -1.22,0.52 -2.44,0.52 -2.56,0 -3.58,-1.94 -1.02,-1.94 -0.58,-5.46 l 1.48,-12.56 1.02,0 z"
       style="font-style:italic;font-variant:normal;font-weight:200;font-stretch:normal;font-family:Lato;-inkscape-font-specification:'Lato Ultra-Light Italic'"
       id="path5527" />
    <path
       d="m 554.54634,155.77148 2.38,-19.8 0.4,0 q 0.22,0 0.3,0.14 0.1,0.14 0.1,0.32 l -0.72,6.88 q 0.8,-1.74 1.82,-3.14 1.02,-1.4 2.16,-2.38 1.16,-0.98 2.38,-1.5 1.24,-0.52 2.48,-0.52 1.28,0 2.16,0.5 0.9,0.5 1.4,1.44 0.52,0.94 0.66,2.32 0.14,1.36 -0.06,3.12 l -1.5,12.62 -1,0 1.48,-12.62 q 0.38,-3.1 -0.42,-4.8 -0.8,-1.72 -3,-1.72 -1.2,0 -2.42,0.6 -1.2,0.58 -2.34,1.68 -1.14,1.1 -2.16,2.68 -1.02,1.56 -1.82,3.5 l -1.26,10.68 -1.02,0 z"
       style="font-style:italic;font-variant:normal;font-weight:200;font-stretch:normal;font-family:Lato;-inkscape-font-specification:'Lato Ultra-Light Italic'"
       id="path5529" />
    <path
       d="m 588.25697,155.77148 q -0.26,0 -0.34,-0.14 -0.08,-0.16 -0.08,-0.32 l 0.84,-7.44 q -0.78,1.8 -1.78,3.3 -1,1.5 -2.14,2.58 -1.14,1.08 -2.38,1.68 -1.24,0.58 -2.52,0.58 -1.3,0 -2.28,-0.5 -0.96,-0.52 -1.6,-1.42 -0.64,-0.92 -0.96,-2.18 -0.32,-1.26 -0.32,-2.76 0,-1.48 0.3,-3.04 0.3,-1.56 0.88,-3.04 0.58,-1.48 1.42,-2.8 0.84,-1.34 1.9,-2.34 1.08,-1 2.36,-1.58 1.28,-0.58 2.76,-0.58 1.68,0 3.12,0.78 1.44,0.78 2.3,2.38 l 1.5,-12.08 1,0 -3.54,28.92 -0.44,0 z m -8.16,-0.6 q 1.22,0 2.44,-0.64 1.24,-0.66 2.38,-1.86 1.14,-1.22 2.14,-2.94 1,-1.72 1.8,-3.84 l 0.76,-5.98 q -0.46,-0.92 -1.06,-1.54 -0.58,-0.64 -1.26,-1.02 -0.66,-0.4 -1.42,-0.56 -0.74,-0.18 -1.5,-0.18 -1.36,0 -2.54,0.56 -1.18,0.54 -2.14,1.48 -0.96,0.94 -1.7,2.18 -0.74,1.24 -1.26,2.62 -0.5,1.38 -0.76,2.84 -0.26,1.44 -0.26,2.78 0,1.42 0.28,2.54 0.28,1.12 0.84,1.92 0.56,0.8 1.36,1.22 0.82,0.42 1.9,0.42 z"
       style="font-style:italic;font-variant:normal;font-weight:200;font-stretch:normal;font-family:Lato;-inkscape-font-specification:'Lato Ultra-Light Italic'"
       id="path5531" />
    <path
       d="m 594.80759,154.47148 q 0,-0.58 0.38,-1 0.38,-0.42 1.02,-0.42 0.68,0 1.08,0.48 0.4,0.46 0.4,1.3 0,1.6 -0.74,3.12 -0.72,1.54 -1.88,2.7 l -0.18,-0.18 q -0.06,-0.04 -0.08,-0.12 0,-0.06 0,-0.1 0,-0.12 0.3,-0.5 0.32,-0.38 0.7,-0.98 0.38,-0.6 0.72,-1.38 0.34,-0.78 0.4,-1.7 -0.32,0.22 -0.78,0.22 -0.58,0 -0.96,-0.4 -0.38,-0.4 -0.38,-1.04 z"
       style="font-style:italic;font-variant:normal;font-weight:200;font-stretch:normal;font-family:Lato;-inkscape-font-specification:'Lato Ultra-Light Italic'"
       id="path5533" />
    <path
       d="m 613.11947,162.91148 3.28,-26.94 0.38,0 q 0.24,0 0.32,0.14 0.1,0.14 0.1,0.32 l -0.8,7.5 q 0.78,-1.8 1.78,-3.3 1,-1.5 2.14,-2.58 1.14,-1.08 2.38,-1.68 1.26,-0.6 2.54,-0.6 1.3,0 2.26,0.5 0.98,0.5 1.62,1.42 0.64,0.9 0.96,2.16 0.32,1.26 0.32,2.76 0,1.48 -0.3,3.04 -0.3,1.56 -0.88,3.06 -0.58,1.48 -1.42,2.82 -0.84,1.32 -1.92,2.32 -1.06,1 -2.34,1.58 -1.28,0.58 -2.76,0.58 -0.84,0 -1.64,-0.2 -0.78,-0.2 -1.5,-0.6 -0.7,-0.4 -1.3,-1 -0.58,-0.6 -1,-1.4 l -1.22,10.1 -1,0 z m 11.88,-26.3 q -1.24,0 -2.48,0.66 -1.24,0.66 -2.38,1.88 -1.14,1.2 -2.16,2.94 -1,1.72 -1.8,3.86 l -0.72,5.86 q 0.46,0.94 1.04,1.58 0.6,0.64 1.28,1.04 0.68,0.4 1.42,0.58 0.74,0.18 1.52,0.18 1.36,0 2.52,-0.54 1.18,-0.56 2.14,-1.5 0.98,-0.96 1.72,-2.2 0.74,-1.26 1.24,-2.64 0.52,-1.4 0.78,-2.84 0.26,-1.46 0.26,-2.8 0,-1.4 -0.28,-2.52 -0.28,-1.12 -0.84,-1.9 -0.56,-0.8 -1.38,-1.22 -0.8,-0.42 -1.88,-0.42 z"
       style="font-style:italic;font-variant:normal;font-weight:200;font-stretch:normal;font-family:Lato;-inkscape-font-specification:'Lato Ultra-Light Italic'"
       id="path5535" />
    <path
       d="m 638.03009,136.05148 -2.42,19.72 -1,0 2.4,-19.72 1.02,0 z m 1.52,-7.12 q 0,0.54 -0.42,0.96 -0.4,0.4 -0.9,0.4 -0.52,0 -0.9,-0.4 -0.38,-0.42 -0.38,-0.96 0,-0.56 0.38,-0.96 0.4,-0.42 0.92,-0.42 0.5,0 0.9,0.42 0.4,0.4 0.4,0.96 z"
       style="font-style:italic;font-variant:normal;font-weight:200;font-stretch:normal;font-family:Lato;-inkscape-font-specification:'Lato Ultra-Light Italic'"
       id="path5537" />
    <path
       d="m 656.51509,152.13148 q -1.08,1.2 -2.04,1.96 -0.94,0.76 -1.86,1.18 -0.9,0.42 -1.8,0.58 -0.9,0.16 -1.9,0.16 -1.7,0 -2.94,-0.58 -1.22,-0.6 -2.04,-1.64 -0.8,-1.04 -1.2,-2.46 -0.38,-1.42 -0.38,-3.08 0,-1.56 0.32,-3.1 0.32,-1.54 0.92,-2.92 0.6,-1.4 1.46,-2.58 0.86,-1.2 1.92,-2.06 1.08,-0.88 2.34,-1.36 1.26,-0.5 2.68,-0.5 0.96,0 1.74,0.2 0.8,0.18 1.44,0.54 0.64,0.34 1.14,0.82 0.52,0.48 0.96,1.08 l -0.28,0.32 q -0.12,0.12 -0.3,0.12 -0.16,0 -0.44,-0.34 -0.28,-0.36 -0.82,-0.76 -0.52,-0.42 -1.36,-0.76 -0.84,-0.36 -2.12,-0.36 -1.84,0 -3.42,0.98 -1.56,0.98 -2.7,2.62 -1.14,1.62 -1.8,3.74 -0.64,2.1 -0.64,4.34 0,1.46 0.32,2.72 0.34,1.26 1.02,2.2 0.7,0.92 1.76,1.46 1.06,0.52 2.54,0.52 1.16,0 2.06,-0.24 0.92,-0.26 1.64,-0.64 0.72,-0.38 1.24,-0.82 0.54,-0.44 0.92,-0.82 0.4,-0.38 0.66,-0.62 0.28,-0.26 0.46,-0.26 0.18,0 0.3,0.12 l 0.2,0.24 0,0 z"
       style="font-style:italic;font-variant:normal;font-weight:200;font-stretch:normal;font-family:Lato;-inkscape-font-specification:'Lato Ultra-Light Italic'"
       id="path5539" />
    <path
       d="m 665.23822,126.85148 -2.2,17.94 0.82,0 q 0.32,0 0.52,-0.06 0.2,-0.08 0.48,-0.34 l 9.04,-7.94 q 0.18,-0.2 0.36,-0.3 0.2,-0.1 0.48,-0.1 l 0.84,0 -9.76,8.54 q -0.36,0.34 -0.62,0.46 0.26,0.12 0.42,0.3 0.16,0.16 0.32,0.36 l 7.92,10.06 -0.84,0 q -0.2,0 -0.36,-0.06 -0.14,-0.06 -0.28,-0.26 l -7.34,-9.34 q -0.28,-0.34 -0.56,-0.46 -0.26,-0.12 -0.8,-0.12 l -0.74,0 -1.24,10.24 -1,0 3.54,-28.92 1,0 z"
       style="font-style:italic;font-variant:normal;font-weight:200;font-stretch:normal;font-family:Lato;-inkscape-font-specification:'Lato Ultra-Light Italic'"
       id="path5541" />
    <path
       d="m 695.07822,155.17148 q 1.88,0 3.42,-0.96 1.56,-0.98 2.66,-2.58 1.1,-1.6 1.7,-3.64 0.62,-2.06 0.62,-4.22 0,-1.68 -0.42,-3 -0.4,-1.34 -1.18,-2.26 -0.76,-0.92 -1.86,-1.4 -1.1,-0.5 -2.46,-0.5 -1.26,0 -2.38,0.44 -1.1,0.44 -2.04,1.22 -0.92,0.76 -1.66,1.84 -0.74,1.06 -1.26,2.32 -0.52,1.26 -0.8,2.68 -0.26,1.4 -0.26,2.86 0,1.68 0.4,3.02 0.42,1.34 1.18,2.28 0.76,0.92 1.86,1.42 1.1,0.48 2.48,0.48 z m -0.1,0.84 q -1.58,0 -2.86,-0.56 -1.26,-0.56 -2.16,-1.6 -0.88,-1.04 -1.36,-2.52 -0.48,-1.5 -0.48,-3.36 0,-1.56 0.3,-3.08 0.32,-1.52 0.9,-2.86 0.58,-1.36 1.42,-2.5 0.84,-1.16 1.9,-1.98 1.06,-0.84 2.32,-1.3 1.26,-0.48 2.7,-0.48 1.58,0 2.84,0.56 1.28,0.56 2.16,1.6 0.9,1.04 1.38,2.52 0.48,1.48 0.48,3.32 0,1.56 -0.32,3.08 -0.3,1.5 -0.88,2.86 -0.58,1.36 -1.42,2.52 -0.84,1.16 -1.9,2 -1.06,0.84 -2.34,1.32 -1.26,0.46 -2.68,0.46 z"
       style="font-style:italic;font-variant:normal;font-weight:200;font-stretch:normal;font-family:Lato;-inkscape-font-specification:'Lato Ultra-Light Italic'"
       id="path5543" />
    <path
       d="m 708.60884,155.77148 2.38,-19.8 0.4,0 q 0.22,0 0.3,0.14 0.1,0.14 0.1,0.32 l -0.72,6.88 q 0.8,-1.74 1.82,-3.14 1.02,-1.4 2.16,-2.38 1.16,-0.98 2.38,-1.5 1.24,-0.52 2.48,-0.52 1.28,0 2.16,0.5 0.9,0.5 1.4,1.44 0.52,0.94 0.66,2.32 0.14,1.36 -0.06,3.12 l -1.5,12.62 -1,0 1.48,-12.62 q 0.38,-3.1 -0.42,-4.8 -0.8,-1.72 -3,-1.72 -1.2,0 -2.42,0.6 -1.2,0.58 -2.34,1.68 -1.14,1.1 -2.16,2.68 -1.02,1.56 -1.82,3.5 l -1.26,10.68 -1.02,0 z"
       style="font-style:italic;font-variant:normal;font-weight:200;font-stretch:normal;font-family:Lato;-inkscape-font-specification:'Lato Ultra-Light Italic'"
       id="path5545" />
    <path
       d="m 743.61947,139.55148 q 0,0.8 -0.22,1.52 -0.2,0.72 -0.76,1.38 -0.56,0.64 -1.54,1.22 -0.96,0.56 -2.48,1.06 -1.52,0.48 -3.66,0.9 -2.12,0.4 -4.98,0.7 -0.08,0.52 -0.12,1.04 -0.02,0.5 -0.02,1.02 0,1.58 0.36,2.84 0.36,1.24 1.08,2.12 0.72,0.88 1.8,1.36 1.1,0.46 2.54,0.46 1.1,0 2,-0.24 0.9,-0.26 1.62,-0.64 0.72,-0.38 1.26,-0.82 0.54,-0.46 0.94,-0.84 0.42,-0.38 0.7,-0.62 0.28,-0.26 0.48,-0.26 0.16,0 0.28,0.12 l 0.2,0.24 q -0.96,1.02 -1.86,1.76 -0.9,0.74 -1.82,1.22 -0.92,0.48 -1.9,0.7 -0.96,0.22 -2.06,0.22 -1.62,0 -2.86,-0.52 -1.24,-0.54 -2.08,-1.52 -0.84,-0.98 -1.26,-2.38 -0.42,-1.42 -0.42,-3.18 0,-1.48 0.28,-2.98 0.3,-1.52 0.86,-2.92 0.58,-1.4 1.4,-2.62 0.84,-1.24 1.92,-2.14 1.1,-0.92 2.44,-1.44 1.34,-0.54 2.9,-0.54 1.42,0 2.38,0.4 0.96,0.38 1.54,0.96 0.58,0.58 0.82,1.24 0.24,0.66 0.24,1.18 z m -5.02,-2.98 q -1.78,0 -3.2,0.76 -1.42,0.76 -2.5,2.02 -1.06,1.26 -1.78,2.9 -0.7,1.62 -1.02,3.34 2.78,-0.32 4.8,-0.7 2.02,-0.4 3.42,-0.86 1.42,-0.46 2.28,-0.98 0.86,-0.52 1.34,-1.08 0.48,-0.56 0.64,-1.16 0.16,-0.6 0.16,-1.22 0,-0.46 -0.22,-0.98 -0.2,-0.54 -0.7,-0.98 -0.48,-0.46 -1.28,-0.76 -0.78,-0.3 -1.94,-0.3 z"
       style="font-style:italic;font-variant:normal;font-weight:200;font-stretch:normal;font-family:Lato;-inkscape-font-specification:'Lato Ultra-Light Italic'"
       id="path5547" />
    <path
       d="m 752.67509,127.65148 -1.4,11.44 q -0.12,0.9 -0.24,1.68 -0.1,0.78 -0.22,1.6 -0.12,0.8 -0.28,1.72 -0.14,0.92 -0.32,2.08 l -0.7,0 q 0.1,-1.16 0.18,-2.08 0.1,-0.92 0.16,-1.72 0.08,-0.82 0.16,-1.6 0.1,-0.78 0.2,-1.68 l 1.4,-11.44 1.06,0 z m -5.1,26.94 q 0,-0.64 0.42,-1.08 0.44,-0.46 1.08,-0.46 0.64,0 1.08,0.46 0.46,0.44 0.46,1.08 0,0.64 -0.46,1.08 -0.44,0.42 -1.08,0.42 -0.64,0 -1.08,-0.42 -0.42,-0.44 -0.42,-1.08 z"
       style="font-style:italic;font-variant:normal;font-weight:200;font-stretch:normal;font-family:Lato;-inkscape-font-specification:'Lato Ultra-Light Italic'"
       id="path5549" />
  </g>
</svg>
