<?xml version="1.0" encoding="utf-8"?>
<!-- Generator: Adobe Illustrator 25.0.1, SVG Export Plug-In . SVG Version: 6.00 Build 0)  -->
<svg version="1.1"
	 id="svg2" inkscape:export-filename="/home/luisalejandro/Projects/CollageLabs/promo.png" inkscape:export-xdpi="96" inkscape:export-ydpi="96" inkscape:version="1.0.1 (3bc2e813f5, 2020-09-07)" sodipodi:docname="promo-open-source.svg" xmlns:cc="http://creativecommons.org/ns#" xmlns:dc="http://purl.org/dc/elements/1.1/" xmlns:inkscape="http://www.inkscape.org/namespaces/inkscape" xmlns:rdf="http://www.w3.org/1999/02/22-rdf-syntax-ns#" xmlns:sodipodi="http://sodipodi.sourceforge.net/DTD/sodipodi-0.dtd" xmlns:svg="http://www.w3.org/2000/svg"
	 xmlns="http://www.w3.org/2000/svg" xmlns:xlink="http://www.w3.org/1999/xlink" x="0px" y="0px" viewBox="0 0 1190 265"
	 style="enable-background:new 0 0 1190 265;" xml:space="preserve">
<style type="text/css">
	.st0{opacity:0.4;}
	.st1{fill:none;stroke:#000000;stroke-width:1.8417;stroke-miterlimit:2.5154;}
	.st2{enable-background:new    ;}
	.st3{fill:#626363;}
	.st4{fill:#949494;}
	.st5{fill:#A77660;}
	.st6{fill:#93BBD3;}
	.st7{fill:#669EC0;}
	.st8{fill:#846558;}
	.st9{fill:#231F20;}
	.st10{fill:#FFFFFF;}
	.st11{fill:#7FB860;}
	.st12{fill:#D1D3D4;}
	.st13{fill:#614A41;}
	.st14{fill:#191D2A;stroke:#191D2A;stroke-width:0.9928;stroke-miterlimit:4.7373;}
</style>
<sodipodi:namedview  bordercolor="#666666" borderopacity="1.0" id="base" inkscape:current-layer="svg2" inkscape:cx="869.07228" inkscape:cy="240.33382" inkscape:document-rotation="0" inkscape:document-units="px" inkscape:guide-bbox="true" inkscape:lockguides="false" inkscape:object-nodes="true" inkscape:object-paths="false" inkscape:pageopacity="1" inkscape:pageshadow="2" inkscape:snap-intersection-paths="false" inkscape:snap-nodes="true" inkscape:snap-smooth-nodes="true" inkscape:window-height="1000" inkscape:window-maximized="1" inkscape:window-width="1920" inkscape:window-x="0" inkscape:window-y="48" inkscape:zoom="0.45192705" pagecolor="#ffffff" showgrid="false" showguides="true">
	</sodipodi:namedview>
<g id="layer1" transform="translate(0,-610.51969)" inkscape:groupmode="layer" inkscape:label="Livello 1">
</g>
<g id="g2036" transform="matrix(1.1,0,0,0.44444,101.4198,239.35202)">
	<g id="g3712" transform="matrix(1.0526,0,0,1.2857,-1.3474133,-14.324267)" class="st0">
	</g>
</g>
<g id="g3541" transform="translate(103.9798,212.56695)">
</g>
<g id="g3536" transform="translate(103.9798,212.56695)">
</g>
<g id="g4076" transform="translate(-645.88727,-411.69958)">
	<g id="g4038" transform="translate(-988.44542,730.01011)">
	</g>
</g>
<g id="text3839" transform="matrix(1.3566899,-0.00504995,0.00550305,1.2449875,1041.1846,-229.00677)">
</g>
<path id="path4624" inkscape:connector-curvature="0" class="st1" d="M434.7,29.6l53,205.8"/>
<g class="st2">
	<path class="st3" d="M566.9,118.8V90h1.9v27h13.2v1.8H566.9z"/>
	<path class="st3" d="M605.2,116.1c-1.8,2.1-4.5,3.1-8.1,3.1s-6.3-1-8.1-3.1c-1.8-2.1-2.7-4.9-2.7-8.6V92.7h1.9v14.9
		c0,6.7,3,10,8.9,10c5.9,0,8.9-3.3,8.9-10V92.7h1.9v14.9C607.9,111.2,607,114,605.2,116.1z"/>
	<path class="st3" d="M617.3,118.8V92.7h1.9v26.1H617.3z"/>
	<path class="st3" d="M634.1,93.8c-1.4,0-2.6,0.3-3.5,1c-0.9,0.7-1.4,1.7-1.4,2.9c0,1.4,0.6,2.8,1.8,3.9c0.9,0.8,2,1.7,3.3,2.6
		c1.4,0.9,2.3,1.6,2.8,2s1.1,1,1.9,1.7c1.3,1.3,2,2.8,2,4.5c0,2.2-0.7,3.9-2.2,5.1c-1.5,1.1-3.6,1.7-6.2,1.7s-4.9-0.7-6.7-2.1l1-1.4
		c1.8,1.2,3.8,1.9,5.8,1.9s3.6-0.4,4.8-1.3c1.1-0.9,1.7-2.1,1.7-3.6c0-1.3-0.6-2.6-1.7-3.7c-0.8-0.8-1.9-1.7-3.2-2.6
		c-1.4-0.9-2.3-1.6-2.8-2c-0.5-0.4-1.2-1-1.9-1.7c-1.4-1.4-2.1-3-2.1-4.7c0-1.8,0.6-3.2,1.9-4.2c1.3-1,3-1.5,5.3-1.5
		s4.3,0.4,6.1,1.3l-0.7,1.5C638.1,94.2,636.2,93.8,634.1,93.8z"/>
	<path class="st3" d="M664.8,108.8l-4.1,10h-2.1l12.1-29h1.1l12.2,29h-2.2l-4.1-10H664.8z M671.2,93c0,0-0.1,0.2-0.2,0.5
		c-0.4,1.2-0.7,2.1-1.1,2.9l-4.4,10.7H677l-4.4-10.7C671.6,94.4,671.2,93.3,671.2,93z"/>
	<path class="st3" d="M689.5,118.8V92.7h1.9v24.4h12v1.7H689.5z"/>
	<path class="st3" d="M708.8,118.8V92.7H721v1.6h-10.3v9.5h9.3v1.6h-9.3v11.8h10.7v1.7H708.8z"/>
	<path class="st3" d="M728.8,115.8V92.7h1.8v22c0,2.2-0.3,4.1-1,5.8c-0.7,1.7-1.4,3-2.3,3.9c-0.9,0.9-2,1.9-3.4,2.9l-0.8-1.2
		C726.9,123.1,728.8,119.7,728.8,115.8z"/>
	<path class="st3" d="M741.6,109.7l-3.7,9.1h-1.9l10.9-26.3h1.1l11,26.3h-2.1l-3.8-9.1H741.6z M747.3,95.5c-0.4,1.2-0.8,2.2-1.1,3
		l-4,9.7h10.3l-4-9.6C747.9,97,747.5,96,747.3,95.5z"/>
	<path class="st3" d="M764.3,118.8V92.5h0.9l17.1,19.7c0.6,0.7,1.2,1.4,1.7,2.1c0.5,0.7,0.8,1,0.8,1.1c-0.1-0.6-0.1-1.9-0.1-3.8
		V92.7h1.9v26.3h-0.9l-17.5-20l-2.2-2.7c0.1,0.5,0.1,1.8,0.1,3.8v18.8H764.3z"/>
	<path class="st3" d="M803.9,92.4c4,0,7.4,1.2,10.1,3.7c2.7,2.5,4,5.9,4,10.1s-1.2,7.5-3.7,9.6c-2.5,2.1-5.7,3.2-9.6,3.2
		c-2.7,0-5.5-0.1-8.4-0.4v-26C798.4,92.5,801,92.4,803.9,92.4z M804.7,117.4c3.4,0,6.2-0.9,8.3-2.8c2.1-1.9,3.1-4.6,3.1-8.4
		s-1.2-6.7-3.5-8.9c-2.3-2.2-5.2-3.3-8.7-3.3c-2.4,0-4.3,0.1-5.6,0.2v22.9C799.8,117.3,802,117.4,804.7,117.4z"/>
	<path class="st3" d="M826,118.8v-26c2.3-0.2,4.3-0.3,5.9-0.3c2.5,0,4.5,0.6,6.1,1.9c1.6,1.3,2.4,3.1,2.4,5.5c0,1.6-0.5,3-1.4,4.4
		c-0.9,1.3-1.9,2.4-3.1,3.3c3.2,4.2,5.2,6.8,5.9,7.6c1.5,1.6,3.2,2.5,5,2.7l0,1.2c-1.5,0-2.7-0.2-3.7-0.7c-0.9-0.4-1.9-1.1-2.8-2.1
		c-0.9-1-3-3.7-6.1-8c-2.2,0-4.3-0.1-6.4-0.2v10.7H826z M833.3,106.7c1,0,2.2-0.7,3.4-2.1c1.2-1.4,1.8-3,1.8-4.9
		c0-1.9-0.6-3.3-1.9-4.2c-1.3-1-2.9-1.4-4.9-1.4c-1.1,0-2.3,0.1-3.8,0.2v12.3C829.8,106.7,831.6,106.7,833.3,106.7z"/>
	<path class="st3" d="M861.1,119.2c-3.7,0-6.9-1.3-9.4-3.9c-2.5-2.6-3.8-5.8-3.8-9.6c0-3.8,1.3-7,3.8-9.6c2.5-2.6,5.6-3.9,9.4-3.9
		c3.7,0,6.9,1.3,9.4,3.9c2.5,2.6,3.8,5.8,3.8,9.6c0,3.8-1.3,7-3.8,9.6C867.9,117.9,864.8,119.2,861.1,119.2z M861.1,93.9
		c-3.2,0-5.9,1.1-8,3.4c-2.1,2.3-3.2,5.1-3.2,8.4c0,3.3,1.1,6.1,3.2,8.4c2.1,2.3,4.8,3.4,8,3.4s5.9-1.1,8-3.4
		c2.1-2.3,3.2-5.1,3.2-8.4c0-3.3-1.1-6.1-3.2-8.4C867,95,864.3,93.9,861.1,93.9z"/>
</g>
<g class="st2">
	<path class="st4" d="M582.6,174.6v-28.8h14.7v1.7h-12.8v10.6h11.7v1.6h-11.7v14.9H582.6z"/>
	<path class="st4" d="M622.9,171.9c-1.8,2.1-4.5,3.1-8.1,3.1c-3.6,0-6.3-1-8.1-3.1c-1.8-2.1-2.7-4.9-2.7-8.6v-14.9h1.9v14.9
		c0,6.7,3,10,8.9,10s8.9-3.3,8.9-10v-14.9h1.9v14.9C625.6,167,624.7,169.8,622.9,171.9z"/>
	<path class="st4" d="M635,174.6v-26.1h1.9v24.4h12v1.7H635z"/>
	<path class="st4" d="M654.3,174.6v-26.1h1.9v24.4h12v1.7H654.3z"/>
	<path class="st4" d="M701.1,148.4c-2-0.8-3.9-1.2-5.8-1.2c-3.9,0-5.9,1.4-5.9,4.3c0,1.3,0.4,2.4,1.3,3.5c0.9,1.1,2,2.1,3.2,2.9
		c1.3,0.8,2.5,1.7,3.8,2.6c1.3,0.9,2.3,1.9,3.2,3.2s1.3,2.6,1.3,4c0,2.4-0.8,4.3-2.5,5.5s-3.9,1.9-6.8,1.9c-2.9,0-5.3-0.7-7.4-2.2
		l1-1.4c1.9,1.3,4.1,1.9,6.4,1.9c2.3,0,4.1-0.5,5.3-1.4c1.2-0.9,1.9-2.3,1.9-4c0-1.2-0.4-2.4-1.3-3.4c-0.9-1.1-2-2.1-3.2-2.9
		c-1.3-0.9-2.5-1.8-3.8-2.7c-1.3-0.9-2.3-2-3.2-3.3c-0.9-1.3-1.3-2.6-1.3-4.1c0-1.9,0.7-3.4,2.1-4.5c1.4-1.1,3.3-1.7,5.7-1.7
		c2.4,0,4.6,0.5,6.7,1.4L701.1,148.4z"/>
	<path class="st4" d="M713.9,150.1H705v-1.6h19.5v1.6h-8.9v24.5h-1.8V150.1z"/>
	<path class="st4" d="M728.8,165.5l-3.7,9.1h-1.9l10.9-26.3h1.1l11,26.3h-2.1l-3.8-9.1H728.8z M734.6,151.3c-0.4,1.2-0.8,2.2-1.1,3
		l-4,9.7h10.3l-4-9.6C735.1,152.9,734.7,151.8,734.6,151.3z"/>
	<path class="st4" d="M771.4,173.3c-2,1.1-4.8,1.7-8.4,1.7s-6.7-1.3-9.5-3.9c-2.7-2.6-4.1-5.8-4.1-9.6c0-3.8,1.2-7,3.6-9.6
		c2.4-2.6,5.4-3.9,9.2-3.9c3,0,6,0.5,8.9,1.4l-0.5,1.5c-2.8-0.9-5.7-1.3-8.7-1.3s-5.5,1.1-7.5,3.4c-2,2.3-3,5-3,8.3
		c0,3.3,1.2,6.1,3.5,8.4s5.1,3.5,8.2,3.5c3.1,0,5.6-0.4,7.7-1.3L771.4,173.3z"/>
	<path class="st4" d="M779.8,148.5v26.1H778v-26.1H779.8z M793.8,148.5l-11.1,12.6c4.4,5.3,7.4,8.7,9,10.1s3.2,2.2,4.8,2.4l0,1.2
		c-1.5,0-2.7-0.2-3.7-0.7c-0.9-0.4-1.8-1-2.5-1.7c-0.7-0.7-2.3-2.4-4.6-5.1c-2.4-2.7-4.2-4.8-5.3-6.3l11.2-12.7H793.8z"/>
	<path class="st4" d="M824,145.5c4.4,0,8.1,1.4,11.1,4.1c3,2.8,4.5,6.5,4.5,11.2c0,2.4-0.4,4.5-1.1,6.3s-1.8,3.3-3.2,4.4
		c-2.8,2.2-6.2,3.3-10.3,3.3c-2.7,0-5.8-0.1-9.2-0.4v-28.7C818.5,145.6,821.2,145.5,824,145.5z M824.9,173.2c3.8,0,6.8-1,9.1-3.1
		c2.3-2.1,3.4-5.1,3.4-9.3c0-4.1-1.3-7.4-3.9-9.9c-2.6-2.4-5.8-3.7-9.6-3.7c-2.4,0-4.6,0.1-6.4,0.2v25.4
		C819.4,173.1,821.8,173.2,824.9,173.2z"/>
	<path class="st4" d="M848,174.6v-26.1h12.2v1.6h-10.3v9.5h9.3v1.6h-9.3v11.8h10.7v1.7H848z"/>
	<path class="st4" d="M876.6,169.1l8.7-20.6h1.9L876,174.8h-1.1l-11.2-26.3h2l9.9,23.2C875.7,171.3,876,170.4,876.6,169.1z"/>
	<path class="st4" d="M892.6,174.6v-26.1h12.2v1.6h-10.3v9.5h9.3v1.6h-9.3v11.8h10.7v1.7H892.6z"/>
	<path class="st4" d="M912.6,174.6v-26.1h1.9v24.4h12v1.7H912.6z"/>
	<path class="st4" d="M941.8,175c-3.7,0-6.9-1.3-9.4-3.9c-2.5-2.6-3.8-5.8-3.8-9.6c0-3.8,1.3-7,3.8-9.6c2.5-2.6,5.6-3.9,9.4-3.9
		c3.7,0,6.9,1.3,9.4,3.9c2.5,2.6,3.8,5.8,3.8,9.6c0,3.8-1.3,7-3.8,9.6C948.7,173.7,945.5,175,941.8,175z M941.8,149.7
		c-3.2,0-5.9,1.1-8,3.4c-2.1,2.3-3.2,5.1-3.2,8.4c0,3.3,1.1,6.1,3.2,8.4c2.1,2.3,4.8,3.4,8,3.4s5.9-1.1,8-3.4
		c2.1-2.3,3.2-5.1,3.2-8.4c0-3.3-1.1-6.1-3.2-8.4C947.8,150.9,945.1,149.7,941.8,149.7z"/>
	<path class="st4" d="M963,174.6v-26c2-0.2,4.1-0.3,6.4-0.3c2.2,0,4.1,0.6,5.7,1.8c1.6,1.2,2.3,3,2.3,5.4s-1.1,4.4-3.2,5.9
		c-2.1,1.5-4.6,2.3-7.5,2.3c-0.1,0-0.3,0-0.4,0v-1.3c0.1,0,0.2,0,0.3,0c2.4,0,4.5-0.6,6.2-1.9c1.8-1.3,2.7-2.9,2.7-4.9
		s-0.6-3.5-1.9-4.4c-1.2-0.9-2.9-1.4-4.9-1.4c-1.1,0-2.3,0.1-3.8,0.2v24.5H963z"/>
	<path class="st4" d="M984.3,174.6v-26.1h12.2v1.6h-10.3v9.5h9.3v1.6h-9.3v11.8h10.7v1.7H984.3z"/>
	<path class="st4" d="M1004.3,174.6v-26c2.3-0.2,4.3-0.3,5.9-0.3c2.5,0,4.5,0.6,6.1,1.9c1.6,1.3,2.4,3.1,2.4,5.5
		c0,1.6-0.5,3-1.4,4.4s-1.9,2.4-3.1,3.3c3.2,4.2,5.2,6.8,5.9,7.6c1.5,1.6,3.2,2.5,5,2.7l0,1.2c-1.5,0-2.7-0.2-3.7-0.7
		c-0.9-0.4-1.9-1.1-2.8-2.1s-3-3.7-6.1-8c-2.2,0-4.3-0.1-6.4-0.2v10.7H1004.3z M1011.5,162.6c1,0,2.2-0.7,3.4-2.1
		c1.2-1.4,1.8-3,1.8-4.9s-0.6-3.3-1.9-4.2c-1.3-1-2.9-1.4-4.9-1.4c-1.1,0-2.3,0.1-3.8,0.2v12.3
		C1008.1,162.5,1009.9,162.6,1011.5,162.6z"/>
</g>
<path id="path118-3" inkscape:connector-curvature="0" sodipodi:nodetypes="sscccccccscccccccccscccccccss" class="st5" d="
	M271.5,19.7c-13.3,0-24.1,14-24.1,19.3c0,2.9-0.3,11.4-0.4,19.4c-0.1-0.5-0.8-2.8-1.5-3.5c-0.8-0.8-1.9,0.7-1.9,0.7
	s-0.6,6.6-0.3,9.1c0.3,2.5,2.9,8.9,2.9,8.9l1.1,0l0-1.1c0.1,0.7,0.1,1.5,0.2,2.1c0.7,4.1,3.2,11.6,5.7,18.1l0.2,18.3l6,6.9l5.7,42.8
	l6.5,12.6l8.9-37.1l1.9-18.4l5.6-7.6l0.3-14.5c2.8-7.2,5.4-16.5,6.3-20.9c0.2-0.7,0.3-1.7,0.4-2.9l0,1.7l1.1,0c0,0,2.6-6.4,2.9-8.9
	c0.3-2.5-0.3-9.1-0.3-9.1s-1.1-1.5-1.9-0.7c-0.5,0.5-1,1.9-1.3,2.8c0.1-7.8,0.1-15.8,0.2-18.8C295.9,33.2,284.9,19.7,271.5,19.7
	L271.5,19.7z"/>
<path id="path88" inkscape:connector-curvature="0" sodipodi:nodetypes="cczcccscsccccsccczcccccccccc" class="st6" d="M246,109.3
	l-42.8,13.9c-9.9,12-43.4,66-37.7,85.8c5.7,19.7,5.2,3.7,5.2,3.7l21.1-3.4c0,0-3.6,6.4-0.3-5.7c3.2,2,9.9-7.7,14.1-14.5
	c5.4-9,8.5-18.5,9.1-18.4c0-5.8-3,6.1,2.8,26.9c6.8,24.5,2.9,75.1,2.6,87.7c0,0,11,24.4,50.7,24.5v0.1c39.9,0,51.8-25.1,51.8-25.1
	c-1.9-15.5-9.2-60.9-3.5-84.6c0.4-1.6,0,0,2.2-6.8c-3.1,1.4,2,17.1,2,17.1l28.7,0.8c0,0,1.7-20.8,0.1-35.7
	c-1.7-14.9-3.8-39.6-12.8-52.3c-0.3,0.1-0.7,0.3-1,0.5l0.2-0.4l-43.4-13.6l-12.7,4.5l-4.9,24.7l-5.1,30.7l-9.8-29l-3.1-26.8
	L246,109.3z"/>
<path id="polygon104" inkscape:connector-curvature="0" class="st7" d="M315.6,194.2l-14.9,7.2l-14.9-7.2v-23.9h29.8L315.6,194.2
	L315.6,194.2z"/>
<path id="rect108" inkscape:connector-curvature="0" sodipodi:nodetypes="ccccccccccccccccc" class="st7" d="M282.3,113.5l-2.6,19.2
	l-4.4,17.8v0.1c-0.4,1.4-0.9,3.3-1.6,6.4l-5.3,24.9l0,0l0,0.1l-0.5,127.8l4-0.1l-0.5-130.4c3.1-14.9,4.3-19.4,4.7-21.3v0.1l0.1-0.3
	c0-0.1,0.1-0.3,0.1-0.5l5.8-33.3L282.3,113.5z"/>
<path id="rect108-9" inkscape:connector-curvature="0" sodipodi:nodetypes="ccccccccc" class="st7" d="M261.4,131.3l3.3,19.3v0.1
	c0.4,1.4,0.9,3.3,1.6,6.4l6.9,16c0,0-1.7-3.6-8.5-15c-2.1-11.7-4.6-24-5.3-34.1l-0.1-10.6C261.2,123.8,260.9,123.5,261.4,131.3
	L261.4,131.3z"/>
<path id="polygon104-1" inkscape:connector-curvature="0" sodipodi:nodetypes="czsccccc" class="st7" d="M168.8,220.3
	c0,0-2.4-3.2-0.5-10.5c2-7.3,9.6-12.2,19.5-8.4c4.9,1.9,10.5,2.1,7,10.4c0,2.9-1.3,5.3-1.3,5.3c-2.4-4-6.1-8.9-15.7-3.2
	c-3.6,2.1-5.2,10-5.2,10L168.8,220.3z"/>
<path id="polygon104-1-2" inkscape:connector-curvature="0" sodipodi:nodetypes="czsccccc" class="st7" d="M321.8,213.8
	c0,0-1.5-3.7,3.2-9.6c4.6-5.9,14.5-7.7,23.7-0.9c4.6,3.4,10.4,5.4,3.9,11.7c-1,2.6-3.2,4.4-3.2,4.4c-1.1-4.5-3.4-10.1-15.6-8.2
	c-4.5,0.7-9.1,7.2-9.1,7.2L321.8,213.8z"/>
<path id="path124" inkscape:connector-curvature="0" sodipodi:nodetypes="cccczzc" class="st8" d="M295.7,57.9
	c0,6.7-2.4,33.3-8.8,32.9c-6.4,17-23.6,17.2-29.8-0.3c-7-0.9-10-25.4-10-32.1c-1.9,18.2,4.9,37.1,13.9,44c9,6.9,12.2,7.1,22,0
	C292.6,95.4,296.1,75.3,295.7,57.9L295.7,57.9z"/>
<path id="path126" inkscape:connector-curvature="0" sodipodi:nodetypes="czccccccczzccccczcccc" class="st9" d="M251.9,14
	c1.7,0,17.2-1.4,22.5,0.9s4.5,2.6,7.7,5.1c-0.5-1.5-0.1-0.2-1.1-1.7c3.7,1.7,9,4.2,10.2,10.4c3.1,2.6,4.2,4,6.2,9l-1.2,20.6
	L293.3,44c0,0-3.5-3-4.2-6.1c-3,0.2-11-3.1-13.5-1.8c-2.5,1.3-3.8,2.4-7.3,0.9c-3.6-1.5-4.3-1.1-8.2,0.8c-2.7,0.7-9.4,4.1-9.4,4.1
	l-3.8,16.2l-1-21.1l-4.8-5c0,0,0.7-1.7,3.3-3.4c2.6-1.7,4.2-2.1,4.2-2.1c-2.8-1.4-3-2.3-5.7-3.6c4.3-4.8,8.9-5.4,11.1-5.3
	C252.6,16.8,252.4,15.7,251.9,14z"/>
<g id="g4658" transform="matrix(4.4868924,0,0,5.829977,263.08594,-228.14786)">
	<path id="path124-3-6" inkscape:connector-curvature="0" sodipodi:nodetypes="ccccc" class="st8" d="M1.4,52.9h0.4l-0.1,0.9
		c-0.9,0-1.8,0-2.2,0.1C-0.3,53,1.1,53.5,1.4,52.9z"/>
	<path id="path124-3-6-5" inkscape:connector-curvature="0" sodipodi:nodetypes="ccccc" class="st8" d="M2.6,52.9H2.1l0.1,0.9
		c0.9,0,1.8,0,2.2,0.1C4.3,53,2.9,53.5,2.6,52.9z"/>
</g>
<path id="path138" inkscape:connector-curvature="0" sodipodi:nodetypes="cccccccccccccccccccccccccccccccccccccc" class="st5" d="
	M173.2,218.2l-0.1,0.2c-0.7,2.3-0.7,4.8,0.1,7.2c0.3,1,0.9,2,1.3,3l1.3,2.9l2.7,5.9l5.3,11.7l2.7,5.9l1.3,2.9l0.7,1.5l0.3,0.7
	c0.1,0.1,0.1,0.2,0.2,0.4l0.1,0.4l2.3,6.5c0.4,1.4,0.9,2.8,1.4,4l0.6,1.6l0,0.1c0.3,0.8,0.7,1.5,1.3,2.2c7.2,12.4,18.7,11.4,27,10.8
	c0,0,3.1-2.2,2.2-4.8c0,0-5.4-2.5-10.6-10.3l-0.5-1.4c-0.1-0.6,0-1.1,0.1-1.7l3.6,5.3c1.1,1.7,3.4,2.1,5,1c1.6-1.1,2.1-3.4,0.9-5
	l-7.5-11c-0.8-1.2-2.3-1.7-3.6-1.5l0-0.1l-6.7,2l-0.8-2.5c-0.3-1-0.6-2.1-0.9-3.1l-0.9-3.1l-1.7-6.2l-3.4-12.4l-1.7-6.2l-0.6-2.1
	C193.9,217.9,190.4,199.1,173.2,218.2L173.2,218.2z"/>
<g id="g4889" transform="matrix(6.592358,0,0,6.592358,68.668735,-296.87142)">
	<g id="g156">
		<path id="path158" inkscape:connector-curvature="0" class="st10" d="M31.8,77.7l0.3,5.8c0,0.2-0.5,0.4-1.2,0.5
			c-0.7,0.1-1.3,0-1.3-0.2l-1.5-5.6L31.8,77.7z"/>
		<path id="path160" inkscape:connector-curvature="0" class="st11" d="M29,81c-0.1-0.8,0.4-1.5,1.2-1.7c0.8-0.1,1.5,0.4,1.7,1.2
			c0.1,0.8-0.4,1.5-1.2,1.7C29.8,82.3,29.1,81.8,29,81z"/>
		<polygon id="polygon162" class="st12" points="28.1,78.2 28.2,78.5 31.8,77.8 31.8,77.7 		"/>
		<path id="path164" inkscape:connector-curvature="0" class="st10" d="M27.9,78.1l-0.1-0.3l0.3-0.1l0-0.4c0-0.1,0.7-0.3,1.7-0.4
			c0.9-0.1,1.7-0.2,1.7-0.1l0.1,0.4l0.3-0.1l0.1,0.3l0.1,0.1L27.9,78.1L27.9,78.1z"/>
	</g>
	
		<path id="path154" inkscape:connector-curvature="0" sodipodi:nodetypes="ccccccccccccccccccccccccccccccccccccccc" class="st5" d="
		M38.7,78.5l-6,2.4c-0.1-0.3-0.2-0.5-0.2-0.8l0,0c0-0.1,0-0.1-0.1-0.2l0,0l0,0c-0.1-0.1-0.2-0.2-0.3-0.2c-0.3-0.1-0.6,0.1-0.6,0.3
		v0.1c-0.9,0.2-1.3,0.1-1.8,0.1c0,0,0,0,0,0l-1.4-0.2c-0.2,0-0.4,0.1-0.4,0.3s0.1,0.4,0.3,0.4l1.2,0.2c0,0.1,0,0.1,0,0.2l-0.8-0.1
		c-0.2,0-0.4,0.1-0.4,0.3s0.1,0.4,0.3,0.4h0.1c-0.1,0.1-0.2,0.2-0.2,0.3c0,0.2,0.1,0.4,0.3,0.4l0.7,0.1c0,0.1,0.1,0.1,0.1,0.2
		L29.1,83c-0.2,0.1-0.3,0.3-0.3,0.5s0.3,0.3,0.5,0.3l0.6-0.1c0.2,0.1,0.4,0.1,0.7,0l0.9-0.2c0.5,0,1.1-0.1,1.6-0.3
		c0.8-0.1,8.5-1.1,8.7-1.2c0.8-0.8,0.9-3.3,0.8-3.7l0,0c0,0,0,0,0-0.1c0,0,0-0.1,0-0.1l0,0C42.9,77.1,39.2,76.1,38.7,78.5L38.7,78.5
		z"/>
</g>
<path id="polygon94" inkscape:connector-curvature="0" sodipodi:nodetypes="cccccc" class="st7" d="M291.2,129.6l-9.2-16l6-10.3
	l0-4.4l10.6,9.9L291.2,129.6z"/>
<path id="polygon94-2" inkscape:connector-curvature="0" sodipodi:nodetypes="cccccc" class="st7" d="M250.1,129.6l9.2-16l-6-10.3
	l0-4.4l-10.6,9.9L250.1,129.6z"/>
<path id="path124-3-6-0" inkscape:connector-curvature="0" sodipodi:nodetypes="zczcz" class="st13" d="M263.7,52.8
	c3,0.9,3.1,0.5,3.9,0.5c0,0.7-0.1,1.6-1.2,1.8c-1.2,0.2-15.2-2-17.2-0.9C251.6,49.5,260.7,52,263.7,52.8z"/>
<path id="path124-3-6-5-9" inkscape:connector-curvature="0" sodipodi:nodetypes="cccc" class="st8" d="M274.8,93.1l-4.6-0.1
	c0.1,2.8,0.7,1.7,2.3,3.3C274.4,94.7,274.8,95.7,274.8,93.1z"/>
<path id="path124-3-6-0-3" inkscape:connector-curvature="0" sodipodi:nodetypes="sczcss" class="st13" d="M279.5,52
	c-2.9,1.3-3.5,1-4.3,1.1c0,0.6,0.3,1.4,1.5,1.6c1.2,0.2,10.3-5.3,16.9-0.8c-1.2-2-3.6-4.6-6.6-4.5C284,49.5,281.1,51.3,279.5,52z"/>
<path id="svg_7" inkscape:connector-curvature="0" class="st14" d="M286.3,53.5c-4.1,0-8.1,1.3-12.2,1.8c-1.7,0.2-3.4,0.3-5.1,0.1
	c-2.3-0.3-4.4-0.9-6.7-1.3c-2-0.3-4.1-0.6-6.1-0.6c-3.6,0-7,1.1-10.5,1.6c0,1-0.2,2.3,0.3,3c0.5,0.7,1.4,1.4,1.7,2.4
	c0.6,2.3,1.3,4.6,2.4,6.8c0.5,1,1.4,1.8,2.5,2.3c2.5,1.2,5.4,1.4,8.2,1c3.9-0.5,6-3.4,7.6-6.7c0.6-1.3,0.7-2.9,1.4-4.1
	c0.5-0.7,1.5-0.4,2.4-0.4c0.8,0,1.4,1.3,1.7,2.1c0.9,3,2.3,6.2,5.1,7.7c4.2,2.4,11,1.9,13.8-2.3c1.1-1.6,1.4-3.7,1.9-5.6
	c0.3-1.1,0.6-2.5,1.8-3.1c0.5-0.2,0.1-1.3,0.2-1.9c0.1-0.6,0.2-1.2-0.7-1.3c-1.6-0.2-3.2-0.9-4.9-1.1
	C289.5,53.8,287.9,53.5,286.3,53.5z M258.9,54.6c1.2,0,2.4,0.1,3.5,0.3c6.8,1.4,6.9,4.1,4.1,9.8c-2.3,4.6-7,5.8-11.8,4.6
	c-2.2-0.5-3.7-2-4.4-4.1c-0.7-2.2-1.3-4.5-1.2-6.7c0.2-3,3.7-3.5,6.3-3.7C256.6,54.7,257.7,54.6,258.9,54.6z M283.8,54.6
	c1.2,0,2.4,0.1,3.5,0.2c2.5,0.3,6.1,0.7,6.3,3.7c0.1,2.3-0.4,4.6-1.2,6.7c-0.7,2.1-2.2,3.6-4.4,4.1c-4.8,1.1-9.5-0.1-11.8-4.6
	c-2.8-5.7-2.7-8.4,4.1-9.8C281.5,54.7,282.6,54.6,283.8,54.6z"/>
</svg>
