<?xml version="1.0" encoding="UTF-8" standalone="no"?>
<svg
   xmlns:dc="http://purl.org/dc/elements/1.1/"
   xmlns:cc="http://creativecommons.org/ns#"
   xmlns:rdf="http://www.w3.org/1999/02/22-rdf-syntax-ns#"
   xmlns:svg="http://www.w3.org/2000/svg"
   xmlns="http://www.w3.org/2000/svg"
   xmlns:sodipodi="http://sodipodi.sourceforge.net/DTD/sodipodi-0.dtd"
   xmlns:inkscape="http://www.inkscape.org/namespaces/inkscape"
   width="200"
   height="200"
   viewBox="0 0 200 200"
   version="1.1"
   id="svg2"
   inkscape:version="0.91 r13725"
   sodipodi:docname="logo.svg"
   inkscape:export-filename="/home/huntingbears/Desarrollo/dockershelf/x.png"
   inkscape:export-xdpi="230.39999"
   inkscape:export-ydpi="230.39999">
  <metadata
     id="metadata64">
    <rdf:RDF>
      <cc:Work
         rdf:about="">
        <dc:format>image/svg+xml</dc:format>
        <dc:type
           rdf:resource="http://purl.org/dc/dcmitype/StillImage" />
        <dc:title>docker_wave_whale</dc:title>
      </cc:Work>
    </rdf:RDF>
  </metadata>
  <sodipodi:namedview
     pagecolor="#ffffff"
     bordercolor="#666666"
     borderopacity="1"
     objecttolerance="10"
     gridtolerance="10"
     guidetolerance="10"
     inkscape:pageopacity="0"
     inkscape:pageshadow="2"
     inkscape:window-width="1600"
     inkscape:window-height="873"
     id="namedview62"
     showgrid="false"
     inkscape:zoom="1.2470309"
     inkscape:cx="141.7626"
     inkscape:cy="67.740546"
     inkscape:window-x="0"
     inkscape:window-y="27"
     inkscape:window-maximized="1"
     inkscape:current-layer="svg2" />
  <title
     id="title4">docker_wave_whale</title>
  <description>Created with Sketch (http://www.bohemiancoding.com/sketch)</description>
  <defs
     id="defs6" />
  <g
     id="g5426"
     transform="matrix(0.58650251,0,0,0.58650251,-24.420414,19.06977)">
    <g
       transform="matrix(0.93706381,0,0,0.93706381,-175.02019,-91.665603)"
       id="g5260">
      <rect
         style="fill:#ced5d6;fill-opacity:1"
         id="rect72"
         height="47.576"
         width="82.025002"
         y="124.3172"
         x="359.08472" />
      <polygon
         style="fill:#afbbbc;fill-opacity:1"
         id="polygon74"
         points="629.96,278.993 629.96,233.218 623.397,220.094 623.397,267.601 "
         transform="translate(-182.2873,-95.776786)" />
      <rect
         style="fill:#b4bcbc;fill-opacity:1"
         id="rect76"
         height="13.125"
         width="82.025002"
         y="111.19221"
         x="359.08472" />
      <polygon
         style="fill:#929e9f;fill-opacity:1"
         id="polygon78"
         points="629.96,218.453 629.96,233.218 623.397,220.298 623.397,206.969 "
         transform="translate(-182.2873,-95.776786)" />
    </g>
    <g
       transform="matrix(0.93706381,0,0,0.93706381,-175.02019,-91.665603)"
       id="g5266">
      <rect
         style="fill:#ced5d6;fill-opacity:1"
         id="rect46"
         height="23.737188"
         width="40.931873"
         y="132.91432"
         x="446.07501" />
      <polygon
         style="fill:#afbbbc;fill-opacity:1"
         id="polygon48"
         points="509.344,181.197 509.344,206.937 512.898,213.109 512.898,188.308 "
         transform="matrix(0.92083129,0,0,0.92083129,17.987022,-33.93756)" />
      <rect
         style="fill:#b4bcbc;fill-opacity:1"
         id="rect50"
         height="6.5480313"
         width="40.931873"
         y="126.36536"
         x="446.07501" />
      <polygon
         style="fill:#929e9f;fill-opacity:1"
         id="polygon52"
         points="509.344,181.308 509.344,174.085 512.898,180.308 512.898,188.308 "
         transform="matrix(0.92083129,0,0,0.92083129,17.987022,-33.93756)" />
    </g>
    <g
       transform="matrix(0.93706381,0,0,0.93706381,-175.02019,-91.665603)"
       id="g5278">
      <rect
         style="fill:#ced5d6;fill-opacity:1"
         id="rect84"
         height="83.696968"
         width="144.30511"
         y="191.90289"
         x="296.93332" />
      <polygon
         style="fill:#afbbbc;fill-opacity:1"
         id="polygon86"
         points="658.166,307.65 648.166,287.65 648.166,360.045 658.166,360.15 "
         transform="matrix(1.1544409,0,0,1.1544409,-307.03094,-140.17202)" />
      <rect
         style="fill:#b4bcbc;fill-opacity:1"
         id="rect88"
         height="23.088818"
         width="144.30511"
         y="168.81407"
         x="296.93332" />
      <polygon
         style="fill:#929e9f;fill-opacity:1"
         id="polygon90"
         points="658.166,307.65 648.166,287.963 648.166,267.65 658.166,285.15 "
         transform="matrix(1.1544409,0,0,1.1544409,-307.03094,-140.17202)" />
    </g>
    <g
       transform="matrix(0.93706381,0,0,0.93706381,-175.02019,-91.665603)"
       id="g5272">
      <polygon
         style="fill:#afbbbc;fill-opacity:1"
         id="polygon58"
         points="515.986,233.218 509.424,220.094 509.424,267.601 515.986,278.993 "
         transform="matrix(0.92083129,0,0,0.92083129,52.518145,-33.93756)" />
      <polygon
         style="fill:#929e9f;fill-opacity:1"
         id="polygon60"
         points="515.986,233.218 509.424,220.298 509.424,206.969 515.986,218.453 "
         transform="matrix(0.92083129,0,0,0.92083129,52.518145,-33.93756)" />
      <rect
         style="fill:#b4bcbc;fill-opacity:1"
         id="rect64"
         height="12.085911"
         width="75.532104"
         y="156.64597"
         x="446.07959" />
      <rect
         style="fill:#ced5d6;fill-opacity:1"
         id="rect62"
         height="43.809471"
         width="75.532104"
         y="168.73187"
         x="446.07959" />
    </g>
    <g
       transform="matrix(0.93706381,0,0,0.93706381,-175.02019,-91.665603)"
       id="g5284">
      <rect
         style="fill:#ced5d6;fill-opacity:1"
         id="rect34"
         height="49.844776"
         width="85.939278"
         y="225.7551"
         x="446.08176" />
      <polygon
         style="fill:#afbbbc;fill-opacity:1"
         id="polygon36"
         points="509.5,287.65 509.5,360.045 519.5,360.15 519.5,307.65 "
         transform="matrix(0.68751419,0,0,0.68751419,181.73255,27.99164)" />
      <rect
         style="fill:#b4bcbc;fill-opacity:1"
         id="rect38"
         height="13.750284"
         width="85.939278"
         y="212.00481"
         x="446.08176" />
      <polygon
         style="fill:#929e9f;fill-opacity:1"
         id="polygon40"
         points="509.5,287.963 509.5,267.65 519.5,285.15 519.5,307.65 "
         transform="matrix(0.68751419,0,0,0.68751419,181.73255,27.99164)" />
    </g>
    <g
       transform="matrix(0.93706381,0,0,0.93706381,-175.02019,-91.665603)"
       id="g5220">
      <path
         style="fill:#3a4e55;fill-rule:evenodd;stroke:none;stroke-width:1"
         inkscape:connector-curvature="0"
         id="path18-6-9-2"
         d="m 387.81912,221.86515 6.00591,-0.0121 c 2.77371,-0.006 5.6252,-0.50515 8.25018,-1.40066 1.28927,-0.43988 2.73676,-1.05177 4.00821,-1.82033 -1.68084,-2.18611 -2.54229,-4.948 -2.80024,-7.67222 -0.34929,-3.70567 0.38835,-8.53099 2.89113,-11.43648 l 1.24534,-1.44667 1.49051,1.19274 c 3.75178,3.00199 6.91063,7.20143 7.47571,11.99434 4.50808,-1.33558 9.80415,-1.03263 13.78476,1.25389 l 1.63289,0.93796 -0.85505,1.67766 c -3.34931,6.56912 -10.37468,8.61567 -17.24781,8.26995 -10.23244,25.6344 -32.59721,37.80632 -59.74449,37.86084 -14.02508,0.0282 -26.90333,-5.18942 -34.2557,-17.61776 l -0.12008,-0.20326 -1.07234,-2.16966 c -2.4878,-5.47225 -3.32241,-11.47096 -2.77648,-17.46739 l 0.16401,-1.79645 10.15713,-0.0204 c 10.28331,-6.9e-4 56.37048,-0.39707 61.76638,-0.12405 z"
         sodipodi:nodetypes="cscccccccscccsccccccc" />
      <path
         style="fill:#45c3e6;fill-opacity:1;fill-rule:evenodd;stroke:none;stroke-width:1"
         inkscape:connector-curvature="0"
         id="path20-7-2-0"
         d="m 414.40872,214.16167 c 0.78389,-6.19131 -3.85781,-11.0437 -6.73512,-13.34607 -3.30279,3.83419 -3.79719,13.86561 1.40524,18.07811 -2.89326,2.58058 -8.99599,4.92674 -15.24983,4.9393 l -76.12523,0.15288 c -0.59484,6.52925 0.56296,12.53791 3.19097,17.67864 l 0.86917,1.58179 c 0.55025,0.92953 1.15093,1.82664 1.80002,2.68982 l 5.1e-4,-1e-5 c 3.12959,0.1952 6.01554,0.25858 8.65532,0.19521 l 0.001,-1e-5 c 5.18716,-0.12555 9.41895,-0.74605 12.62519,-1.8644 0.47736,-0.16709 0.99847,0.0854 1.16455,0.5622 0.16557,0.47685 -0.0859,0.99847 -0.5627,1.16455 -0.42589,0.1488 -0.87048,0.28805 -1.32972,0.41976 -5.1e-4,5e-4 -7.7e-4,5.3e-4 -10e-4,5.1e-4 -2.52483,0.72615 -5.23242,1.21735 -8.72727,1.43998 0.20754,0.003 -0.21606,0.0318 -0.21707,0.0318 -0.11865,0.007 -0.26859,0.0248 -0.38775,0.0316 -1.37533,0.08 -2.85986,0.0992 -4.37775,0.1022 -1.65978,0.003 -3.29539,-0.0247 -5.12351,-0.11392 l -0.0464,0.0309 c 6.35707,7.11618 16.28344,11.37221 28.71438,11.34724 26.31058,-0.0528 48.60357,-11.76005 58.43292,-37.96424 7.01221,0.70497 13.74672,-1.09609 16.79976,-7.08494 -4.88754,-2.80783 -11.16432,-1.89691 -14.77564,-0.0728" />
      <path
         style="fill:#d5eef2;fill-rule:evenodd;stroke:none;stroke-width:1"
         inkscape:connector-curvature="0"
         id="path46-6-2-6"
         d="m 349.59462,238.765 c 1.56788,-0.003 2.84241,1.26678 2.84556,2.83466 0.003,1.56788 -1.26627,2.8419 -2.83415,2.84505 -1.56889,0.003 -2.84292,-1.26577 -2.84606,-2.83364 -0.003,-1.56788 1.26576,-2.84292 2.83465,-2.84607" />
      <path
         style="fill:#3a4e55;fill-rule:evenodd;stroke:none;stroke-width:1"
         inkscape:connector-curvature="0"
         id="path48-0-8-1"
         d="m 349.59624,239.5709 c 0.25954,-5.2e-4 0.50758,0.048 0.7365,0.13587 -0.24765,0.14391 -0.41475,0.41288 -0.41413,0.71989 8.9e-4,0.4585 0.37331,0.82889 0.8318,0.82797 0.31409,-6.3e-4 0.58641,-0.17589 0.72728,-0.4332 0.1,0.23966 0.15553,0.50313 0.15608,0.77985 0.002,1.12301 -0.90634,2.03578 -2.02936,2.03803 -1.12352,0.002 -2.03628,-0.90685 -2.03854,-2.02986 -0.002,-1.12403 0.90685,-2.03629 2.03037,-2.03855" />
      <path
         style="fill:#c0dbe1;fill-rule:evenodd;stroke:none;stroke-width:1"
         inkscape:connector-curvature="0"
         id="path52-2-9-5"
         d="m 357.18477,259.2161 c -7.04019,-3.32362 -10.90967,-7.85287 -13.06769,-12.80215 -2.61113,0.75157 -5.75048,1.23405 -9.39936,1.44639 -1.37433,0.08 -2.81993,0.12231 -4.33782,0.12535 -1.74916,0.004 -3.59284,-0.0443 -5.52803,-0.14341 6.46271,6.43328 14.40751,11.38053 29.09981,11.44141 1.08464,-0.002 2.16166,-0.0255 3.23309,-0.0676" />
      <path
         style="fill:#d5eef2;fill-rule:evenodd;stroke:none;stroke-width:1"
         inkscape:connector-curvature="0"
         id="path54-6-7-5"
         d="m 346.73888,250.97904 c -0.97569,-1.31901 -1.92329,-2.97689 -2.62029,-4.56559 -2.61112,0.75106 -5.75148,1.23455 -9.40087,1.44638 2.50982,1.35632 6.09752,2.60948 12.02116,3.11921" />
    </g>
    <g
       transform="matrix(0.93706381,0,0,0.93706381,-175.02019,-91.665603)"
       id="g5252">
      <path
         style="fill:#3a4e55;fill-rule:evenodd;stroke:none;stroke-width:1"
         inkscape:connector-curvature="0"
         id="path18-6-9-7"
         d="m 471.73466,141.22601 1.66135,-0.003 c 0.76726,-0.002 1.55604,-0.13973 2.28217,-0.38745 0.35663,-0.12168 0.75704,-0.29094 1.10875,-0.50354 -0.46496,-0.60472 -0.70325,-1.36872 -0.77461,-2.12229 -0.0966,-1.02506 0.10743,-2.35984 0.79975,-3.16356 l 0.34449,-0.40018 0.4123,0.32994 c 1.03782,0.83041 1.91162,1.99206 2.06793,3.31787 1.24703,-0.36944 2.71203,-0.28564 3.81314,0.34685 l 0.45169,0.25946 -0.23652,0.46408 c -0.92649,1.81715 -2.86985,2.38327 -4.77109,2.28763 -2.8305,7.09099 -9.01704,10.45799 -16.52652,10.47307 -3.87962,0.008 -7.44201,-1.4355 -9.47582,-4.87343 l -0.0332,-0.0562 -0.29664,-0.60017 c -0.68817,-1.51374 -0.91904,-3.1731 -0.76803,-4.83183 l 0.0454,-0.49694 2.80967,-0.006 c 2.84457,-1.9e-4 15.5932,-0.10984 17.08582,-0.0343 z"
         sodipodi:nodetypes="cscccccccscccsccccccc" />
      <path
         style="fill:#87d983;fill-opacity:1;fill-rule:evenodd;stroke:none;stroke-width:1"
         inkscape:connector-curvature="0"
         id="path20-7-2-6"
         d="m 479.08987,139.09507 c 0.21684,-1.71264 -1.06715,-3.05491 -1.86307,-3.69179 -0.91362,1.06061 -1.05038,3.83551 0.38872,5.00077 -0.80033,0.71384 -2.48847,1.36283 -4.21841,1.36631 l -21.05776,0.0423 c -0.16455,1.80612 0.15572,3.46824 0.88268,4.89026 l 0.24043,0.43756 c 0.15221,0.25712 0.31837,0.50528 0.49793,0.74405 l 1.4e-4,0 c 0.8657,0.054 1.66402,0.0715 2.39423,0.054 l 2.8e-4,0 c 1.43487,-0.0347 2.60547,-0.20637 3.49238,-0.51573 0.13205,-0.0462 0.2762,0.0236 0.32214,0.15551 0.0458,0.13191 -0.0238,0.2762 -0.15566,0.32214 -0.11781,0.0412 -0.24079,0.0797 -0.36782,0.11612 -1.5e-4,1.4e-4 -2.2e-4,1.4e-4 -2.8e-4,1.4e-4 -0.69842,0.20086 -1.44739,0.33674 -2.41414,0.39833 0.0574,7.2e-4 -0.0598,0.009 -0.06,0.009 -0.0328,0.002 -0.0743,0.007 -0.10725,0.009 -0.38045,0.0221 -0.7911,0.0274 -1.21098,0.0283 -0.45913,9.1e-4 -0.91157,-0.007 -1.41726,-0.0315 l -0.0128,0.009 c 1.75849,1.96848 4.50433,3.14578 7.94297,3.13888 7.27804,-0.0146 13.44473,-3.25307 16.16372,-10.50167 1.93972,0.195 3.80262,-0.30321 4.64715,-1.95984 -1.35199,-0.7767 -3.08827,-0.52472 -4.08724,-0.0202" />
      <path
         style="fill:#d5eef2;fill-rule:evenodd;stroke:none;stroke-width:1"
         inkscape:connector-curvature="0"
         id="path46-6-2-5"
         d="m 461.16099,145.90084 c 0.43371,-8.5e-4 0.78627,0.35042 0.78714,0.78413 8.3e-4,0.4337 -0.35027,0.78613 -0.78398,0.787 -0.43399,8.8e-4 -0.78641,-0.35014 -0.78728,-0.78385 -8.3e-4,-0.4337 0.35014,-0.7864 0.78412,-0.78728" />
      <path
         style="fill:#3a4e55;fill-rule:evenodd;stroke:none;stroke-width:1"
         inkscape:connector-curvature="0"
         id="path48-0-8-6"
         d="m 461.16144,146.12377 c 0.0718,-1.4e-4 0.14041,0.0133 0.20373,0.0376 -0.0685,0.0398 -0.11473,0.11421 -0.11455,0.19913 2.4e-4,0.12683 0.10326,0.22929 0.23009,0.22904 0.0869,-1.8e-4 0.16221,-0.0487 0.20118,-0.11983 0.0277,0.0663 0.043,0.13917 0.0432,0.21572 5.6e-4,0.31064 -0.25071,0.56313 -0.56136,0.56376 -0.31079,6.3e-4 -0.56327,-0.25086 -0.5639,-0.5615 -5.5e-4,-0.31093 0.25085,-0.56328 0.56164,-0.56391" />
      <path
         style="fill:#c0dbe1;fill-rule:evenodd;stroke:none;stroke-width:1"
         inkscape:connector-curvature="0"
         id="path52-2-9-9"
         d="m 463.26058,151.55803 c -1.94746,-0.91938 -3.01783,-2.17226 -3.61478,-3.54133 -0.7223,0.2079 -1.5907,0.34136 -2.60006,0.4001 -0.38016,0.0221 -0.78004,0.0338 -1.19992,0.0347 -0.48386,9.7e-4 -0.99386,-0.0122 -1.52917,-0.0397 1.78772,1.77958 3.98541,3.14808 8.04959,3.16493 0.30004,-6.1e-4 0.59796,-0.007 0.89434,-0.0187" />
      <path
         style="fill:#d5eef2;fill-rule:evenodd;stroke:none;stroke-width:1"
         inkscape:connector-curvature="0"
         id="path54-6-7-3"
         d="m 460.37104,149.27949 c -0.2699,-0.36486 -0.53202,-0.82346 -0.72483,-1.26293 -0.72228,0.20776 -1.59097,0.3415 -2.60047,0.4001 0.69427,0.37518 1.6867,0.72183 3.3253,0.86283" />
    </g>
    <g
       transform="matrix(0.93706381,0,0,0.93706381,-175.02019,-91.665603)"
       id="g5244">
      <path
         style="fill:#3a4e55;fill-rule:evenodd;stroke:none;stroke-width:1"
         inkscape:connector-curvature="0"
         id="path18-6-9-7-4"
         d="m 411.73451,141.01762 3.06265,-0.006 c 1.41442,-0.003 2.86851,-0.25759 4.20708,-0.71424 0.65745,-0.22432 1.39559,-0.53634 2.04395,-0.92826 -0.85713,-1.11479 -1.29642,-2.52318 -1.42795,-3.91237 -0.17812,-1.88966 0.19803,-4.35028 1.4743,-5.83191 l 0.63504,-0.73771 0.76007,0.60823 c 1.91318,1.53083 3.524,3.67228 3.81216,6.11638 2.29884,-0.68107 4.99952,-0.52658 7.02938,0.6394 l 0.83268,0.47831 -0.43602,0.8555 c -1.70795,3.34985 -5.29046,4.39347 -8.79534,4.21717 -5.21792,13.07198 -16.62258,19.27892 -30.46604,19.30672 -7.15193,0.0144 -13.71906,-2.64629 -17.46832,-8.98398 l -0.0612,-0.10365 -0.54683,-1.1064 c -1.26862,-2.79051 -1.69422,-5.84949 -1.41583,-8.9073 l 0.0836,-0.91608 5.17952,-0.0104 c 5.24386,-3.5e-4 28.7455,-0.20249 31.49708,-0.0633 z"
         sodipodi:nodetypes="cscccccccscccsccccccc" />
      <path
         style="fill:#d86e55;fill-opacity:1;fill-rule:evenodd;stroke:none;stroke-width:1"
         inkscape:connector-curvature="0"
         id="path20-7-2-6-5"
         d="m 425.29358,137.08932 c 0.39974,-3.15719 -1.96725,-5.63161 -3.4345,-6.80568 -1.68422,1.9552 -1.93633,7.07062 0.71659,9.21873 -1.47539,1.31594 -4.58741,2.51234 -7.77648,2.51874 l -38.81923,0.078 c -0.30333,3.32952 0.28708,6.39357 1.6272,9.01503 l 0.44323,0.80662 c 0.28059,0.474 0.5869,0.93147 0.9179,1.37164 l 2.6e-4,0 c 1.5959,0.0995 3.06756,0.13185 4.41368,0.0995 l 5.1e-4,-1e-5 c 2.64514,-0.064 4.80309,-0.38044 6.43808,-0.95073 0.24342,-0.0852 0.50916,0.0435 0.59385,0.28669 0.0844,0.24317 -0.0438,0.50916 -0.28694,0.59385 -0.21718,0.0759 -0.4439,0.14689 -0.67808,0.21405 -2.6e-4,2.6e-4 -3.9e-4,2.7e-4 -5.1e-4,2.6e-4 -1.28751,0.37029 -2.66821,0.62078 -4.45037,0.73431 0.10583,0.001 -0.11018,0.0162 -0.1107,0.0162 -0.0605,0.004 -0.13696,0.0126 -0.19773,0.0161 -0.70133,0.0408 -1.45835,0.0506 -2.23238,0.0521 -0.84639,0.002 -1.68045,-0.0126 -2.61268,-0.0581 l -0.0237,0.0157 c 3.24172,3.62882 8.30356,5.79914 14.64258,5.78641 13.41679,-0.0269 24.78486,-5.99691 29.79722,-19.35945 3.5758,0.35949 7.00999,-0.55894 8.56686,-3.61289 -2.49235,-1.43182 -5.69312,-0.96731 -7.53468,-0.0371" />
      <path
         style="fill:#d5eef2;fill-rule:evenodd;stroke:none;stroke-width:1"
         inkscape:connector-curvature="0"
         id="path46-6-2-5-2"
         d="m 392.24235,149.63552 c 0.79952,-0.002 1.44945,0.64598 1.45106,1.4455 0.002,0.79952 -0.64572,1.4492 -1.44524,1.4508 -0.80004,0.002 -1.44972,-0.64546 -1.45132,-1.44498 -0.002,-0.79953 0.64546,-1.44972 1.4455,-1.45132" />
      <path
         style="fill:#3a4e55;fill-rule:evenodd;stroke:none;stroke-width:1"
         inkscape:connector-curvature="0"
         id="path48-0-8-6-5"
         d="m 392.24317,150.04648 c 0.13235,-2.7e-4 0.25884,0.0245 0.37557,0.0693 -0.12628,0.0734 -0.21149,0.21055 -0.21118,0.3671 4.6e-4,0.23381 0.19037,0.42269 0.42417,0.42222 0.16017,-3.2e-4 0.29903,-0.0897 0.37087,-0.22091 0.051,0.12221 0.0793,0.25657 0.0796,0.39767 0.001,0.57267 -0.46218,1.03813 -1.03485,1.03928 -0.57293,0.001 -1.03838,-0.46244 -1.03953,-1.03511 -0.001,-0.57318 0.46244,-1.03838 1.03536,-1.03953" />
      <path
         style="fill:#c0dbe1;fill-rule:evenodd;stroke:none;stroke-width:1"
         inkscape:connector-curvature="0"
         id="path52-2-9-9-4"
         d="m 396.11286,160.06433 c -3.59007,-1.69484 -5.56327,-4.00449 -6.66372,-6.52831 -1.33152,0.38325 -2.9324,0.62928 -4.7931,0.73756 -0.70083,0.0408 -1.438,0.0624 -2.21203,0.0639 -0.89196,0.002 -1.83213,-0.0226 -2.81896,-0.0731 3.29559,3.28057 7.34695,5.80337 14.83913,5.83441 0.5531,-0.001 1.10232,-0.013 1.64868,-0.0345" />
      <path
         style="fill:#d5eef2;fill-rule:evenodd;stroke:none;stroke-width:1"
         inkscape:connector-curvature="0"
         id="path54-6-7-3-7"
         d="m 390.78609,155.86393 c -0.49754,-0.67261 -0.98076,-1.51803 -1.33618,-2.32817 -1.33152,0.38299 -2.93291,0.62954 -4.79387,0.73757 1.27985,0.69164 3.10936,1.33067 6.13005,1.5906" />
    </g>
    <g
       transform="matrix(0.93706381,0,0,0.93706381,-175.02019,-91.665603)"
       id="g5228">
      <path
         style="fill:#3a4e55;fill-rule:evenodd;stroke:none;stroke-width:1"
         inkscape:connector-curvature="0"
         id="path18-6-9-7-4-4"
         d="m 493.4364,184.11208 3.06265,-0.006 c 1.41442,-0.003 2.86851,-0.25759 4.20708,-0.71424 0.65745,-0.22432 1.39559,-0.53634 2.04395,-0.92826 -0.85713,-1.11479 -1.29642,-2.52318 -1.42795,-3.91237 -0.17812,-1.88966 0.19803,-4.35028 1.4743,-5.83191 l 0.63504,-0.73771 0.76007,0.60823 c 1.91318,1.53083 3.524,3.67228 3.81216,6.11638 2.29884,-0.68107 4.99952,-0.52658 7.02938,0.6394 l 0.83268,0.47831 -0.43602,0.8555 c -1.70795,3.34985 -5.29046,4.39347 -8.79534,4.21717 -5.21792,13.07198 -16.62258,19.27892 -30.46604,19.30672 -7.15193,0.0144 -13.71906,-2.64629 -17.46832,-8.98398 l -0.0612,-0.10365 -0.54683,-1.1064 c -1.26862,-2.79051 -1.69422,-5.84949 -1.41583,-8.9073 l 0.0836,-0.91608 5.17952,-0.0104 c 5.24386,-3.5e-4 28.7455,-0.20249 31.49708,-0.0633 z"
         sodipodi:nodetypes="cscccccccscccsccccccc" />
      <path
         style="fill:#d4c653;fill-opacity:1;fill-rule:evenodd;stroke:none;stroke-width:1"
         inkscape:connector-curvature="0"
         id="path20-7-2-6-5-3"
         d="m 506.99547,180.18378 c 0.39974,-3.15719 -1.96725,-5.63161 -3.4345,-6.80568 -1.68422,1.9552 -1.93633,7.07062 0.71659,9.21873 -1.47539,1.31594 -4.58741,2.51234 -7.77648,2.51874 l -38.81923,0.078 c -0.30333,3.32952 0.28708,6.39357 1.6272,9.01503 l 0.44323,0.80662 c 0.28059,0.474 0.5869,0.93147 0.9179,1.37164 l 2.6e-4,0 c 1.5959,0.0995 3.06756,0.13185 4.41368,0.0995 l 5.1e-4,-1e-5 c 2.64514,-0.064 4.80309,-0.38044 6.43808,-0.95073 0.24342,-0.0852 0.50916,0.0435 0.59385,0.28669 0.0844,0.24317 -0.0438,0.50916 -0.28694,0.59385 -0.21718,0.0759 -0.4439,0.14689 -0.67808,0.21405 -2.6e-4,2.6e-4 -3.9e-4,2.7e-4 -5.1e-4,2.6e-4 -1.28751,0.37029 -2.66821,0.62078 -4.45037,0.73431 0.10583,0.001 -0.11018,0.0162 -0.1107,0.0162 -0.0605,0.004 -0.13696,0.0126 -0.19773,0.0161 -0.70133,0.0408 -1.45835,0.0506 -2.23238,0.0521 -0.84639,0.002 -1.68045,-0.0126 -2.61268,-0.0581 l -0.0237,0.0157 c 3.24172,3.62882 8.30356,5.79914 14.64258,5.78641 13.41679,-0.0269 24.78486,-5.99691 29.79722,-19.35945 3.5758,0.35949 7.00999,-0.55894 8.56686,-3.61289 -2.49235,-1.43182 -5.69312,-0.96731 -7.53468,-0.0371" />
      <path
         style="fill:#d5eef2;fill-rule:evenodd;stroke:none;stroke-width:1"
         inkscape:connector-curvature="0"
         id="path46-6-2-5-2-0"
         d="m 473.94424,192.72998 c 0.79952,-0.002 1.44945,0.64598 1.45106,1.4455 0.002,0.79952 -0.64572,1.4492 -1.44524,1.4508 -0.80004,0.002 -1.44972,-0.64546 -1.45132,-1.44498 -0.002,-0.79953 0.64546,-1.44972 1.4455,-1.45132" />
      <path
         style="fill:#3a4e55;fill-rule:evenodd;stroke:none;stroke-width:1"
         inkscape:connector-curvature="0"
         id="path48-0-8-6-5-7"
         d="m 473.94506,193.14094 c 0.13235,-2.7e-4 0.25884,0.0245 0.37557,0.0693 -0.12628,0.0734 -0.21149,0.21055 -0.21118,0.3671 4.6e-4,0.23381 0.19037,0.42269 0.42417,0.42222 0.16017,-3.2e-4 0.29903,-0.0897 0.37087,-0.22091 0.051,0.12221 0.0793,0.25657 0.0796,0.39767 0.001,0.57267 -0.46218,1.03813 -1.03485,1.03928 -0.57293,0.001 -1.03838,-0.46244 -1.03953,-1.03511 -0.001,-0.57318 0.46244,-1.03838 1.03536,-1.03953" />
      <path
         style="fill:#c0dbe1;fill-rule:evenodd;stroke:none;stroke-width:1"
         inkscape:connector-curvature="0"
         id="path52-2-9-9-4-8"
         d="m 477.81475,203.15879 c -3.59007,-1.69484 -5.56327,-4.00449 -6.66372,-6.52831 -1.33152,0.38325 -2.9324,0.62928 -4.7931,0.73756 -0.70083,0.0408 -1.438,0.0624 -2.21203,0.0639 -0.89196,0.002 -1.83213,-0.0226 -2.81896,-0.0731 3.29559,3.28057 7.34695,5.80337 14.83913,5.83441 0.5531,-0.001 1.10232,-0.013 1.64868,-0.0345" />
      <path
         style="fill:#d5eef2;fill-rule:evenodd;stroke:none;stroke-width:1"
         inkscape:connector-curvature="0"
         id="path54-6-7-3-7-6"
         d="m 472.48798,198.95839 c -0.49754,-0.67261 -0.98076,-1.51803 -1.33618,-2.32817 -1.33152,0.38299 -2.93291,0.62954 -4.79387,0.73757 1.27985,0.69164 3.10936,1.33067 6.13005,1.5906" />
    </g>
    <g
       transform="matrix(0.93706381,0,0,0.93706381,-175.02019,-91.665603)"
       id="g5236">
      <path
         style="fill:#3a4e55;fill-rule:evenodd;stroke:none;stroke-width:1"
         inkscape:connector-curvature="0"
         id="path18-6-9-7-4-8"
         d="m 500.12195,245.85524 3.54771,-0.007 c 1.63844,-0.003 3.32282,-0.29839 4.87341,-0.82737 0.76157,-0.25984 1.61661,-0.62128 2.36766,-1.07528 -0.99288,-1.29134 -1.50174,-2.9228 -1.65411,-4.532 -0.20633,-2.18895 0.2294,-5.03928 1.7078,-6.75557 l 0.73563,-0.85455 0.88044,0.70456 c 2.21619,1.77328 4.08214,4.2539 4.41593,7.08509 2.66294,-0.78893 5.79134,-0.60998 8.1427,0.74068 l 0.96456,0.55405 -0.50509,0.991 c -1.97844,3.88041 -6.12835,5.08931 -10.18833,4.88509 -6.04434,15.14232 -19.25528,22.33232 -35.29126,22.36452 -8.28466,0.0166 -15.89189,-3.06541 -20.23496,-10.40687 l -0.0709,-0.12006 -0.63343,-1.28163 c -1.46955,-3.23248 -1.96256,-6.77593 -1.64008,-10.31804 l 0.0969,-1.06117 5.99985,-0.0121 c 6.07439,-4.1e-4 33.29823,-0.23455 36.4856,-0.0733 z"
         sodipodi:nodetypes="cscccccccscccsccccccc" />
      <path
         style="fill:#b46ecb;fill-opacity:1;fill-rule:evenodd;stroke:none;stroke-width:1"
         inkscape:connector-curvature="0"
         id="path20-7-2-6-5-4"
         d="m 515.82851,241.30478 c 0.46305,-3.65723 -2.27882,-6.52355 -3.97846,-7.88357 -1.95096,2.26487 -2.24301,8.19046 0.83008,10.6788 -1.70905,1.52436 -5.31396,2.91024 -9.00812,2.91766 l -44.96742,0.0903 c -0.35137,3.85686 0.33255,7.40619 1.88492,10.44283 l 0.51342,0.93437 c 0.32504,0.54908 0.67986,1.079 1.06328,1.58889 l 3e-4,0 c 1.84866,0.1153 3.5534,0.15274 5.11272,0.1153 l 6e-4,0 c 3.06407,-0.0742 5.5638,-0.4407 7.45774,-1.10131 0.28197,-0.0987 0.5898,0.0504 0.6879,0.33209 0.0978,0.28168 -0.0507,0.5898 -0.33239,0.6879 -0.25157,0.0879 -0.51419,0.17016 -0.78547,0.24796 -3e-4,3e-4 -4.5e-4,3.1e-4 -5.9e-4,3e-4 -1.49143,0.42894 -3.09081,0.7191 -5.15523,0.85061 0.1226,0.002 -0.12762,0.0187 -0.12822,0.0188 -0.0701,0.004 -0.15866,0.0146 -0.22905,0.0186 -0.81241,0.0473 -1.68932,0.0586 -2.58595,0.0604 -0.98043,0.002 -1.94659,-0.0146 -3.02647,-0.0673 l -0.0274,0.0183 c 3.75514,4.20356 9.61868,6.71761 16.96168,6.70286 15.54174,-0.0312 28.71028,-6.9467 34.51651,-22.4256 4.14214,0.41643 8.12023,-0.64747 9.92367,-4.1851 -2.88708,-1.65859 -6.5948,-1.12051 -8.72802,-0.043" />
      <path
         style="fill:#d5eef2;fill-rule:evenodd;stroke:none;stroke-width:1"
         inkscape:connector-curvature="0"
         id="path46-6-2-5-2-3"
         d="m 477.54261,255.83804 c 0.92616,-0.002 1.67903,0.74829 1.68089,1.67444 0.002,0.92616 -0.74799,1.67873 -1.67415,1.68059 -0.92674,0.002 -1.67932,-0.7477 -1.68117,-1.67385 -0.002,-0.92615 0.74769,-1.67932 1.67443,-1.68118" />
      <path
         style="fill:#3a4e55;fill-rule:evenodd;stroke:none;stroke-width:1"
         inkscape:connector-curvature="0"
         id="path48-0-8-6-5-1"
         d="m 477.54357,256.31409 c 0.15331,-3.1e-4 0.29983,0.0283 0.43505,0.0803 -0.14628,0.085 -0.24499,0.24389 -0.24462,0.42524 5.2e-4,0.27084 0.22051,0.48963 0.49134,0.48909 0.18554,-3.8e-4 0.3464,-0.1039 0.42961,-0.25589 0.0591,0.14156 0.0919,0.2972 0.0922,0.46065 0.001,0.66337 -0.53538,1.20254 -1.19875,1.20387 -0.66367,10e-4 -1.20284,-0.53567 -1.20417,-1.19904 -10e-4,-0.66397 0.53567,-1.20284 1.19934,-1.20418" />
      <path
         style="fill:#c0dbe1;fill-rule:evenodd;stroke:none;stroke-width:1"
         inkscape:connector-curvature="0"
         id="path52-2-9-9-4-4"
         d="m 482.02614,267.91857 c -4.15866,-1.96327 -6.44438,-4.63871 -7.71913,-7.56227 -1.5424,0.44396 -3.39682,0.72896 -5.55223,0.85439 -0.81182,0.0473 -1.66574,0.0722 -2.56236,0.074 -1.03324,0.002 -2.1223,-0.0262 -3.26543,-0.0847 3.81755,3.80016 8.51056,6.72252 17.18935,6.75848 0.6407,-10e-4 1.2769,-0.0151 1.9098,-0.0399" />
      <path
         style="fill:#d5eef2;fill-rule:evenodd;stroke:none;stroke-width:1"
         inkscape:connector-curvature="0"
         id="path54-6-7-3-7-9"
         d="m 475.85572,263.05291 c -0.57634,-0.77914 -1.13609,-1.75845 -1.54781,-2.69691 -1.5424,0.44366 -3.39742,0.72926 -5.55313,0.85439 1.48256,0.80118 3.60183,1.54143 7.10094,1.84252" />
    </g>
    <rect
       x="61.596672"
       y="165.81326"
       width="301.08588"
       height="15.567442"
       id="rect26"
       style="fill:#dec5ae" />
  </g>
  <text
     xml:space="preserve"
     style="font-style:normal;font-weight:normal;font-size:40px;line-height:125%;font-family:sans-serif;letter-spacing:0px;word-spacing:0px;fill:#000000;fill-opacity:1;stroke:none;stroke-width:1px;stroke-linecap:butt;stroke-linejoin:miter;stroke-opacity:1"
     x="15.870664"
     y="169.18968"
     id="text3604"
     sodipodi:linespacing="125%"><tspan
       sodipodi:role="line"
       id="tspan3606"
       x="15.870664"
       y="169.18968"
       style="font-style:italic;font-variant:normal;font-weight:200;font-stretch:normal;font-size:35px;font-family:Lato;-inkscape-font-specification:'Lato Ultra-Light Italic'">Dockershelf</tspan></text>
</svg>
