<?xml version="1.0" encoding="UTF-8" standalone="no"?>
<!-- Created with Inkscape (http://www.inkscape.org/) -->

<svg
   xmlns:dc="http://purl.org/dc/elements/1.1/"
   xmlns:cc="http://creativecommons.org/ns#"
   xmlns:rdf="http://www.w3.org/1999/02/22-rdf-syntax-ns#"
   xmlns:svg="http://www.w3.org/2000/svg"
   xmlns="http://www.w3.org/2000/svg"
   xmlns:sodipodi="http://sodipodi.sourceforge.net/DTD/sodipodi-0.dtd"
   xmlns:inkscape="http://www.inkscape.org/namespaces/inkscape"
   width="2048"
   height="512"
   id="svg2"
   version="1.1"
   inkscape:version="0.92.4 (5da689c313, 2019-01-14)"
   sodipodi:docname="promo.svg"
   inkscape:export-filename="/home/luisalejandro/Projects/CollageLabs/promo.png"
   inkscape:export-xdpi="96"
   inkscape:export-ydpi="96">
  <sodipodi:namedview
     id="base"
     pagecolor="#ffffff"
     bordercolor="#666666"
     borderopacity="1.0"
     inkscape:pageopacity="1"
     inkscape:pageshadow="2"
     inkscape:zoom="0.45192705"
     inkscape:cx="869.07228"
     inkscape:cy="240.33382"
     inkscape:document-units="px"
     inkscape:current-layer="svg2"
     showgrid="false"
     inkscape:window-width="1920"
     inkscape:window-height="995"
     inkscape:window-x="0"
     inkscape:window-y="48"
     inkscape:window-maximized="1"
     inkscape:object-paths="false"
     inkscape:snap-intersection-paths="false"
     inkscape:object-nodes="true"
     inkscape:snap-smooth-nodes="true"
     inkscape:snap-nodes="true"
     showguides="true"
     inkscape:guide-bbox="true"
     inkscape:lockguides="false" />
  <defs
     id="defs4" />
  <metadata
     id="metadata7">
    <rdf:RDF>
      <cc:Work
         rdf:about="">
        <dc:format>image/svg+xml</dc:format>
        <dc:type
           rdf:resource="http://purl.org/dc/dcmitype/StillImage" />
        <dc:title></dc:title>
      </cc:Work>
    </rdf:RDF>
  </metadata>
  <g
     transform="translate(0,-610.51969)"
     inkscape:label="Livello 1"
     inkscape:groupmode="layer"
     id="layer1" />
  <g
     transform="matrix(1.1,0,0,0.44444,101.4198,239.35202)"
     id="g2036">
    <g
       transform="matrix(1.0526,0,0,1.2857,-1.3474133,-14.324267)"
       style="opacity:0.4"
       id="g3712" />
  </g>
  <g
     id="g3541"
     transform="translate(103.9798,212.56695)" />
  <g
     id="g3536"
     transform="translate(103.9798,212.56695)" />
  <g
     transform="translate(-645.88727,-411.69958)"
     id="g4076">
    <g
       id="g4038"
       transform="translate(-988.44542,730.01011)" />
  </g>
  <g
     aria-label="L"
     style="font-style:normal;font-variant:normal;font-weight:normal;font-stretch:normal;font-size:400px;line-height:1.25;font-family:Devonshire;-inkscape-font-specification:'Devonshire, Normal';font-variant-ligatures:normal;font-variant-caps:normal;font-variant-numeric:normal;font-feature-settings:normal;text-align:start;letter-spacing:0px;word-spacing:0px;writing-mode:lr-tb;text-anchor:start;fill:#2f4047;fill-opacity:1;stroke:none"
     id="text3839"
     transform="matrix(1.3566899,-0.00504995,0.00550305,1.2449875,1041.1846,-229.00677)" />
  <text
     xml:space="preserve"
     style="font-style:normal;font-weight:normal;font-size:40px;line-height:1.25;font-family:sans-serif;letter-spacing:0px;word-spacing:0px;fill:#000000;fill-opacity:1;stroke:none"
     x="-291.02454"
     y="-827.33875"
     id="text3843"><tspan
       sodipodi:role="line"
       id="tspan3841"
       x="-291.02454"
       y="-791.94812" /></text>
  <rect
     style="fill:#d8d7d2;fill-opacity:1;stroke:none;stroke-width:1.76614833"
     id="rect4154"
     width="204.87318"
     height="204.87318"
     x="250.52228"
     y="153.96512"
     ry="102.43659" />
  <path
     style="fill:#e5616b;fill-opacity:1;fill-rule:nonzero;stroke:none;stroke-width:0.69194132"
     d="m 347.33678,134.48209 c -25.23563,1.43859 -50.21409,10.49862 -71.1265,27.58598 -52.31934,42.74963 -59.38108,119.41016 -15.77233,171.22393 43.60874,51.81374 121.37566,59.16223 173.695,16.41262 20.92345,-17.09637 34.58622,-39.6229 40.68772,-63.80757 0.25391,-1.81326 0.50929,-18.39708 -18.84757,-20.22608 -22.29404,-2.10578 -39.50832,-3.73263 -61.41005,-5.80236 0,0 -11.91006,-1.1998 -27.78067,11.76792 -8.72102,7.12587 -21.68042,5.90136 -28.94946,-2.73537 -7.26904,-8.63673 -6.092,-21.41188 2.62902,-28.53772 0,0 15.61818,-11.05023 16.87758,-24.72248 1.87143,-20.30527 3.8651,-41.97555 5.57622,-60.53583 0,0 3.29048,-19.96995 -15.57896,-20.62304 z"
     id="path4871"
     inkscape:connector-curvature="0"
     sodipodi:nodetypes="csssccccscccc" />
  <path
     style="fill:#fcd67c;fill-opacity:1;fill-rule:nonzero;stroke:none;stroke-width:0.69517779"
     d="m 353.01352,153.56341 c -23.00507,-0.003 -46.11095,7.67369 -65.16192,23.42474 -43.54618,36.00344 -49.42339,100.5645 -13.12713,144.20169 36.29623,43.63721 101.02169,49.82599 144.5679,13.82256 21.7725,-18.00124 34.12779,-43.14331 36.50481,-69.23871 l -20.44541,-1.95487 -20.4454,-1.95425 -20.44361,-1.95487 c 0,0 -11.8954,-1.21255 -27.74648,11.8929 -8.71027,7.20156 -21.65371,5.96405 -28.9138,-2.76442 -7.26009,-8.72846 -6.0845,-21.63929 2.62578,-28.84081 0,0 15.59894,-11.16763 16.8568,-24.98506 l 1.40095,-15.38582 c 0.14768,-1.62227 0.29987,-3.29796 0.45532,-5.00531 0.45562,-5.01728 0.93899,-10.31656 1.39974,-15.37806 l 0.45708,-5.01608 1.1626,-12.77494 c 0.21205,-2.32959 0.38529,-4.23333 0.5057,-5.55638 l 0.18796,-2.0622 c -3.27024,-0.31249 -6.55447,-0.46984 -9.84089,-0.47011 z"
     id="path3061-5-2"
     inkscape:connector-curvature="0" />
  <path
     style="fill:#15c68b;fill-opacity:1;fill-rule:nonzero;stroke:none;stroke-width:0.69006991"
     d="m 353.08451,174.65329 c -18.26877,-0.003 -36.6165,6.09305 -51.74611,18.60198 -34.58003,28.59024 -39.24763,79.86143 -10.42479,114.51364 28.82284,34.65217 80.22445,39.56712 114.80448,10.9769 17.29098,-14.29594 27.10411,-34.26034 28.9892,-54.98387 l -20.2952,-1.94049 -20.29344,-1.93993 c 0,0 -11.80802,-1.20363 -27.54265,11.8055 -8.64629,7.14863 -21.49466,5.92021 -28.70141,-2.74407 -7.20676,-8.66432 -6.0398,-21.48023 2.60649,-28.62889 0,0 15.48436,-11.08555 16.73298,-24.80144 l 1.39004,-15.27336 c 0.1466,-1.61035 0.29826,-3.27369 0.45256,-4.96849 0.45228,-4.98038 0.9321,-10.24017 1.38947,-15.26446 l 0.45373,-4.97922 c -2.59698,-0.24848 -5.20552,-0.37337 -7.81535,-0.3738 z"
     id="path3063-5-9"
     inkscape:connector-curvature="0" />
  <path
     style="fill:#2197e2;fill-opacity:1;fill-rule:nonzero;stroke:none;stroke-width:0.69291353"
     d="m 353.15306,194.7389 c -13.7582,-0.003 -27.57591,4.58817 -38.96952,14.00823 -26.0422,21.53128 -29.55699,60.14274 -7.85052,86.23927 21.70646,26.09653 60.41571,29.79742 86.4579,8.26617 13.02128,-10.76581 20.4111,-25.80036 21.83076,-41.40723 l -20.37647,-1.9485 c 0,0 -11.85727,-1.20863 -27.65675,11.85411 -8.68192,7.17809 -21.58264,5.94464 -28.8191,-2.75538 -7.23646,-8.70001 -6.06529,-21.56815 2.61664,-28.74621 0,0 15.54876,-11.13184 16.80252,-24.90424 l 1.39578,-15.33571 c 0.1472,-1.61699 0.29949,-3.28718 0.45443,-4.98897 -1.95579,-0.18713 -3.92022,-0.2812 -5.88567,-0.28154 z"
     id="path3065-2-4"
     inkscape:connector-curvature="0" />
  <path
     id="path3067-3"
     style="fill:#405761;fill-opacity:1;fill-rule:nonzero;stroke:none;stroke-width:0.69857544"
     d="m 321.75213,282.20378 c 14.58988,17.54065 40.60559,20.02801 58.1097,5.55585 8.75126,-7.23541 13.71978,-17.3418 14.67424,-27.83055 0,0 -11.95397,-1.21857 -27.88253,11.95092 -8.75285,7.23674 -21.75925,5.99319 -29.05485,-2.77793 -7.29559,-8.77111 -6.11458,-21.74462 2.63827,-28.98133 0,0 15.67547,-11.22226 16.93947,-25.1072 -10.51528,-1.00575 -21.39649,1.99215 -30.14775,9.22757 -17.50412,14.47212 -19.86642,40.42202 -5.27655,57.96267"
     inkscape:connector-curvature="0" />
  <g
     aria-label="Collage"
     style="font-style:normal;font-weight:normal;font-size:40px;line-height:1.25;font-family:sans-serif;letter-spacing:0px;word-spacing:0px;fill:#405761;fill-opacity:1;stroke:none"
     id="text829"
     transform="matrix(0.27003983,0,0,0.27003983,211.32187,117.73961)">
    <path
       d="m 775.94707,438.43195 q -0.45573,2.73437 -1.59505,3.87369 -1.13932,1.13933 -22.33073,5.01302 -21.19141,3.8737 -42.83854,3.8737 -35.54687,0 -54.45963,-23.01432 -18.91276,-23.01432 -18.91276,-62.66276 0,-70.41015 16.86197,-163.60677 8.88672,-50.1302 21.875,-70.41015 13.67188,-21.19141 32.8125,-29.6224 23.92578,-10.481767 51.04167,-10.481767 27.34375,0 36.45833,1.595052 9.34245,1.367188 10.48177,1.595052 2.96224,0.911459 2.96224,5.696613 l -5.24088,42.38281 q -0.91146,5.92448 -4.5573,5.92448 -3.64583,0 -16.86197,-1.82291 -13.21615,-2.05079 -21.41927,-2.05079 -21.875,0 -33.26823,11.16537 -11.39323,10.9375 -17.08985,42.38281 -5.46875,31.21745 -10.70963,84.08203 -5.24089,52.63672 -5.24089,80.66406 0,33.04036 29.16667,33.04036 8.43099,0 29.39453,-2.73437 20.96354,-2.96224 23.92578,-2.96224 4.78516,0 4.78516,5.69661 z"
       style="font-style:normal;font-variant:normal;font-weight:normal;font-stretch:normal;font-size:466.66665649px;font-family:'Contrail One';-inkscape-font-specification:'Contrail One, Normal';font-variant-ligatures:normal;font-variant-caps:normal;font-variant-numeric:normal;font-feature-settings:normal;text-align:start;letter-spacing:0px;writing-mode:lr-tb;text-anchor:start;fill:#405761;fill-opacity:1"
       id="path842"
       inkscape:connector-curvature="0" />
    <path
       d="m 911.75437,451.19236 q -40.33203,0 -59.24479,-24.15364 -18.68489,-24.38151 -18.68489,-70.86589 0,-21.64713 4.78515,-56.51041 4.78516,-34.86328 8.88672,-50.58594 4.10156,-15.95052 11.62109,-30.98958 7.51954,-15.26693 17.77344,-25.0651 22.55859,-21.875 61.06771,-21.875 54.6875,0 70.8659,40.10416 8.6588,21.41927 8.6588,51.95313 0,30.30598 -4.7851,62.89062 -4.5573,32.58463 -8.6589,48.30729 -4.10154,15.49479 -11.62107,30.53385 -7.29166,14.8112 -17.54557,24.60938 -22.55859,21.64713 -63.11849,21.64713 z m 40.33203,-99.80468 q 2.50651,-12.07683 6.38021,-45.11719 4.10156,-33.26823 4.10156,-49.21875 0,-38.73698 -28.02734,-38.73698 -13.21615,0 -21.875,12.53256 -8.43099,12.53255 -13.67187,41.69921 -10.48178,59.24479 -10.48178,96.15886 0,36.91406 27.79948,36.91406 13.21615,0 21.875,-12.53256 8.88672,-12.76041 13.89974,-41.69921 z"
       style="font-style:normal;font-variant:normal;font-weight:normal;font-stretch:normal;font-size:466.66665649px;font-family:'Contrail One';-inkscape-font-specification:'Contrail One, Normal';font-variant-ligatures:normal;font-variant-caps:normal;font-variant-numeric:normal;font-feature-settings:normal;text-align:start;letter-spacing:0px;writing-mode:lr-tb;text-anchor:start;fill:#405761;fill-opacity:1"
       id="path844"
       inkscape:connector-curvature="0" />
    <path
       d="m 1160.1267,69.291329 -41.927,372.330721 q -0.4558,3.1901 -1.5951,4.55729 -1.1393,1.36719 -4.3294,1.59505 l -45.8008,1.82292 q -5.013,-0.45573 -5.013,-4.32943 l 42.1549,-374.381499 q 0.4558,-3.190104 1.5951,-4.557291 1.1393,-1.367188 4.3294,-1.595052 l 44.6615,-1.595053 q 5.9244,0.683594 5.9244,6.152344 z"
       style="font-style:normal;font-variant:normal;font-weight:normal;font-stretch:normal;font-size:466.66665649px;font-family:'Contrail One';-inkscape-font-specification:'Contrail One, Normal';font-variant-ligatures:normal;font-variant-caps:normal;font-variant-numeric:normal;font-feature-settings:normal;text-align:start;letter-spacing:0px;writing-mode:lr-tb;text-anchor:start;fill:#405761;fill-opacity:1"
       id="path846"
       inkscape:connector-curvature="0" />
    <path
       d="M 1284.0851,69.291329 1242.158,441.62205 q -0.4558,3.1901 -1.5951,4.55729 -1.1393,1.36719 -4.3294,1.59505 l -45.8008,1.82292 q -5.013,-0.45573 -5.013,-4.32943 l 42.1549,-374.381499 q 0.4558,-3.190104 1.5951,-4.557291 1.1393,-1.367188 4.3294,-1.595052 l 44.6615,-1.595053 q 5.9245,0.683594 5.9245,6.152344 z"
       style="font-style:normal;font-variant:normal;font-weight:normal;font-stretch:normal;font-size:466.66665649px;font-family:'Contrail One';-inkscape-font-specification:'Contrail One, Normal';font-variant-ligatures:normal;font-variant-caps:normal;font-variant-numeric:normal;font-feature-settings:normal;text-align:start;letter-spacing:0px;writing-mode:lr-tb;text-anchor:start;fill:#405761;fill-opacity:1"
       id="path848"
       inkscape:connector-curvature="0" />
    <path
       d="m 1511.494,179.12206 -29.6224,262.72785 q -0.6836,5.92448 -5.9245,6.15235 l -46.0287,1.59505 q -4.7851,-0.45573 -4.7851,-4.32943 l 4.3294,-30.98958 q -10.4818,17.77344 -23.0143,27.34375 -12.3047,9.57031 -27.7995,9.57031 -15.4948,0 -26.4323,-5.24088 -10.9375,-5.46875 -18.0013,-14.12761 -6.8359,-8.88672 -11.1654,-21.1914 -7.9752,-21.875 -7.9752,-59.70052 0,-38.05339 5.013,-64.48568 5.2409,-26.43229 9.1146,-40.10416 3.8737,-13.89974 10.2539,-28.48308 6.6081,-14.58333 14.8112,-24.38151 18.6849,-22.33072 47.168,-22.33072 21.1914,0 32.3567,10.2539 11.1654,10.02604 18.6849,29.85026 l 2.7344,-30.98958 q 0.4557,-5.01302 5.6966,-5.46875 l 44.6615,-1.59505 q 5.9245,0.45573 5.9245,5.92448 z m -138.9974,165.20182 q 0,54.45963 29.1666,54.45963 12.7604,0 20.7357,-11.62109 7.9753,-11.84896 13.6719,-47.16797 5.9245,-35.31901 5.9245,-51.4974 0,-16.17838 -0.2279,-20.50781 -0.2279,-4.32943 -0.9115,-11.39323 -0.6836,-7.29166 -2.5065,-12.07682 -1.8229,-5.01302 -4.7851,-10.02604 -5.9245,-9.79818 -19.1407,-9.79818 -13.2161,0 -20.9635,11.84896 -7.7474,11.62109 -12.0768,31.21745 -8.8867,41.92708 -8.8867,76.5625 z"
       style="font-style:normal;font-variant:normal;font-weight:normal;font-stretch:normal;font-size:466.66665649px;font-family:'Contrail One';-inkscape-font-specification:'Contrail One, Normal';font-variant-ligatures:normal;font-variant-caps:normal;font-variant-numeric:normal;font-feature-settings:normal;text-align:start;letter-spacing:0px;writing-mode:lr-tb;text-anchor:start;fill:#405761;fill-opacity:1"
       id="path850"
       inkscape:connector-curvature="0" />
    <path
       d="m 1667.5812,456.88898 5.9245,-48.99089 q -11.3933,20.96354 -24.3815,32.12891 -12.7605,11.16536 -29.1667,11.16536 -16.1784,0 -27.1159,-5.24088 -10.9375,-5.46875 -18.0013,-14.12761 -6.8359,-8.88672 -11.1654,-21.1914 -7.9752,-21.875 -7.9752,-59.70052 0,-38.05339 5.013,-64.48568 5.2409,-26.43229 9.1146,-40.10416 3.8737,-13.89974 10.2539,-28.48308 6.6081,-14.58333 14.8112,-24.38151 18.6849,-22.33072 47.168,-22.33072 20.9635,0 32.1289,10.02604 11.1653,10.02604 18.9127,29.85026 l 2.2787,-30.53386 q 0.4557,-5.46875 5.9245,-5.69661 l 46.0286,-1.59505 q 4.7852,0.68359 4.7852,4.78515 l -30.9896,276.39974 q -6.6081,61.29557 -38.0534,87.27213 -24.8373,20.73568 -66.7643,20.73568 -26.6602,0 -54.0039,-6.15235 -3.8737,-0.68359 -5.2409,-2.05078 -1.3672,-1.13932 -1.3672,-4.55729 l 4.5573,-41.24349 q 0.6836,-6.15234 5.013,-6.15234 2.9622,0 16.6341,4.55729 13.6719,4.55729 30.5339,4.55729 16.8619,0 26.2044,-3.1901 9.5703,-2.96224 15.2669,-10.25391 10.0261,-12.30469 13.6719,-41.01562 z m -54.4596,-112.5651 q 0,54.45963 29.1666,54.45963 12.7604,0 20.7357,-11.62109 7.9753,-11.84896 13.6719,-47.16797 5.9245,-35.31901 5.9245,-51.4974 0,-16.17838 -0.2279,-20.50781 -0.2279,-4.32943 -0.9115,-11.39323 -0.6836,-7.29166 -2.5065,-12.07682 -1.8229,-5.01302 -4.7851,-10.02604 -5.9245,-9.79818 -19.1407,-9.79818 -13.2161,0 -20.9635,11.84896 -7.7474,11.62109 -12.0768,31.21745 -8.8867,41.92708 -8.8867,76.5625 z"
       style="font-style:normal;font-variant:normal;font-weight:normal;font-stretch:normal;font-size:466.66665649px;font-family:'Contrail One';-inkscape-font-specification:'Contrail One, Normal';font-variant-ligatures:normal;font-variant-caps:normal;font-variant-numeric:normal;font-feature-settings:normal;text-align:start;letter-spacing:0px;writing-mode:lr-tb;text-anchor:start;fill:#405761;fill-opacity:1"
       id="path852"
       inkscape:connector-curvature="0" />
    <path
       d="m 1803.6163,406.07518 q -5.2409,-13.67188 -7.2916,-26.88802 -1.823,-13.44401 -1.823,-36.6862 0,-23.24219 5.0131,-57.42188 16.6341,-113.93228 103.4505,-113.93228 33.4961,0 51.2695,23.01432 17.7735,23.01432 17.7735,59.70052 0,36.68619 -4.5573,71.32161 -0.6836,6.15234 -7.0638,6.38021 l -112.5651,3.8737 q -0.2279,3.41797 -0.2279,9.11458 0,25.7487 8.8867,40.78776 9.1146,15.03906 27.3438,15.03906 18.2291,0 33.7239,-5.24088 15.7227,-5.46875 18.4571,-5.46875 2.7343,0 4.7851,1.82291 2.0508,1.82292 2.0508,5.01302 l -4.5573,40.10417 q -0.2279,3.41797 -1.3672,4.55729 -0.9114,0.91146 -3.8737,2.05078 -27.5716,7.97526 -53.0924,7.97526 -25.5209,0 -39.6485,-6.15234 -14.1276,-6.15234 -22.7864,-15.72266 -8.431,-9.79817 -13.8998,-23.24218 z m 49.6745,-127.83203 -2.0508,14.58333 59.4727,-2.96224 q 3.8737,-0.22786 5.013,-1.36719 3.418,-3.41797 3.418,-18.68489 0,-15.49479 -1.1393,-21.64714 -0.9115,-6.38021 -3.418,-12.98828 -5.2409,-14.58333 -18.0013,-14.58333 -12.5326,0 -19.8242,4.32943 -16.1784,10.02604 -23.4701,53.32031 z"
       style="font-style:normal;font-variant:normal;font-weight:normal;font-stretch:normal;font-size:466.66665649px;font-family:'Contrail One';-inkscape-font-specification:'Contrail One, Normal';font-variant-ligatures:normal;font-variant-caps:normal;font-variant-numeric:normal;font-feature-settings:normal;text-align:start;letter-spacing:0px;writing-mode:lr-tb;text-anchor:start;fill:#405761;fill-opacity:1"
       id="path854"
       inkscape:connector-curvature="0" />
  </g>
  <g
     aria-label="Labs"
     style="font-style:normal;font-weight:normal;font-size:40px;line-height:1.25;font-family:sans-serif;letter-spacing:0px;word-spacing:0px;fill:#788890;fill-opacity:1;stroke:none"
     id="text837"
     transform="matrix(0.27003983,0,0,0.27003983,211.32187,117.73961)">
    <path
       d="m 1128.0824,538.37383 -32.5846,289.61588 87.2721,-3.41797 q 5.9245,0.22786 5.9245,5.92448 l -5.9245,47.16796 q -0.6836,5.92448 -5.9244,6.15235 l -140.3646,5.01302 q -4.7852,0 -4.7852,-4.32943 l 38.9649,-344.7591 q 0.4557,-2.73438 1.3671,-3.8737 1.1394,-1.13933 4.3295,-1.36719 l 45.8008,-1.59505 q 5.9244,0.22786 5.9244,5.46875 z"
       style="font-style:normal;font-variant:normal;font-weight:normal;font-stretch:normal;font-size:466.66665649px;font-family:'Contrail One';-inkscape-font-specification:'Contrail One, Normal';font-variant-ligatures:normal;font-variant-caps:normal;font-variant-numeric:normal;font-feature-settings:normal;text-align:start;letter-spacing:0px;writing-mode:lr-tb;text-anchor:start;fill:#788890;fill-opacity:1"
       id="path857"
       inkscape:connector-curvature="0" />
    <path
       d="M 1434.3324,618.35429 1404.71,881.08215 q -0.6836,5.92448 -5.9245,6.15235 l -46.0286,1.59505 q -4.7852,-0.45573 -4.7852,-4.32943 l 4.3295,-30.98958 q -10.4818,17.77344 -23.0143,27.34375 -12.3047,9.57031 -27.7995,9.57031 -15.4948,0 -26.4323,-5.24088 -10.9375,-5.46875 -18.0013,-14.12761 -6.836,-8.88672 -11.1654,-21.1914 -7.9752,-21.875 -7.9752,-59.70052 0,-38.05339 5.013,-64.48568 5.2409,-26.43229 9.1146,-40.10416 3.8737,-13.89974 10.2539,-28.48308 6.608,-14.58333 14.8112,-24.38151 18.6849,-22.33073 47.1679,-22.33073 21.1914,0 32.3568,10.25391 11.1654,10.02604 18.6849,29.85026 l 2.7344,-30.98958 q 0.4557,-5.01302 5.6966,-5.46875 l 44.6614,-1.59505 q 5.9245,0.45572 5.9245,5.92447 z M 1295.335,783.55611 q 0,54.45964 29.1667,54.45964 12.7604,0 20.7357,-11.6211 7.9752,-11.84895 13.6718,-47.16796 5.9245,-35.31901 5.9245,-51.4974 0,-16.17838 -0.2278,-20.50781 -0.2279,-4.32943 -0.9115,-11.39323 -0.6836,-7.29167 -2.5065,-12.07682 -1.8229,-5.01302 -4.7852,-10.02604 -5.9244,-9.79818 -19.1406,-9.79818 -13.2161,0 -20.9635,11.84896 -7.7474,11.62109 -12.0769,31.21745 -8.8867,41.92708 -8.8867,76.56249 z"
       style="font-style:normal;font-variant:normal;font-weight:normal;font-stretch:normal;font-size:466.66665649px;font-family:'Contrail One';-inkscape-font-specification:'Contrail One, Normal';font-variant-ligatures:normal;font-variant-caps:normal;font-variant-numeric:normal;font-feature-settings:normal;text-align:start;letter-spacing:0px;writing-mode:lr-tb;text-anchor:start;fill:#788890;fill-opacity:1"
       id="path859"
       inkscape:connector-curvature="0" />
    <path
       d="m 1571.5069,508.52357 -19.1406,145.60546 q 11.3932,-21.1914 24.3815,-32.35677 13.2161,-11.39323 29.3945,-11.39323 16.4063,0 27.3438,5.46875 10.9375,5.24089 17.7734,14.12761 7.0638,8.65885 11.6211,20.96354 7.7474,21.875 7.7474,59.92838 0,37.82552 -5.2409,64.25781 -5.013,26.4323 -8.8867,40.33203 -3.8737,13.67188 -10.4818,28.25521 -6.3802,14.58334 -14.5833,24.38151 -18.6849,22.33073 -43.9779,22.33073 -25.0651,0 -36.2304,-10.48177 -11.1654,-10.70963 -19.1407,-32.1289 l -2.5065,33.26822 q -0.4557,5.92448 -5.6966,6.15235 l -46.0286,1.59505 q -5.0131,-0.45573 -5.0131,-4.32943 l 42.3829,-374.3815 q 0.4557,-3.1901 1.3671,-4.55729 1.1394,-1.36719 4.3295,-1.59505 l 44.6614,-1.59506 q 5.9245,0.6836 5.9245,6.15235 z m 41.6992,208.72395 q 0,-54.45963 -29.1666,-54.45963 -12.7605,0 -20.7357,11.84896 -7.9753,11.62109 -13.8998,46.9401 -5.6966,35.31901 -5.6966,51.49739 0,16.17839 0.2279,20.50782 0.2279,4.32942 0.9114,11.62109 0.6836,7.0638 2.5066,12.07682 1.8229,4.78516 4.7851,9.57031 5.9245,10.02605 19.1406,10.02605 13.2162,0 20.9636,-11.6211 7.7474,-11.84896 11.8489,-31.44531 9.1146,-41.92708 9.1146,-76.5625 z"
       style="font-style:normal;font-variant:normal;font-weight:normal;font-stretch:normal;font-size:466.66665649px;font-family:'Contrail One';-inkscape-font-specification:'Contrail One, Normal';font-variant-ligatures:normal;font-variant-caps:normal;font-variant-numeric:normal;font-feature-settings:normal;text-align:start;letter-spacing:0px;writing-mode:lr-tb;text-anchor:start;fill:#788890;fill-opacity:1"
       id="path861"
       inkscape:connector-curvature="0" />
    <path
       d="m 1839.0199,665.52226 -25.7487,-1.13932 q -10.9375,0 -17.3177,5.01302 -6.1523,5.01302 -6.1523,14.58333 0,9.34245 3.418,20.73568 4.5572,15.26693 15.7226,35.54687 11.3932,20.27995 15.7227,28.71094 13.2161,26.20443 13.2161,49.90234 0,34.40755 -20.2799,53.09245 -20.0521,18.45703 -61.0677,18.45703 -20.28,0 -32.3568,-2.27864 -12.0768,-2.05079 -13.444,-3.19011 -1.1393,-1.36719 -1.1393,-4.10156 l 5.9244,-42.15495 q 0.4558,-5.69661 3.8737,-5.69661 3.6459,0 13.6719,2.50651 10.026,2.50651 17.5456,2.50651 27.7995,0 27.7995,-22.10287 0,-15.72265 -6.836,-29.39453 -6.6081,-13.67187 -14.5833,-28.2552 -7.7474,-14.58334 -12.0768,-23.24219 -4.3295,-8.88672 -9.1146,-24.38151 -4.5573,-15.49479 -4.5573,-29.16667 0,-31.90104 18.9127,-51.49739 19.1407,-19.59636 55.599,-19.59636 23.4701,0 36.6862,2.27865 5.6966,0.91146 5.6966,5.92448 l -5.013,40.55989 q 0,6.38021 -4.1016,6.38021 z"
       style="font-style:normal;font-variant:normal;font-weight:normal;font-stretch:normal;font-size:466.66665649px;font-family:'Contrail One';-inkscape-font-specification:'Contrail One, Normal';font-variant-ligatures:normal;font-variant-caps:normal;font-variant-numeric:normal;font-feature-settings:normal;text-align:start;letter-spacing:0px;writing-mode:lr-tb;text-anchor:start;fill:#788890;fill-opacity:1"
       id="path863"
       inkscape:connector-curvature="0" />
  </g>
  <path
     style="fill:none;fill-opacity:1;stroke:#000000;stroke-width:2.92862129;stroke-linecap:butt;stroke-linejoin:miter;stroke-miterlimit:4;stroke-dasharray:none;stroke-opacity:1"
     d="M 871.94973,92.372508 956.19359,419.62749"
     id="path4624"
     inkscape:connector-curvature="0" />
  <g
     id="g4673"
     transform="translate(109.84266,-48.208005)">
    <text
       id="text4622"
       y="282.38446"
       x="963.99078"
       style="font-style:normal;font-weight:normal;font-size:40px;line-height:1.25;font-family:sans-serif;letter-spacing:0px;word-spacing:0px;fill:#6c6c6c;fill-opacity:1;stroke:none"
       xml:space="preserve"><tspan
         style="font-style:normal;font-variant:normal;font-weight:normal;font-stretch:normal;font-size:64px;font-family:'Julius Sans One';-inkscape-font-specification:'Julius Sans One';fill:#6c6c6c;fill-opacity:1"
         y="282.38446"
         x="963.99078"
         id="tspan4620"
         sodipodi:role="line">We believe in the</tspan></text>
    <text
       id="text4622-7"
       y="371.15155"
       x="988.88867"
       style="font-style:normal;font-weight:normal;font-size:40px;line-height:1.25;font-family:sans-serif;letter-spacing:0px;word-spacing:0px;fill:#6c6c6c;fill-opacity:1;stroke:none"
       xml:space="preserve"><tspan
         style="font-style:normal;font-variant:normal;font-weight:normal;font-stretch:normal;font-size:64px;font-family:'Julius Sans One';-inkscape-font-specification:'Julius Sans One';fill:#6c6c6c;fill-opacity:1"
         y="371.15155"
         x="988.88867"
         id="tspan4620-6"
         sodipodi:role="line">power of the crowd</tspan></text>
  </g>
</svg>
