<?xml version="1.0" encoding="utf-8"?>
<!-- Generator: Adobe Illustrator 24.1.3, SVG Export Plug-In . SVG Version: 6.00 Build 0)  -->
<svg version="1.1"
	 id="svg2" xmlns:cc="http://creativecommons.org/ns#" xmlns:dc="http://purl.org/dc/elements/1.1/" xmlns:inkscape="http://www.inkscape.org/namespaces/inkscape" xmlns:rdf="http://www.w3.org/1999/02/22-rdf-syntax-ns#" xmlns:sodipodi="http://sodipodi.sourceforge.net/DTD/sodipodi-0.dtd" xmlns:svg="http://www.w3.org/2000/svg"
	 xmlns="http://www.w3.org/2000/svg" xmlns:xlink="http://www.w3.org/1999/xlink" x="0px" y="0px" viewBox="0 0 2048 512"
	 style="enable-background:new 0 0 2048 512;" xml:space="preserve">
<style type="text/css">
	.st0{opacity:0.4;}
	.st1{fill:#D8D7D2;}
	.st2{fill:#E5616B;}
	.st3{fill:#FCD67C;}
	.st4{fill:#15C68B;}
	.st5{fill:#2197E2;}
	.st6{fill:#405761;}
	.st7{fill:#788890;}
	.st8{fill:none;stroke:#000000;stroke-width:2.9286;}
	.st9{enable-background:new    ;}
	.st10{fill:#6C6C6C;}
</style>
<sodipodi:namedview  bordercolor="#666666" borderopacity="1.0" id="base" inkscape:current-layer="svg2" inkscape:cx="869.07228" inkscape:cy="240.33382" inkscape:document-units="px" inkscape:guide-bbox="true" inkscape:lockguides="false" inkscape:object-nodes="true" inkscape:object-paths="false" inkscape:pageopacity="1" inkscape:pageshadow="2" inkscape:snap-intersection-paths="false" inkscape:snap-nodes="true" inkscape:snap-smooth-nodes="true" inkscape:window-height="995" inkscape:window-maximized="1" inkscape:window-width="1920" inkscape:window-x="0" inkscape:window-y="48" inkscape:zoom="0.45192705" pagecolor="#ffffff" showgrid="false" showguides="true">
	</sodipodi:namedview>
<g id="layer1" transform="translate(0,-610.51969)" inkscape:groupmode="layer" inkscape:label="Livello 1">
</g>
<g id="g2036" transform="matrix(1.1,0,0,0.44444,101.4198,239.35202)">
	<g id="g3712" transform="matrix(1.0526,0,0,1.2857,-1.3474133,-14.324267)" class="st0">
	</g>
</g>
<g id="g3541" transform="translate(103.9798,212.56695)">
</g>
<g id="g3536" transform="translate(103.9798,212.56695)">
</g>
<g id="g4076" transform="translate(-645.88727,-411.69958)">
	<g id="g4038" transform="translate(-988.44542,730.01011)">
	</g>
</g>
<g id="text3839" transform="matrix(1.3566899,-0.00504995,0.00550305,1.2449875,1041.1846,-229.00677)">
</g>
<path id="rect4154" class="st1" d="M353,154L353,154c56.6,0,102.4,45.9,102.4,102.4v0c0,56.6-45.9,102.4-102.4,102.4l0,0
	c-56.6,0-102.4-45.9-102.4-102.4v0C250.5,199.8,296.4,154,353,154z"/>
<path id="path4871" inkscape:connector-curvature="0" sodipodi:nodetypes="csssccccscccc" class="st2" d="M347.3,134.5
	c-25.2,1.4-50.2,10.5-71.1,27.6c-52.3,42.7-59.4,119.4-15.8,171.2s121.4,59.2,173.7,16.4c20.9-17.1,34.6-39.6,40.7-63.8
	c0.3-1.8,0.5-18.4-18.8-20.2c-22.3-2.1-39.5-3.7-61.4-5.8c0,0-11.9-1.2-27.8,11.8c-8.7,7.1-21.7,5.9-28.9-2.7
	c-7.3-8.6-6.1-21.4,2.6-28.5c0,0,15.6-11.1,16.9-24.7c1.9-20.3,3.9-42,5.6-60.5C362.9,155.1,366.2,135.1,347.3,134.5L347.3,134.5z"
	/>
<path id="path3061-5-2" inkscape:connector-curvature="0" class="st3" d="M353,153.6c-23,0-46.1,7.7-65.2,23.4
	c-43.5,36-49.4,100.6-13.1,144.2s101,49.8,144.6,13.8c21.8-18,34.1-43.1,36.5-69.2l-20.4-2l-20.4-2l-20.4-2c0,0-11.9-1.2-27.7,11.9
	c-8.7,7.2-21.7,6-28.9-2.8c-7.3-8.7-6.1-21.6,2.6-28.8c0,0,15.6-11.2,16.9-25l1.4-15.4c0.1-1.6,0.3-3.3,0.5-5
	c0.5-5,0.9-10.3,1.4-15.4l0.5-5l1.2-12.8c0.2-2.3,0.4-4.2,0.5-5.6l0.2-2.1C359.6,153.7,356.3,153.6,353,153.6L353,153.6z"/>
<path id="path3063-5-9" inkscape:connector-curvature="0" class="st4" d="M353.1,174.7c-18.3,0-36.6,6.1-51.7,18.6
	c-34.6,28.6-39.2,79.9-10.4,114.5c28.8,34.7,80.2,39.6,114.8,11c17.3-14.3,27.1-34.3,29-55l-20.3-1.9l-20.3-1.9
	c0,0-11.8-1.2-27.5,11.8c-8.6,7.1-21.5,5.9-28.7-2.7c-7.2-8.7-6-21.5,2.6-28.6c0,0,15.5-11.1,16.7-24.8l1.4-15.3
	c0.1-1.6,0.3-3.3,0.5-5c0.5-5,0.9-10.2,1.4-15.3l0.5-5C358.3,174.8,355.7,174.7,353.1,174.7L353.1,174.7z"/>
<path id="path3065-2-4" inkscape:connector-curvature="0" class="st5" d="M353.2,194.7c-13.8,0-27.6,4.6-39,14
	c-26,21.5-29.6,60.1-7.9,86.2s60.4,29.8,86.5,8.3c13-10.8,20.4-25.8,21.8-41.4l-20.4-1.9c0,0-11.9-1.2-27.7,11.9
	c-8.7,7.2-21.6,5.9-28.8-2.8s-6.1-21.6,2.6-28.7c0,0,15.5-11.1,16.8-24.9l1.4-15.3c0.1-1.6,0.3-3.3,0.5-5
	C357.1,194.8,355.1,194.7,353.2,194.7z"/>
<path id="path3067-3" inkscape:connector-curvature="0" class="st6" d="M321.8,282.2c14.6,17.5,40.6,20,58.1,5.6
	c8.8-7.2,13.7-17.3,14.7-27.8c0,0-12-1.2-27.9,12c-8.8,7.2-21.8,6-29.1-2.8s-6.1-21.7,2.6-29c0,0,15.7-11.2,16.9-25.1
	c-10.5-1-21.4,2-30.1,9.2C309.5,238.7,307.2,264.7,321.8,282.2"/>
<g id="text829" transform="matrix(0.27003983,0,0,0.27003983,211.32187,117.73961)">
	<path id="path842" inkscape:connector-curvature="0" class="st6" d="M775.9,438.4c-0.3,1.8-0.8,3.1-1.6,3.9
		c-0.8,0.8-8.2,2.4-22.3,5c-14.1,2.6-28.4,3.9-42.8,3.9c-23.7,0-41.9-7.7-54.5-23s-18.9-36.2-18.9-62.7c0-46.9,5.6-101.5,16.9-163.6
		c5.9-33.4,13.2-56.9,21.9-70.4c9.1-14.1,20.1-24,32.8-29.6c16-7,33-10.5,51-10.5c18.2,0,30.4,0.5,36.5,1.6
		c6.2,0.9,9.7,1.4,10.5,1.6c2,0.6,3,2.5,3,5.7l-5.2,42.4c-0.6,3.9-2.1,5.9-4.6,5.9s-8.1-0.6-16.9-1.8c-8.8-1.4-16-2.1-21.4-2.1
		c-14.6,0-25.7,3.7-33.3,11.2c-7.6,7.3-13.3,21.4-17.1,42.4c-3.6,20.8-7.2,48.8-10.7,84.1c-3.5,35.1-5.2,62-5.2,80.7
		c0,22,9.7,33,29.2,33c5.6,0,15.4-0.9,29.4-2.7c14-2,22-3,23.9-3c3.2,0,4.8,1.9,4.8,5.7L775.9,438.4z"/>
	<path id="path844" inkscape:connector-curvature="0" class="st6" d="M911.8,451.2c-26.9,0-46.6-8.1-59.2-24.2
		c-12.5-16.3-18.7-39.9-18.7-70.9c0-14.4,1.6-33.3,4.8-56.5c3.2-23.2,6.2-40.1,8.9-50.6c2.7-10.6,6.6-21,11.6-31
		c5-10.2,10.9-18.5,17.8-25.1c15-14.6,35.4-21.9,61.1-21.9c36.5,0,60.1,13.4,70.9,40.1c5.8,14.3,8.7,31.6,8.7,52
		c0,20.2-1.6,41.2-4.8,62.9c-3,21.7-5.9,37.8-8.7,48.3c-2.7,10.3-6.6,20.5-11.6,30.5c-4.9,9.9-10.7,18.1-17.5,24.6
		C959.8,444,938.8,451.2,911.8,451.2z M952.1,351.4c1.7-8.1,3.8-23.1,6.4-45.1c2.7-22.2,4.1-38.6,4.1-49.2c0-25.8-9.3-38.7-28-38.7
		c-8.8,0-16.1,4.2-21.9,12.5c-5.6,8.4-10.2,22.3-13.7,41.7c-7,39.5-10.5,71.5-10.5,96.2c0,24.6,9.3,36.9,27.8,36.9
		c8.8,0,16.1-4.2,21.9-12.5C944.1,384.6,948.7,370.7,952.1,351.4z"/>
	<path id="path846" inkscape:connector-curvature="0" class="st6" d="M1160.1,69.3l-41.9,372.3c-0.3,2.1-0.8,3.6-1.6,4.6
		s-2.2,1.4-4.3,1.6l-45.8,1.8c-3.3-0.3-5-1.7-5-4.3l42.2-374.4c0.3-2.1,0.8-3.6,1.6-4.6c0.8-0.9,2.2-1.4,4.3-1.6l44.7-1.6
		C1158.2,63.6,1160.1,65.6,1160.1,69.3L1160.1,69.3z"/>
	<path id="path848" inkscape:connector-curvature="0" class="st6" d="M1284.1,69.3l-41.9,372.3c-0.3,2.1-0.8,3.6-1.6,4.6
		s-2.2,1.4-4.3,1.6l-45.8,1.8c-3.3-0.3-5-1.7-5-4.3l42.2-374.4c0.3-2.1,0.8-3.6,1.6-4.6c0.8-0.9,2.2-1.4,4.3-1.6l44.7-1.6
		C1282.1,63.6,1284.1,65.6,1284.1,69.3L1284.1,69.3z"/>
	<path id="path850" inkscape:connector-curvature="0" class="st6" d="M1511.5,179.1l-29.6,262.7c-0.5,3.9-2.4,6-5.9,6.2l-46,1.6
		c-3.2-0.3-4.8-1.7-4.8-4.3l4.3-31c-7,11.8-14.7,21-23,27.3c-8.2,6.4-17.5,9.6-27.8,9.6s-19.1-1.7-26.4-5.2
		c-7.3-3.6-13.3-8.4-18-14.1c-4.6-5.9-8.3-13-11.2-21.2c-5.3-14.6-8-34.5-8-59.7c0-25.4,1.7-46.9,5-64.5c3.5-17.6,6.5-31,9.1-40.1
		c2.6-9.3,6-18.8,10.3-28.5c4.4-9.7,9.3-17.8,14.8-24.4c12.5-14.9,28.2-22.3,47.2-22.3c14.1,0,24.9,3.4,32.4,10.3
		c7.4,6.7,13.7,16.6,18.7,29.9l2.7-31c0.3-3.3,2.2-5.2,5.7-5.5l44.7-1.6C1509.5,173.5,1511.5,175.5,1511.5,179.1L1511.5,179.1z
		 M1372.5,344.3c0,36.3,9.7,54.5,29.2,54.5c8.5,0,15.4-3.9,20.7-11.6c5.3-7.9,9.9-23.6,13.7-47.2c3.9-23.5,5.9-40.7,5.9-51.5
		c0-10.8-0.1-17.6-0.2-20.5c-0.2-2.9-0.5-6.7-0.9-11.4c-0.5-4.9-1.3-8.9-2.5-12.1c-1.2-3.3-2.8-6.7-4.8-10
		c-3.9-6.5-10.3-9.8-19.1-9.8c-8.8,0-15.8,3.9-21,11.8c-5.2,7.7-9.2,18.2-12.1,31.2C1375.5,295.7,1372.5,321.2,1372.5,344.3z"/>
	<path id="path852" inkscape:connector-curvature="0" class="st6" d="M1667.6,456.9l5.9-49c-7.6,14-15.7,24.7-24.4,32.1
		c-8.5,7.4-18.2,11.2-29.2,11.2c-10.8,0-19.8-1.7-27.1-5.2c-7.3-3.6-13.3-8.4-18-14.1c-4.6-5.9-8.3-13-11.2-21.2
		c-5.3-14.6-8-34.5-8-59.7c0-25.4,1.7-46.9,5-64.5c3.5-17.6,6.5-31,9.1-40.1c2.6-9.3,6-18.8,10.3-28.5c4.4-9.7,9.3-17.8,14.8-24.4
		c12.5-14.9,28.2-22.3,47.2-22.3c14,0,24.7,3.3,32.1,10s13.7,16.6,18.9,29.9l2.3-30.5c0.3-3.6,2.3-5.5,5.9-5.7l46-1.6
		c3.2,0.5,4.8,2.1,4.8,4.8l-31,276.4c-4.4,40.9-17.1,70-38.1,87.3c-16.6,13.8-38.8,20.7-66.8,20.7c-17.8,0-35.8-2.1-54-6.2
		c-2.6-0.5-4.3-1.1-5.2-2.1c-0.9-0.8-1.4-2.3-1.4-4.6l4.6-41.2c0.5-4.1,2.1-6.2,5-6.2c2,0,7.5,1.5,16.6,4.6c9.1,3,19.3,4.6,30.5,4.6
		c11.2,0,20-1.1,26.2-3.2c6.4-2,11.5-5.4,15.3-10.3C1660.6,489.7,1665.1,476,1667.6,456.9L1667.6,456.9z M1613.1,344.3
		c0,36.3,9.7,54.5,29.2,54.5c8.5,0,15.4-3.9,20.7-11.6c5.3-7.9,9.9-23.6,13.7-47.2c3.9-23.5,5.9-40.7,5.9-51.5
		c0-10.8-0.1-17.6-0.2-20.5c-0.2-2.9-0.5-6.7-0.9-11.4c-0.5-4.9-1.3-8.9-2.5-12.1c-1.2-3.3-2.8-6.7-4.8-10
		c-3.9-6.5-10.3-9.8-19.1-9.8c-8.8,0-15.8,3.9-21,11.8c-5.2,7.7-9.2,18.2-12.1,31.2C1616.1,295.7,1613.1,321.2,1613.1,344.3z"/>
	<path id="path854" inkscape:connector-curvature="0" class="st6" d="M1803.6,406.1c-3.5-9.1-5.9-18.1-7.3-26.9
		c-1.2-9-1.8-21.2-1.8-36.7c0-15.5,1.7-34.6,5-57.4c11.1-76,45.6-113.9,103.5-113.9c22.3,0,39.4,7.7,51.3,23
		c11.8,15.3,17.8,35.2,17.8,59.7s-1.5,48.2-4.6,71.3c-0.5,4.1-2.8,6.2-7.1,6.4l-112.6,3.9c-0.2,2.3-0.2,5.3-0.2,9.1
		c0,17.2,3,30.8,8.9,40.8c6.1,10,15.2,15,27.3,15c12.2,0,23.4-1.7,33.7-5.2c10.5-3.6,16.6-5.5,18.5-5.5s3.4,0.6,4.8,1.8
		s2.1,2.9,2.1,5l-4.6,40.1c-0.2,2.3-0.6,3.8-1.4,4.6c-0.6,0.6-1.9,1.3-3.9,2.1c-18.4,5.3-36.1,8-53.1,8c-17,0-30.2-2.1-39.6-6.2
		c-9.4-4.1-17-9.3-22.8-15.7C1811.9,422.8,1807.3,415,1803.6,406.1L1803.6,406.1z M1853.3,278.2l-2.1,14.6l59.5-3
		c2.6-0.2,4.3-0.6,5-1.4c2.3-2.3,3.4-8.5,3.4-18.7c0-10.3-0.4-17.5-1.1-21.6c-0.6-4.3-1.7-8.6-3.4-13c-3.5-9.7-9.5-14.6-18-14.6
		c-8.4,0-15,1.4-19.8,4.3C1866,231.6,1858.2,249.4,1853.3,278.2L1853.3,278.2z"/>
</g>
<g id="text837" transform="matrix(0.27003983,0,0,0.27003983,211.32187,117.73961)">
	<path id="path857" inkscape:connector-curvature="0" class="st7" d="M1128.1,538.4L1095.5,828l87.3-3.4c3.9,0.2,5.9,2.1,5.9,5.9
		l-5.9,47.2c-0.5,3.9-2.4,6-5.9,6.2l-140.4,5c-3.2,0-4.8-1.4-4.8-4.3l39-344.8c0.3-1.8,0.8-3.1,1.4-3.9c0.8-0.8,2.2-1.2,4.3-1.4
		l45.8-1.6C1126.1,533.1,1128.1,534.9,1128.1,538.4L1128.1,538.4z"/>
	<path id="path859" inkscape:connector-curvature="0" class="st7" d="M1434.3,618.4l-29.6,262.7c-0.5,3.9-2.4,6-5.9,6.2l-46,1.6
		c-3.2-0.3-4.8-1.7-4.8-4.3l4.3-31c-7,11.8-14.7,21-23,27.3c-8.2,6.4-17.5,9.6-27.8,9.6c-10.3,0-19.1-1.7-26.4-5.2
		c-7.3-3.6-13.3-8.4-18-14.1c-4.6-5.9-8.3-13-11.2-21.2c-5.3-14.6-8-34.5-8-59.7c0-25.4,1.7-46.9,5-64.5c3.5-17.6,6.5-31,9.1-40.1
		c2.6-9.3,6-18.8,10.3-28.5c4.4-9.7,9.3-17.8,14.8-24.4c12.5-14.9,28.2-22.3,47.2-22.3c14.1,0,24.9,3.4,32.4,10.3
		c7.4,6.7,13.7,16.6,18.7,29.9l2.7-31c0.3-3.3,2.2-5.2,5.7-5.5l44.7-1.6C1432.4,612.7,1434.3,614.7,1434.3,618.4L1434.3,618.4z
		 M1295.3,783.6c0,36.3,9.7,54.5,29.2,54.5c8.5,0,15.4-3.9,20.7-11.6c5.3-7.9,9.9-23.6,13.7-47.2c3.9-23.5,5.9-40.7,5.9-51.5
		c0-10.8-0.1-17.6-0.2-20.5c-0.2-2.9-0.5-6.7-0.9-11.4c-0.5-4.9-1.3-8.9-2.5-12.1c-1.2-3.3-2.8-6.7-4.8-10
		c-3.9-6.5-10.3-9.8-19.1-9.8c-8.8,0-15.8,3.9-21,11.8c-5.2,7.7-9.2,18.2-12.1,31.2C1298.3,734.9,1295.3,760.5,1295.3,783.6
		L1295.3,783.6z"/>
	<path id="path861" inkscape:connector-curvature="0" class="st7" d="M1571.5,508.5l-19.1,145.6c7.6-14.1,15.7-24.9,24.4-32.4
		c8.8-7.6,18.6-11.4,29.4-11.4c10.9,0,20.1,1.8,27.3,5.5c7.3,3.5,13.2,8.2,17.8,14.1c4.7,5.8,8.6,12.8,11.6,21
		c5.2,14.6,7.7,34.6,7.7,59.9c0,25.2-1.7,46.6-5.2,64.3c-3.3,17.6-6.3,31.1-8.9,40.3c-2.6,9.1-6.1,18.5-10.5,28.3
		c-4.3,9.7-9.1,17.8-14.6,24.4c-12.5,14.9-27.1,22.3-44,22.3c-16.7,0-28.8-3.5-36.2-10.5c-7.4-7.1-13.8-17.8-19.1-32.1l-2.5,33.3
		c-0.3,3.9-2.2,6-5.7,6.2l-46,1.6c-3.3-0.3-5-1.7-5-4.3l42.4-374.4c0.3-2.1,0.8-3.6,1.4-4.6c0.8-0.9,2.2-1.4,4.3-1.6l44.7-1.6
		C1569.5,502.8,1571.5,504.9,1571.5,508.5L1571.5,508.5z M1613.2,717.2c0-36.3-9.7-54.5-29.2-54.5c-8.5,0-15.4,3.9-20.7,11.8
		c-5.3,7.7-10,23.4-13.9,46.9c-3.8,23.5-5.7,40.7-5.7,51.5c0,10.8,0.1,17.6,0.2,20.5c0.2,2.9,0.5,6.8,0.9,11.6
		c0.5,4.7,1.3,8.7,2.5,12.1c1.2,3.2,2.8,6.4,4.8,9.6c3.9,6.7,10.3,10,19.1,10c8.8,0,15.8-3.9,21-11.6c5.2-7.9,9.1-18.4,11.8-31.4
		C1610.2,765.9,1613.2,740.3,1613.2,717.2z"/>
	<path id="path863" inkscape:connector-curvature="0" class="st7" d="M1839,665.5l-25.7-1.1c-7.3,0-13.1,1.7-17.3,5
		c-4.1,3.3-6.2,8.2-6.2,14.6c0,6.2,1.1,13.1,3.4,20.7c3,10.2,8.3,22,15.7,35.5c7.6,13.5,12.8,23.1,15.7,28.7
		c8.8,17.5,13.2,34.1,13.2,49.9c0,22.9-6.8,40.6-20.3,53.1c-13.4,12.3-33.7,18.5-61.1,18.5c-13.5,0-24.3-0.8-32.4-2.3
		c-8.1-1.4-12.5-2.4-13.4-3.2c-0.8-0.9-1.1-2.3-1.1-4.1l5.9-42.2c0.3-3.8,1.6-5.7,3.9-5.7c2.4,0,7,0.8,13.7,2.5s12.5,2.5,17.5,2.5
		c18.5,0,27.8-7.4,27.8-22.1c0-10.5-2.3-20.3-6.8-29.4c-4.4-9.1-9.3-18.5-14.6-28.3c-5.2-9.7-9.2-17.5-12.1-23.2
		c-2.9-5.9-5.9-14.1-9.1-24.4c-3-10.3-4.6-20.1-4.6-29.2c0-21.3,6.3-38.4,18.9-51.5c12.8-13.1,31.3-19.6,55.6-19.6
		c15.6,0,27.9,0.8,36.7,2.3c3.8,0.6,5.7,2.6,5.7,5.9l-5,40.6C1843.1,663.4,1841.8,665.5,1839,665.5L1839,665.5z"/>
</g>
<path id="path4624" inkscape:connector-curvature="0" class="st8" d="M871.9,92.4l84.2,327.3"/>
<g class="st9">
	<path class="st10" d="M1094.1,223.1l13.2-33.8h1.9l11.6,34c0.9,2.7,1.5,4.6,1.8,5.8c0.3-1.4,0.9-3.3,1.8-5.8l11.8-35h3.2
		l-15.9,46.1h-1.8l-11.8-33.9c-0.2-0.6-0.4-1.1-0.5-1.7c-0.2-0.6-0.4-1-0.5-1.5c-0.1-0.4-0.3-0.8-0.4-1.1l-0.3-0.8
		c0-0.2-0.1-0.3-0.1-0.4c-0.5,1.5-1.2,3.3-2,5.3l-13.4,34h-1.8l-16.1-46.1h3.4l11.7,34.4c0.6,1.5,1,2.9,1.4,4.2
		c0.4,1.2,0.6,1.9,0.6,2C1092.2,228.1,1092.9,226.1,1094.1,223.1z"/>
	<path class="st10" d="M1148.1,234.2v-41.5h19.4v2.6H1151v15.1h14.8v2.5H1151v18.7h17.1v2.7H1148.1z"/>
	<path class="st10" d="M1202.9,192.8c3-0.3,6.1-0.4,9.3-0.4c3.2,0,5.9,0.8,8.2,2.3c2.3,1.5,3.4,3.8,3.4,6.7c0,2.2-0.6,4.3-1.8,6.1
		c-1.2,1.9-2.6,3.3-4.4,4.3c2.8,0.8,5.1,2.3,6.9,4.4c1.8,2.1,2.8,4.5,2.8,7.1c0,3.7-1.2,6.4-3.5,8.3c-2.3,1.9-5.6,2.8-9.8,2.8
		s-8-0.2-11.2-0.4V192.8z M1221,201.4c0-2.1-0.9-3.7-2.6-4.8c-1.8-1.1-3.8-1.7-6.3-1.7c-2.4,0-4.5,0.1-6.3,0.2v15.7
		c3.7,0,6.7,0.1,8.9,0.3c1.7-0.9,3.1-2.2,4.4-3.9C1220.3,205.4,1221,203.5,1221,201.4z M1208.7,213.2l-2.9,0.1v18.4
		c1.8,0.2,4.8,0.3,8.9,0.3c2.8,0,5.1-0.8,6.9-2.3c1.8-1.6,2.7-3.5,2.7-5.9s-0.9-4.4-2.7-6.2c-1.8-1.8-4.2-3-7.1-3.7
		C1213,213.4,1211.1,213.2,1208.7,213.2z"/>
	<path class="st10" d="M1239.5,234.2v-41.5h19.4v2.6h-16.4v15.1h14.8v2.5h-14.8v18.7h17.1v2.7H1239.5z"/>
	<path class="st10" d="M1271.3,234.2v-41.5h2.9v38.8h19.1v2.7H1271.3z"/>
	<path class="st10" d="M1302.1,234.2v-41.5h2.9v41.5H1302.1z"/>
	<path class="st10" d="M1320.4,234.2v-41.5h19.4v2.6h-16.4v15.1h14.8v2.5h-14.8v18.7h17.1v2.7H1320.4z"/>
	<path class="st10" d="M1365.7,225.5l13.9-32.8h3.1l-17.9,41.8h-1.7l-17.9-41.8h3.2l15.7,36.9
		C1364.3,228.9,1364.9,227.6,1365.7,225.5z"/>
	<path class="st10" d="M1391.1,234.2v-41.5h19.4v2.6h-16.4v15.1h14.8v2.5h-14.8v18.7h17.1v2.7H1391.1z"/>
	<path class="st10" d="M1446,234.2v-41.5h2.9v41.5H1446z"/>
	<path class="st10" d="M1464.3,234.2v-41.8h1.4l27.3,31.4c1,1.1,1.9,2.2,2.7,3.3s1.3,1.7,1.3,1.7c-0.1-1-0.1-3-0.1-6v-30.1h2.9v41.8
		h-1.4l-27.8-31.9l-3.5-4.3c0.1,0.9,0.1,2.9,0.1,6v29.9H1464.3z"/>
	<path class="st10" d="M1545.6,195.3h-14.1v-2.6h31v2.6h-14.1v38.9h-2.9V195.3z"/>
	<path class="st10" d="M1603.1,234.2v-21h-28.9v21h-2.9v-41.5h2.9v17.9h28.9v-17.9h2.9v41.5H1603.1z"/>
	<path class="st10" d="M1621.4,234.2v-41.5h19.4v2.6h-16.4v15.1h14.8v2.5h-14.8v18.7h17.1v2.7H1621.4z"/>
</g>
<g class="st9">
	<path class="st10" d="M1106.4,322.9v-41.3c3.2-0.3,6.6-0.5,10.1-0.5c3.6,0,6.6,1,9.1,2.8c2.5,1.9,3.7,4.8,3.7,8.6s-1.7,7-5.1,9.4
		c-3.4,2.5-7.4,3.7-12,3.7c-0.2,0-0.4,0-0.7,0v-2c0.2,0,0.3,0,0.4,0c3.8,0,7.1-1,9.9-3c2.8-2,4.2-4.6,4.2-7.8s-1-5.5-3-7
		c-2-1.5-4.6-2.2-7.8-2.2c-1.7,0-3.7,0.1-6,0.3v39H1106.4z"/>
	<path class="st10" d="M1158.6,323.6c-5.9,0-10.9-2.1-14.9-6.2c-4-4.1-6-9.2-6-15.2s2-11.1,6-15.2c4-4.1,9-6.2,14.9-6.2
		c5.9,0,10.9,2.1,14.9,6.2c4,4.1,6,9.2,6,15.2s-2,11.1-6,15.2C1169.5,321.5,1164.5,323.6,1158.6,323.6z M1158.6,283.4
		c-5.1,0-9.4,1.8-12.8,5.4c-3.4,3.6-5.1,8.1-5.1,13.3s1.7,9.7,5.1,13.3c3.4,3.6,7.7,5.4,12.8,5.4c5.1,0,9.4-1.8,12.8-5.4
		c3.4-3.6,5.1-8,5.1-13.3s-1.7-9.7-5.1-13.3C1168,285.2,1163.7,283.4,1158.6,283.4z"/>
	<path class="st10" d="M1201.5,312.8l12-30.6h1.9l10.4,30.8l1.5,5.2c0.1-0.8,0.7-2.5,1.6-5.1l10.6-31.7h3.1l-14.5,41.8h-1.7
		c-7.1-20.4-10.8-31.1-11.1-31.9c-0.4-1.2-0.8-2.3-1.2-3.4c-0.2,0.7-0.8,2.2-1.7,4.5l-12.1,30.7h-1.7l-14.6-41.8h3.3l10.6,31.2
		c0.6,1.7,1.2,3.6,1.7,5.7C1199.7,317.4,1200.3,315.6,1201.5,312.8z"/>
	<path class="st10" d="M1251,322.9v-41.5h19.4v2.6h-16.4v15.1h14.8v2.5h-14.8v18.7h17.1v2.7H1251z"/>
	<path class="st10" d="M1282.8,322.9v-41.3c3.7-0.3,6.8-0.4,9.3-0.4c3.9,0,7.2,1,9.7,3c2.6,2,3.8,4.9,3.8,8.7c0,2.5-0.7,4.8-2.2,7
		c-1.5,2.1-3.1,3.9-4.9,5.2c5.1,6.7,8.2,10.8,9.4,12.1c2.4,2.5,5.1,3.9,7.9,4.3l-0.1,2c-2.4,0-4.3-0.4-5.8-1.1
		c-1.5-0.7-3-1.8-4.4-3.4c-1.5-1.6-4.7-5.8-9.7-12.7c-3.5,0-6.8-0.1-10.2-0.3v17H1282.8z M1294.3,303.8c1.7,0,3.5-1.1,5.4-3.3
		c1.9-2.2,2.9-4.8,2.9-7.7s-1-5.2-3-6.7c-2-1.5-4.6-2.3-7.8-2.3c-1.7,0-3.7,0.1-6,0.3v19.5C1288.8,303.7,1291.7,303.8,1294.3,303.8z
		"/>
	<path class="st10" d="M1363.1,323.6c-5.9,0-10.9-2.1-14.9-6.2c-4-4.1-6-9.2-6-15.2s2-11.1,6-15.2c4-4.1,9-6.2,14.9-6.2
		c5.9,0,10.9,2.1,14.9,6.2c4,4.1,6,9.2,6,15.2s-2,11.1-6,15.2C1374,321.5,1369,323.6,1363.1,323.6z M1363.1,283.4
		c-5.1,0-9.4,1.8-12.8,5.4c-3.4,3.6-5.1,8.1-5.1,13.3s1.7,9.7,5.1,13.3c3.4,3.6,7.7,5.4,12.8,5.4c5.1,0,9.4-1.8,12.8-5.4
		c3.4-3.6,5.1-8,5.1-13.3s-1.7-9.7-5.1-13.3C1372.5,285.2,1368.3,283.4,1363.1,283.4z"/>
	<path class="st10" d="M1396.8,322.9v-41.5h21.3v2.6h-18.4v15.1h16.8v2.5h-16.8v21.4H1396.8z"/>
	<path class="st10" d="M1460,284h-14.1v-2.6h31v2.6h-14.1v38.9h-2.9V284z"/>
	<path class="st10" d="M1517.5,322.9v-21h-28.9v21h-2.9v-41.5h2.9v17.9h28.9v-17.9h2.9v41.5H1517.5z"/>
	<path class="st10" d="M1535.8,322.9v-41.5h19.4v2.6h-16.4v15.1h14.8v2.5h-14.8v18.7h17.1v2.7H1535.8z"/>
	<path class="st10" d="M1622.9,320.9c-3.2,1.8-7.6,2.7-13.3,2.7c-5.7,0-10.7-2-15-6.1c-4.3-4.1-6.5-9.2-6.5-15.3
		c0-6.1,1.9-11.2,5.7-15.3c3.8-4.1,8.6-6.1,14.6-6.1c4.8,0,9.5,0.7,14.1,2.2l-0.8,2.4c-4.4-1.4-9-2-13.8-2c-4.7,0-8.7,1.8-11.9,5.4
		c-3.2,3.6-4.8,8-4.8,13.2c0,5.2,1.9,9.7,5.6,13.3c3.7,3.7,8.1,5.5,13,5.5c4.9,0,9-0.7,12.2-2L1622.9,320.9z"/>
	<path class="st10" d="M1633.4,322.9v-41.3c3.7-0.3,6.8-0.4,9.3-0.4c3.9,0,7.2,1,9.7,3c2.6,2,3.8,4.9,3.8,8.7c0,2.5-0.7,4.8-2.2,7
		c-1.5,2.1-3.1,3.9-4.9,5.2c5.1,6.7,8.2,10.8,9.4,12.1c2.4,2.5,5.1,3.9,7.9,4.3l-0.1,2c-2.4,0-4.3-0.4-5.8-1.1
		c-1.5-0.7-3-1.8-4.4-3.4c-1.5-1.6-4.7-5.8-9.7-12.7c-3.5,0-6.8-0.1-10.2-0.3v17H1633.4z M1645,303.8c1.7,0,3.5-1.1,5.4-3.3
		c1.9-2.2,2.9-4.8,2.9-7.7s-1-5.2-3-6.7c-2-1.5-4.6-2.3-7.8-2.3c-1.7,0-3.7,0.1-6,0.3v19.5C1639.5,303.7,1642.3,303.8,1645,303.8z"
		/>
	<path class="st10" d="M1689.2,323.6c-5.9,0-10.9-2.1-14.9-6.2c-4-4.1-6-9.2-6-15.2s2-11.1,6-15.2s9-6.2,14.9-6.2
		c5.9,0,10.9,2.1,14.9,6.2c4,4.1,6,9.2,6,15.2s-2,11.1-6,15.2C1700.1,321.5,1695.1,323.6,1689.2,323.6z M1689.2,283.4
		c-5.1,0-9.4,1.8-12.8,5.4c-3.4,3.6-5.1,8.1-5.1,13.3s1.7,9.7,5.1,13.3c3.4,3.6,7.7,5.4,12.8,5.4c5.1,0,9.4-1.8,12.8-5.4
		c3.4-3.6,5.1-8,5.1-13.3s-1.7-9.7-5.1-13.3C1698.6,285.2,1694.4,283.4,1689.2,283.4z"/>
	<path class="st10" d="M1732.1,312.8l12-30.6h1.9l10.4,30.8l1.5,5.2c0.1-0.8,0.7-2.5,1.6-5.1l10.6-31.7h3.1l-14.5,41.8h-1.7
		c-7.1-20.4-10.8-31.1-11.1-31.9c-0.4-1.2-0.8-2.3-1.2-3.4c-0.2,0.7-0.8,2.2-1.7,4.5l-12.1,30.7h-1.7l-14.6-41.8h3.3l10.6,31.2
		c0.6,1.7,1.2,3.6,1.7,5.7C1730.3,317.4,1731,315.6,1732.1,312.8z"/>
	<path class="st10" d="M1793.6,281c6.4,0,11.7,2,16,5.9c4.3,3.9,6.4,9.3,6.4,16.1s-2,11.9-5.9,15.3c-3.9,3.4-9,5.1-15.3,5.1
		c-4.3,0-8.7-0.2-13.3-0.6v-41.4C1785,281.2,1789,281,1793.6,281z M1794.9,320.8c5.5,0,9.8-1.5,13.2-4.4c3.3-2.9,5-7.4,5-13.3
		c0-5.9-1.9-10.6-5.6-14.1c-3.7-3.5-8.3-5.2-13.8-5.2c-3.9,0-6.9,0.1-9,0.3v36.4C1787.2,320.6,1790.6,320.8,1794.9,320.8z"/>
</g>
</svg>
